<svg width="132" height="20" viewBox="0 0 132 20" fill="none" xmlns="http://www.w3.org/2000/svg">
<path d="M4.5133 19.3473C4.03081 19.5948 3.48331 19.161 3.58081 18.6073L4.6183 12.6948L0.214566 8.49982C-0.196683 8.10732 0.0170667 7.38983 0.568315 7.31233L6.6908 6.44233L9.42079 1.03359C9.66704 0.546094 10.3333 0.546094 10.5795 1.03359L13.3095 6.44233L19.432 7.31233C19.9833 7.38983 20.197 8.10732 19.7845 8.49982L15.382 12.6948L16.4195 18.6073C16.517 19.161 15.9695 19.5948 15.487 19.3473L9.99829 16.5273L4.51205 19.3473H4.5133Z" fill="#FF9900"/>
<path d="M32.5133 19.3473C32.0308 19.5948 31.4833 19.161 31.5808 18.6073L32.6183 12.6948L28.2146 8.49982C27.8033 8.10732 28.0171 7.38983 28.5683 7.31233L34.6908 6.44233L37.4208 1.03359C37.667 0.546094 38.3333 0.546094 38.5795 1.03359L41.3095 6.44233L47.432 7.31233C47.9833 7.38983 48.197 8.10732 47.7845 8.49982L43.382 12.6948L44.4195 18.6073C44.517 19.161 43.9695 19.5948 43.487 19.3473L37.9983 16.5273L32.5121 19.3473H32.5133Z" fill="#FF9900"/>
<path d="M60.5133 19.3473C60.0308 19.5948 59.4833 19.161 59.5808 18.6073L60.6183 12.6948L56.2146 8.49982C55.8033 8.10732 56.0171 7.38983 56.5683 7.31233L62.6908 6.44233L65.4208 1.03359C65.667 0.546094 66.3333 0.546094 66.5795 1.03359L69.3095 6.44233L75.432 7.31233C75.9833 7.38983 76.197 8.10732 75.7845 8.49982L71.382 12.6948L72.4195 18.6073C72.517 19.161 71.9695 19.5948 71.487 19.3473L65.9983 16.5273L60.5121 19.3473H60.5133Z" fill="#FF9900"/>
<path d="M88.5133 19.3473C88.0308 19.5948 87.4833 19.161 87.5808 18.6073L88.6183 12.6948L84.2146 8.49982C83.8033 8.10732 84.0171 7.38983 84.5683 7.31233L90.6908 6.44233L93.4208 1.03359C93.667 0.546094 94.3333 0.546094 94.5795 1.03359L97.3095 6.44233L103.432 7.31233C103.983 7.38983 104.197 8.10732 103.785 8.49982L99.382 12.6948L100.42 18.6073C100.517 19.161 99.9695 19.5948 99.487 19.3473L93.9983 16.5273L88.5121 19.3473H88.5133Z" fill="#FF9900"/>
<path d="M116.513 19.3473C116.031 19.5948 115.483 19.161 115.581 18.6073L116.618 12.6948L112.215 8.49982C111.803 8.10732 112.017 7.38983 112.568 7.31233L118.691 6.44233L121.421 1.03359C121.667 0.546094 122.333 0.546094 122.58 1.03359L125.31 6.44233L131.432 7.31233C131.983 7.38983 132.197 8.10732 131.785 8.49982L127.382 12.6948L128.42 18.6073C128.517 19.161 127.97 19.5948 127.487 19.3473L121.998 16.5273L116.512 19.3473H116.513Z" fill="#FF9900"/>
</svg>
