<svg width="80" height="80" viewBox="0 0 80 80" fill="none" xmlns="http://www.w3.org/2000/svg">
<path d="M61.8294 11.3916C61.8294 5.10016 56.7292 0 50.4378 0C46.0548 0 42.25 2.47531 40.345 6.10437C40.1984 6.38375 39.803 6.38375 39.6564 6.10437C37.7514 2.47531 33.9466 0 29.5634 0C23.272 0 18.1719 5.10016 18.1719 11.3916C18.1719 23.8195 37.6081 35.9341 39.8002 37.2608C39.9236 37.3355 40.0775 37.3355 40.2009 37.2608C42.393 35.9341 61.8294 23.8195 61.8294 11.3916Z" fill="#007580"/>
<path d="M52.0505 0.113281C54.1142 2.175 55.3909 5.02453 55.3909 8.17219C55.3909 19.7661 38.4756 31.0873 34.4258 33.6317C37.0728 35.5802 39.1637 36.8755 39.8005 37.2608C39.9239 37.3355 40.0778 37.3355 40.2012 37.2608C42.3933 35.9341 61.8295 23.8195 61.8295 11.3916C61.8295 5.6475 57.5781 0.896563 52.0505 0.113281Z" fill="#0E8793"/>
<path d="M10.1205 17.4495H5.57828C4.38516 17.4495 3.41797 16.4823 3.41797 15.2892C3.41797 14.0961 4.38516 13.1289 5.57828 13.1289H10.1203C11.3134 13.1289 12.2806 14.0961 12.2806 15.2892C12.2806 16.4823 11.3134 17.4495 10.1205 17.4495Z" fill="#FF9900"/>
<path d="M12.3709 26.6922L8.10277 28.2456C6.98168 28.6538 5.74199 28.0756 5.33402 26.9545C4.9259 25.8335 5.50402 24.5938 6.62511 24.1858L10.8932 22.6324C12.0143 22.2242 13.254 22.8024 13.662 23.9235C14.0701 25.0445 13.492 26.2841 12.3709 26.6922Z" fill="#FF9900"/>
<path d="M12.3709 3.88648L8.10277 2.33304C6.98168 1.92492 5.74199 2.50304 5.33402 3.62414C4.9259 4.74523 5.50402 5.98492 6.62511 6.39289L10.8932 7.94632C12.0143 8.35445 13.254 7.77633 13.662 6.65523C14.0701 5.53429 13.492 4.29461 12.3709 3.88648Z" fill="#FF9900"/>
<path d="M69.8791 17.4495H74.4211C75.6142 17.4495 76.5814 16.4823 76.5814 15.2892C76.5814 14.0961 75.6142 13.1289 74.4211 13.1289H69.8791C68.6859 13.1289 67.7188 14.0961 67.7188 15.2892C67.7189 16.4823 68.6861 17.4495 69.8791 17.4495Z" fill="#FF9900"/>
<path d="M67.629 26.6922L71.8971 28.2456C73.0182 28.6538 74.2579 28.0756 74.6659 26.9545C75.074 25.8335 74.4959 24.5938 73.3748 24.1858L69.1067 22.6324C67.9856 22.2242 66.7459 22.8024 66.3379 23.9235C65.9298 25.0445 66.5079 26.2841 67.629 26.6922Z" fill="#FF9900"/>
<path d="M67.629 3.88648L71.8971 2.33304C73.0182 1.92492 74.2579 2.50304 74.6659 3.62414C75.074 4.74523 74.4959 5.98492 73.3748 6.39289L69.1067 7.94632C67.9856 8.35445 66.7459 7.77633 66.3379 6.65523C65.9298 5.53429 66.5079 4.29461 67.629 3.88648Z" fill="#FF9900"/>
<path d="M65.252 51.792C65.252 51.792 66.8397 40.3728 66.8572 40.317C64.6313 39.8163 62.3877 41.1578 61.7917 43.3817L59.4056 52.2867C59.1531 53.2292 58.5364 54.0328 57.6914 54.5208L65.252 51.792Z" fill="#DF9380"/>
<path d="M72.0805 37.4736C69.7881 36.8382 67.4219 38.1932 66.8073 40.4861L64.4212 49.3913C64.1687 50.3338 63.552 51.1374 62.707 51.6253L70.4333 49.6336L72.0805 37.4736Z" fill="#EAAC9D"/>
<path d="M79.9505 36.7153C80.1263 36.0591 79.7923 35.3657 79.1622 35.1119C75.9048 33.8005 72.3414 35.6503 71.4609 38.9358L69.4355 46.4953C69.183 47.4378 68.5662 48.2414 67.7212 48.7292L53.873 56.7246C52.882 57.2967 51.6939 56.385 51.99 55.2797L53.0372 51.3719C53.8602 48.3007 52.0405 45.1439 48.9722 44.3158C48.027 44.0607 47.0481 44.6185 46.7947 45.5641L43.2681 58.7255C42.4886 61.6349 42.0938 64.6338 42.0938 67.6457V79.8249C42.0938 79.9216 42.1722 80 42.2689 80H55.6591C55.7558 80 55.8342 79.9216 55.8342 79.8249V74.7613C55.8342 72.1307 56.8842 69.6089 58.7514 67.7558L74.8567 51.7707C75.8023 50.8321 76.4823 49.6596 76.8272 48.3725L79.9505 36.7153Z" fill="#FFCBBE"/>
<path d="M14.7458 51.792C14.7458 51.792 13.1581 40.3728 13.1406 40.317C15.3666 39.8163 17.6102 41.1578 18.2061 43.3817L20.5922 52.2867C20.8447 53.2292 21.4614 54.0328 22.3064 54.5208L14.7458 51.792Z" fill="#DF9380"/>
<path d="M7.91797 37.4736C10.2103 36.8382 12.5766 38.1932 13.1911 40.4861L15.5772 49.3913C15.8297 50.3338 16.4464 51.1374 17.2914 51.6253L9.56516 49.6336L7.91797 37.4736Z" fill="#EAAC9D"/>
<path d="M0.046626 36.7153C-0.129155 36.0591 0.204751 35.3657 0.834907 35.1119C4.09225 33.8005 7.65569 35.6503 8.536 38.9358L10.5616 46.4953C10.8141 47.4378 11.4308 48.2414 12.2758 48.7292L26.1241 56.7246C27.1151 57.2967 28.3032 56.385 28.0071 55.2797L26.9599 51.3719C26.1369 48.3007 27.9566 45.1439 31.0249 44.3158C31.9701 44.0607 32.949 44.6185 33.2024 45.5641L36.729 58.7255C37.5085 61.6349 37.9033 64.6338 37.9033 67.6457V79.8249C37.9033 79.9216 37.8249 80 37.7282 80H24.3382C24.2415 80 24.163 79.9216 24.163 79.8249V74.7613C24.163 72.1307 23.113 69.6089 21.2458 67.7558L5.14053 51.7708C4.19491 50.8322 3.51491 49.6597 3.17006 48.3727L0.046626 36.7153Z" fill="#FFCBBE"/>
</svg>
