<svg width="12" height="20" viewBox="0 0 12 20" fill="none" xmlns="http://www.w3.org/2000/svg">
<path d="M6.53033 0.470968C6.23744 0.178075 5.76256 0.178075 5.46967 0.470968L0.696699 5.24394C0.403806 5.53683 0.403806 6.01171 0.696699 6.3046C0.989592 6.59749 1.46447 6.59749 1.75736 6.3046L6 2.06196L10.2426 6.3046C10.5355 6.59749 11.0104 6.59749 11.3033 6.3046C11.5962 6.01171 11.5962 5.53683 11.3033 5.24394L6.53033 0.470968ZM6.75 10.0039L6.75 1.0013L5.25 1.0013L5.25 10.0039L6.75 10.0039Z" fill="white"/>
<path d="M5.46967 19.529C5.76256 19.8219 6.23744 19.8219 6.53033 19.529L11.3033 14.7561C11.5962 14.4632 11.5962 13.9883 11.3033 13.6954C11.0104 13.4025 10.5355 13.4025 10.2426 13.6954L6 17.938L1.75736 13.6954C1.46447 13.4025 0.989593 13.4025 0.696699 13.6954C0.403806 13.9883 0.403806 14.4632 0.696699 14.7561L5.46967 19.529ZM5.25 9.99609L5.25 18.9987L6.75 18.9987L6.75 9.99609L5.25 9.99609Z" fill="white"/>
</svg>
