<svg width="8" height="16" viewBox="0 0 8 16" fill="none" xmlns="http://www.w3.org/2000/svg">
<path d="M4.35355 0.648324C4.15829 0.453062 3.84171 0.453062 3.64645 0.648324L0.464466 3.8303C0.269204 4.02557 0.269204 4.34215 0.464466 4.53741C0.659728 4.73267 0.976311 4.73267 1.17157 4.53741L4 1.70898L6.82843 4.53741C7.02369 4.73267 7.34027 4.73267 7.53553 4.53741C7.7308 4.34215 7.7308 4.02557 7.53553 3.8303L4.35355 0.648324ZM4.5 8.00391L4.5 1.00188L3.5 1.00188L3.5 8.00391L4.5 8.00391Z" fill="black"/>
<path d="M3.64645 15.3517C3.84171 15.5469 4.15829 15.5469 4.35355 15.3517L7.53553 12.1697C7.7308 11.9744 7.7308 11.6579 7.53553 11.4626C7.34027 11.2673 7.02369 11.2673 6.82843 11.4626L4 14.291L1.17157 11.4626C0.976311 11.2673 0.659728 11.2673 0.464466 11.4626C0.269204 11.6579 0.269204 11.9744 0.464466 12.1697L3.64645 15.3517ZM3.5 7.99609L3.5 14.9981L4.5 14.9981L4.5 7.99609L3.5 7.99609Z" fill="black"/>
</svg>
