<svg width="80" height="80" viewBox="0 0 80 80" fill="none" xmlns="http://www.w3.org/2000/svg">
<path d="M0 66.0999V7.22831C0 6.3393 0.720644 5.61865 1.60966 5.61865H78.3903C79.2794 5.61865 80 6.3393 80 7.22831V66.0998C80 66.9888 79.2794 67.7094 78.3903 67.7094H1.60966C0.720644 67.7096 0 66.9888 0 66.0999Z" fill="#FF9900"/>
<path d="M4.9375 62.7833H75.061V10.5454H4.9375V62.7833Z" fill="#FFF9E9"/>
<path d="M68.625 10.5454H75.0636V62.7833H68.625V10.5454Z" fill="#FFF4D6"/>
<path d="M14.4494 21.8578H56.0667C56.7335 21.8578 57.2739 21.3173 57.2739 20.6506C57.2739 19.9839 56.7335 19.4434 56.0667 19.4434H14.4494C13.7825 19.4434 13.2422 19.9839 13.2422 20.6506C13.2422 21.3173 13.7825 21.8578 14.4494 21.8578Z" fill="#FAE19E"/>
<path d="M65.5519 26.7861H14.4494C13.7825 26.7861 13.2422 27.3267 13.2422 27.9934C13.2422 28.6601 13.7825 29.2006 14.4494 29.2006H65.552C66.2189 29.2006 66.7593 28.6601 66.7593 27.9934C66.7593 27.3267 66.2188 26.7861 65.5519 26.7861Z" fill="#FAE19E"/>
<path d="M43.4835 34.1289H14.4494C13.7825 34.1289 13.2422 34.6694 13.2422 35.3361C13.2422 36.0029 13.7825 36.5434 14.4494 36.5434H43.4835C44.1504 36.5434 44.6907 36.0029 44.6907 35.3361C44.6907 34.6694 44.1502 34.1289 43.4835 34.1289Z" fill="#FAE19E"/>
<path d="M34.9833 52.1504C32.9342 52.156 30.8851 52.1608 28.836 52.1642C28.1778 52.1653 27.5195 52.1661 26.8613 52.1666C26.3576 52.1669 25.8141 52.256 25.3885 51.9308C24.9122 51.567 24.7483 51.0532 24.6393 50.4873C24.4032 49.2615 22.6351 49.4176 22.3111 50.4873C22.1677 50.961 21.4433 52.3171 20.8106 52.2062C20.4753 52.1475 20.3288 51.6303 20.2049 51.3624C19.9636 50.8411 19.7878 50.2885 19.6373 49.7347C19.0018 47.3953 18.875 44.9526 18.4774 42.569C18.2469 41.1868 16.14 41.5776 16.106 42.89C15.9979 47.0704 15.3144 51.1936 13.8261 55.112C13.2739 56.566 15.6071 57.1947 16.1543 55.7539C16.7282 54.2431 17.1837 52.696 17.5372 51.126C17.7268 51.698 17.953 52.2592 18.229 52.805C18.9341 54.1983 20.372 55.0226 21.9105 54.4029C22.4595 54.1817 22.9605 53.7951 23.3869 53.3246C23.4471 53.394 23.5077 53.4626 23.5712 53.5266C24.742 54.7086 26.2821 54.5821 27.8137 54.5801C30.2036 54.5771 32.5934 54.5714 34.9835 54.5648C36.5368 54.5605 36.5397 52.146 34.9833 52.1504Z" fill="#009638"/>
<path d="M61.7106 74.3818L58.2498 72.7721L54.7891 74.3818V53.6172H61.7106V74.3818Z" fill="#1FBFCE"/>
<path d="M58.2519 57.6309C57.0307 57.6309 56.231 55.5522 55.1691 55.111C54.0683 54.6537 52.0394 55.5398 51.2098 54.7085C50.3802 53.8775 51.2647 51.845 50.8082 50.7422C50.3678 49.6784 48.293 48.8772 48.293 47.6537C48.293 46.4304 50.3678 45.6293 50.8082 44.5653C51.2647 43.4625 50.3802 41.43 51.2098 40.5989C52.0394 39.7679 54.0683 40.654 55.1689 40.1967C56.2308 39.7555 57.0305 37.6768 58.2518 37.6768C59.473 37.6768 60.2727 39.7555 61.3346 40.1967C62.4354 40.654 64.4642 39.7679 65.2939 40.5991C66.1235 41.4302 65.239 43.4627 65.6955 44.5655C66.1359 45.6293 68.2107 46.4304 68.2107 47.6539C68.2107 48.8772 66.1359 49.6784 65.6955 50.7424C65.239 51.8451 66.1235 53.8776 65.2939 54.7087C64.4642 55.5398 62.4354 54.6537 61.3347 55.111C60.2728 55.5522 59.4732 57.6309 58.2519 57.6309Z" fill="#007580"/>
<path d="M65.6943 44.5655C65.2378 43.4627 66.1223 41.4302 65.2927 40.5991C64.463 39.768 62.4342 40.654 61.3334 40.1967C60.2715 39.7555 59.4718 37.6768 58.2506 37.6768C57.0293 37.6768 56.2296 39.7555 55.1677 40.1967C55.1238 40.2149 55.0779 40.2303 55.0312 40.2445C56.1559 40.5854 58.0574 39.801 58.8539 40.5991C59.6835 41.4302 58.799 43.4627 59.2555 44.5655C59.6959 45.6293 61.7707 46.4304 61.7707 47.6539C61.7707 48.8774 59.6959 49.6785 59.2555 50.7424C58.799 51.8451 59.6835 53.8776 58.8539 54.7087C58.0574 55.5066 56.1559 54.7224 55.0312 55.0633C55.0779 55.0775 55.1238 55.0929 55.1677 55.1111C56.2296 55.5523 57.0293 57.631 58.2506 57.631C59.4718 57.631 60.2713 55.5523 61.3334 55.1111C62.4342 54.6538 64.463 55.5399 65.2925 54.7087C66.1221 53.8776 65.2376 51.8451 65.6941 50.7424C66.1345 49.6785 68.2094 48.8774 68.2094 47.6539C68.2095 46.4304 66.1347 45.6293 65.6943 44.5655Z" fill="#007580"/>
<path d="M58.2503 51.1622C60.1877 51.1622 61.7584 49.5915 61.7584 47.6541C61.7584 45.7166 60.1877 44.146 58.2503 44.146C56.3128 44.146 54.7422 45.7166 54.7422 47.6541C54.7422 49.5915 56.3128 51.1622 58.2503 51.1622Z" fill="#1FBFCE"/>
</svg>
