<svg width="20" height="21" viewBox="0 0 20 21" fill="none" xmlns="http://www.w3.org/2000/svg">
<path d="M9.05324 2.89819H2.78961C2.31498 2.89819 1.85978 3.08674 1.52416 3.42236C1.18855 3.75797 1 4.21317 1 4.6878V17.2151C1 17.6897 1.18855 18.1449 1.52416 18.4805C1.85978 18.8161 2.31498 19.0047 2.78961 19.0047H15.3169C15.7915 19.0047 16.2467 18.8161 16.5823 18.4805C16.9179 18.1449 17.1065 17.6897 17.1065 17.2151V10.9514" stroke="#007580" stroke-width="2" stroke-linecap="round" stroke-linejoin="round"/>
<path d="M15.7597 1.55596C16.1157 1.19998 16.5985 1 17.1019 1C17.6053 1 18.0881 1.19998 18.4441 1.55596C18.8001 1.91194 19.0001 2.39474 19.0001 2.89817C19.0001 3.40159 18.8001 3.8844 18.4441 4.24038L9.94348 12.741L6.36426 13.6358L7.25906 10.0566L15.7597 1.55596Z" stroke="#007580" stroke-width="2" stroke-linecap="round" stroke-linejoin="round"/>
</svg>
