<svg width="16" height="17" viewBox="0 0 16 17" fill="none" xmlns="http://www.w3.org/2000/svg">
<path d="M7.40761 2.77832H2.36315C1.9809 2.77832 1.61431 2.93017 1.34401 3.20046C1.07372 3.47075 0.921875 3.83734 0.921875 4.21959V14.3085C0.921875 14.6908 1.07372 15.0574 1.34401 15.3276C1.61431 15.5979 1.9809 15.7498 2.36315 15.7498H12.4521C12.8343 15.7498 13.2009 15.5979 13.4712 15.3276C13.7415 15.0574 13.8933 14.6908 13.8933 14.3085V9.26405" stroke="#007580" stroke-width="1.5" stroke-linecap="round" stroke-linejoin="round"/>
<path d="M12.4573 1.69775C12.744 1.41106 13.1328 1.25 13.5383 1.25C13.9437 1.25 14.3325 1.41106 14.6192 1.69775C14.9059 1.98443 15.067 2.37326 15.067 2.7787C15.067 3.18414 14.9059 3.57297 14.6192 3.85966L7.77317 10.7057L4.89062 11.4263L5.61126 8.5438L12.4573 1.69775Z" stroke="#007580" stroke-width="1.5" stroke-linecap="round" stroke-linejoin="round"/>
</svg>
