<svg width="17" height="16" viewBox="0 0 17 16" fill="none" xmlns="http://www.w3.org/2000/svg">
<path d="M7.33275 2.58594H2.5045C2.13863 2.58594 1.78775 2.73128 1.52905 2.98998C1.27034 3.24869 1.125 3.59957 1.125 3.96544V13.6219C1.125 13.9878 1.27034 14.3387 1.52905 14.5974C1.78775 14.8561 2.13863 15.0014 2.5045 15.0014H12.161C12.5269 15.0014 12.8777 14.8561 13.1365 14.5974C13.3952 14.3387 13.5405 13.9878 13.5405 13.6219V8.79369" stroke="#737373" stroke-width="2" stroke-linecap="round" stroke-linejoin="round"/>
<path d="M12.508 1.55356C12.7824 1.27916 13.1546 1.125 13.5426 1.125C13.9307 1.125 14.3028 1.27916 14.5772 1.55356C14.8516 1.82796 15.0058 2.20012 15.0058 2.58818C15.0058 2.97624 14.8516 3.34841 14.5772 3.62281L8.02462 10.1754L5.26562 10.8652L5.95537 8.10618L12.508 1.55356Z" stroke="#737373" stroke-width="2" stroke-linecap="round" stroke-linejoin="round"/>
</svg>
