<svg width="16" height="17" viewBox="0 0 16 17" fill="none" xmlns="http://www.w3.org/2000/svg">
<path d="M4.12122 14.6263L4.52302 13.993C4.33262 13.8722 4.09797 13.8434 3.88405 13.9147L4.12122 14.6263ZM0.75 15.75L0.0384876 15.5128C-0.0513461 15.7823 0.0187957 16.0795 0.21967 16.2803C0.420544 16.4812 0.71767 16.5513 0.987171 16.4615L0.75 15.75ZM1.87374 12.3788L2.58525 12.6159C2.65656 12.402 2.62783 12.1674 2.50703 11.977L1.87374 12.3788ZM8 16.5C12.4183 16.5 16 12.9183 16 8.5H14.5C14.5 12.0899 11.5899 15 8 15V16.5ZM3.71942 15.2595C4.95767 16.0452 6.42686 16.5 8 16.5V15C6.71976 15 5.52808 14.6306 4.52302 13.993L3.71942 15.2595ZM3.88405 13.9147L0.512829 15.0385L0.987171 16.4615L4.3584 15.3378L3.88405 13.9147ZM1.46151 15.9872L2.58525 12.6159L1.16223 12.1416L0.0384876 15.5128L1.46151 15.9872ZM0 8.5C0 10.0731 0.454829 11.5423 1.24045 12.7806L2.50703 11.977C1.86936 10.9719 1.5 9.78024 1.5 8.5H0ZM8 0.5C3.58172 0.5 0 4.08172 0 8.5H1.5C1.5 4.91015 4.41015 2 8 2V0.5ZM16 8.5C16 4.08172 12.4183 0.5 8 0.5V2C11.5899 2 14.5 4.91015 14.5 8.5H16Z" fill="#009638"/>
<line x1="4.72266" y1="6.94336" x2="11.2782" y2="6.94336" stroke="#009638" stroke-width="1.5" stroke-linecap="round"/>
<line x1="4.72266" y1="10.165" x2="8.05599" y2="10.165" stroke="#009638" stroke-width="1.5" stroke-linecap="round"/>
</svg>
