<svg width="16" height="17" viewBox="0 0 16 17" fill="none" xmlns="http://www.w3.org/2000/svg">
<path fill-rule="evenodd" clip-rule="evenodd" d="M7.2824 0.518932C5.73632 0.670303 4.30738 1.23988 3.05451 2.20416C2.44439 2.67374 1.65206 3.55623 1.19418 4.27612C0.996433 4.58703 0.611496 5.37487 0.4736 5.75085C0.319419 6.17128 0.15509 6.81376 0.0742252 7.31229C-0.0247417 7.92247 -0.0247417 9.08097 0.0742252 9.69115C0.214157 10.5537 0.435517 11.2511 0.81441 12.0231C1.22838 12.8665 1.65882 13.4643 2.34811 14.1532C3.03744 14.8421 3.63562 15.2723 4.4795 15.6861C5.25195 16.0647 5.94966 16.286 6.81274 16.4258C7.42327 16.5247 8.58243 16.5247 9.19296 16.4258C10.056 16.286 10.7538 16.0647 11.5262 15.6861C12.3701 15.2723 12.9683 14.8421 13.6576 14.1532C14.3469 13.4643 14.7773 12.8665 15.1913 12.0231C15.4662 11.4628 15.6045 11.0957 15.7527 10.5327C15.95 9.78289 16 9.37188 16 8.50172C16 7.63156 15.95 7.22055 15.7527 6.47077C15.6045 5.90776 15.4662 5.54061 15.1913 4.98038C14.7773 4.13699 14.3469 3.53914 13.6576 2.85021C12.9683 2.16131 12.3701 1.73112 11.5262 1.31738C10.7545 0.939051 10.043 0.713341 9.20862 0.58216C8.74826 0.509793 7.72032 0.47605 7.2824 0.518932ZM12.1978 5.06571C12.3544 5.11379 12.5934 5.35058 12.6595 5.52323C12.7361 5.72328 12.7284 5.98314 12.6406 6.16443C12.542 6.36792 7.38669 11.4822 7.15299 11.6083C6.92925 11.7291 6.66501 11.7291 6.44093 11.6083C6.30826 11.5368 3.93359 9.41119 3.52986 9.00253C3.37223 8.84299 3.29381 8.64814 3.29672 8.42347C3.30293 7.94973 3.64856 7.63021 4.1184 7.6638C4.23115 7.67187 4.36854 7.7018 4.42369 7.73028C4.5071 7.77338 6.09032 9.19584 6.60178 9.6872L6.75101 9.83053L9.09161 7.49468C10.379 6.20997 11.4776 5.13617 11.533 5.10847C11.75 4.99995 11.943 4.98752 12.1978 5.06571Z" fill="#009638"/>
</svg>
