<svg width="16" height="17" viewBox="0 0 16 17" fill="none" xmlns="http://www.w3.org/2000/svg">
<path d="M1.5 4.15039H2.95H14.55" stroke="#FF3333" stroke-width="1.5" stroke-linecap="round" stroke-linejoin="round"/>
<path d="M13.1031 4.15V14.3C13.1031 14.6846 12.9504 15.0534 12.6784 15.3253C12.4065 15.5972 12.0377 15.75 11.6531 15.75H4.40312C4.01856 15.75 3.64975 15.5972 3.37782 15.3253C3.10589 15.0534 2.95313 14.6846 2.95312 14.3V4.15M5.12812 4.15V2.7C5.12812 2.31544 5.28089 1.94662 5.55282 1.6747C5.82475 1.40277 6.19356 1.25 6.57812 1.25H9.47812C9.86269 1.25 10.2315 1.40277 10.5034 1.6747C10.7754 1.94662 10.9281 2.31544 10.9281 2.7V4.15" stroke="#FF3333" stroke-width="1.5" stroke-linecap="round" stroke-linejoin="round"/>
<path d="M6.57812 7.77539V12.1254" stroke="#FF3333" stroke-width="1.5" stroke-linecap="round" stroke-linejoin="round"/>
<path d="M9.47656 7.77539V12.1254" stroke="#FF3333" stroke-width="1.5" stroke-linecap="round" stroke-linejoin="round"/>
</svg>
