<svg width="16" height="16" viewBox="0 0 16 16" fill="none" xmlns="http://www.w3.org/2000/svg">
<path d="M1.70312 3.80078H3.10313H14.3031" stroke="#007580" stroke-width="2" stroke-linecap="round" stroke-linejoin="round"/>
<path d="M5.20156 3.8V2.4C5.20156 2.0287 5.34906 1.6726 5.61161 1.41005C5.87416 1.1475 6.23026 1 6.60156 1H9.40156C9.77287 1 10.129 1.1475 10.3915 1.41005C10.6541 1.6726 10.8016 2.0287 10.8016 2.4V3.8M12.9016 3.8V13.6C12.9016 13.9713 12.7541 14.3274 12.4915 14.5899C12.229 14.8525 11.8729 15 11.5016 15H4.50156C4.13026 15 3.77416 14.8525 3.51161 14.5899C3.24906 14.3274 3.10156 13.9713 3.10156 13.6V3.8H12.9016Z" stroke="#007580" stroke-width="2" stroke-linecap="round" stroke-linejoin="round"/>
<path d="M6.60156 7.30078V11.5008" stroke="#007580" stroke-width="2" stroke-linecap="round" stroke-linejoin="round"/>
<path d="M9.40625 7.30078V11.5008" stroke="#007580" stroke-width="2" stroke-linecap="round" stroke-linejoin="round"/>
</svg>
