<svg width="16" height="16" viewBox="0 0 16 16" fill="none" xmlns="http://www.w3.org/2000/svg">
<path d="M1.69922 3.79688H3.09922H14.2992" stroke="#4A4A4A" stroke-width="2" stroke-linecap="round" stroke-linejoin="round"/>
<path d="M12.8977 3.8V13.6C12.8977 13.9713 12.7502 14.3274 12.4876 14.5899C12.2251 14.8525 11.869 15 11.4977 15H4.49766C4.12635 15 3.77026 14.8525 3.50771 14.5899C3.24516 14.3274 3.09766 13.9713 3.09766 13.6V3.8M5.19766 3.8V2.4C5.19766 2.0287 5.34516 1.6726 5.60771 1.41005C5.87026 1.1475 6.22635 1 6.59766 1H9.39766C9.76896 1 10.1251 1.1475 10.3876 1.41005C10.6502 1.6726 10.7977 2.0287 10.7977 2.4V3.8" stroke="#4A4A4A" stroke-width="2" stroke-linecap="round" stroke-linejoin="round"/>
<path d="M6.59766 7.29688V11.4969" stroke="#4A4A4A" stroke-width="2" stroke-linecap="round" stroke-linejoin="round"/>
<path d="M9.39844 7.29688V11.4969" stroke="#4A4A4A" stroke-width="2" stroke-linecap="round" stroke-linejoin="round"/>
</svg>
