<svg width="28" height="28" viewBox="0 0 28 28" fill="none" xmlns="http://www.w3.org/2000/svg">
<path d="M24.1564 10.1914H12.7401C11.339 10.1914 10.2031 11.3273 10.2031 12.7285V24.1454C10.2031 25.5466 11.339 26.6825 12.7401 26.6825H24.1564C25.5575 26.6825 26.6933 25.5466 26.6933 24.1454V12.7285C26.6933 11.3273 25.5575 10.1914 24.1564 10.1914Z" stroke="#007580" stroke-width="1.5" stroke-linecap="round" stroke-linejoin="round"/>
<path d="M5.11793 17.8036H3.84945C3.17661 17.8036 2.53133 17.5363 2.05556 17.0605C1.57979 16.5847 1.3125 15.9394 1.3125 15.2665V3.84959C1.3125 3.17671 1.57979 2.53139 2.05556 2.0556C2.53133 1.5798 3.17661 1.3125 3.84945 1.3125H15.2657C15.9386 1.3125 16.5839 1.5798 17.0596 2.0556C17.5354 2.53139 17.8027 3.17671 17.8027 3.84959V5.11814" stroke="#007580" stroke-width="1.5" stroke-linecap="round" stroke-linejoin="round"/>
</svg>
