<svg width="19" height="19" viewBox="0 0 19 19" fill="none" xmlns="http://www.w3.org/2000/svg">
<path d="M11.25 1H4.45C3.99913 1 3.56673 1.17911 3.24792 1.49792C2.92911 1.81673 2.75 2.24913 2.75 2.7V16.3C2.75 16.7509 2.92911 17.1833 3.24792 17.5021C3.56673 17.8209 3.99913 18 4.45 18H14.65C15.1009 18 15.5333 17.8209 15.8521 17.5021C16.1709 17.1833 16.35 16.7509 16.35 16.3V6.1L11.25 1Z" stroke="#007580" stroke-width="2" stroke-linecap="round" stroke-linejoin="round"/>
<path d="M11.25 1V6.1H16.35" stroke="#007580" stroke-width="2" stroke-linecap="round" stroke-linejoin="round"/>
<path d="M12.9484 10.3496H6.14844" stroke="#007580" stroke-width="2" stroke-linecap="round" stroke-linejoin="round"/>
<path d="M12.9484 13.75H6.14844" stroke="#007580" stroke-width="2" stroke-linecap="round" stroke-linejoin="round"/>
<path d="M7.84844 6.94922H6.99844H6.14844" stroke="#007580" stroke-width="2" stroke-linecap="round" stroke-linejoin="round"/>
</svg>
