<svg width="16" height="16" viewBox="0 0 16 16" fill="none" xmlns="http://www.w3.org/2000/svg">
<path d="M7.26208 2.47656H2.39157C2.02251 2.47656 1.66855 2.62317 1.40758 2.88415C1.14661 3.14512 1 3.49907 1 3.86814V13.6092C1 13.9782 1.14661 14.3322 1.40758 14.5931C1.66855 14.8541 2.02251 15.0007 2.39157 15.0007H12.1326C12.5017 15.0007 12.8556 14.8541 13.1166 14.5931C13.3776 14.3322 13.5242 13.9782 13.5242 13.6092V8.73865" stroke="#007580" stroke-width="2" stroke-linecap="round" stroke-linejoin="round"/>
<path d="M12.4776 1.43231C12.7544 1.15551 13.1299 1 13.5213 1C13.9128 1 14.2882 1.15551 14.565 1.43231C14.8418 1.70911 14.9973 2.08453 14.9973 2.47599C14.9973 2.86744 14.8418 3.24287 14.565 3.51967L7.95502 10.1296L5.17188 10.8254L5.86766 8.04229L12.4776 1.43231Z" stroke="#007580" stroke-width="2" stroke-linecap="round" stroke-linejoin="round"/>
</svg>
