<svg width="80" height="80" viewBox="0 0 80 80" fill="none" xmlns="http://www.w3.org/2000/svg">
<path d="M16.4828 80H61.0141C62.3084 80 63.3578 78.9506 63.3578 77.6562V69.7656H16.4453L16.4828 80Z" fill="#00A4B3"/>
<path d="M63.3578 69.7656V77.6562C63.3578 78.95 62.3078 80 61.0141 80H40.0391V69.7656H63.3578Z" fill="#007580"/>
<path d="M75.2344 11.7969V68.2812C75.2344 69.5766 74.1828 70.625 72.8906 70.625C72.9078 70.625 35.7359 70.5625 26.6406 70.5469V9.45312H72.8906C74.1844 9.45312 75.2344 10.5031 75.2344 11.7969Z" fill="#005E66"/>
<path d="M75.2328 11.7969V68.2812C75.2328 69.5766 74.1812 70.625 72.8891 70.625C72.9016 70.625 54.1625 70.5938 40.0391 70.5688V9.45312H72.8891C74.1828 9.45312 75.2328 10.5031 75.2328 11.7969Z" fill="#008C99"/>
<path d="M75.2336 51.6377L56.2461 70.6252L56.4023 53.9596C56.4148 52.6736 57.4602 51.6377 58.7461 51.6377H75.2336Z" fill="#007580"/>
<path d="M35.5469 28.2812H68.2031C69.4975 28.2812 70.5469 27.2319 70.5469 25.9375C70.5469 24.6431 69.4975 23.5938 68.2031 23.5938H35.5469C34.2525 23.5938 33.2031 24.6431 33.2031 25.9375C33.2031 27.2319 34.2525 28.2812 35.5469 28.2812Z" fill="white"/>
<path d="M70.5453 25.9375C70.5453 27.2313 69.4953 28.2812 68.2016 28.2812H40.0391V23.5938H68.2016C69.4953 23.5938 70.5453 24.6438 70.5453 25.9375Z" fill="white"/>
<path d="M68.2031 32.9688H35.5469C34.2525 32.9688 33.2031 34.0181 33.2031 35.3125C33.2031 36.6069 34.2525 37.6562 35.5469 37.6562H68.2031C69.4975 37.6562 70.5469 36.6069 70.5469 35.3125C70.5469 34.0181 69.4975 32.9688 68.2031 32.9688Z" fill="white"/>
<path d="M70.5453 35.3125C70.5453 36.6063 69.4953 37.6562 68.2016 37.6562H40.0391V32.9688H68.2016C69.4953 32.9688 70.5453 34.0188 70.5453 35.3125Z" fill="white"/>
<path d="M68.2031 42.3438H35.5469C34.2525 42.3438 33.2031 43.3931 33.2031 44.6875C33.2031 45.9819 34.2525 47.0312 35.5469 47.0312H68.2031C69.4975 47.0312 70.5469 45.9819 70.5469 44.6875C70.5469 43.3931 69.4975 42.3438 68.2031 42.3438Z" fill="white"/>
<path d="M70.5453 44.6875C70.5453 45.9813 69.4953 47.0312 68.2016 47.0312H40.0391V42.3438H68.2016C69.4953 42.3438 70.5453 43.3938 70.5453 44.6875Z" fill="white"/>
<path d="M49.4531 51.5625H35.5469C34.2525 51.5625 33.2031 52.6119 33.2031 53.9062C33.2031 55.2006 34.2525 56.25 35.5469 56.25H49.4531C50.7475 56.25 51.7969 55.2006 51.7969 53.9062C51.7969 52.6119 50.7475 51.5625 49.4531 51.5625Z" fill="white"/>
<path d="M51.7953 53.9062C51.7953 55.2 50.7453 56.25 49.4516 56.25H40.0391V51.5625H49.4516C50.7453 51.5625 51.7953 52.6125 51.7953 53.9062Z" fill="white"/>
<path d="M28.2031 11.7188C28.2031 5.24672 22.9564 0 16.4844 0C10.0123 0 4.76562 5.24672 4.76562 11.7188V68.2812H28.2031C28.2031 63.3347 28.2031 11.6942 28.2031 11.7188Z" fill="#007580"/>
<path d="M16.4844 56.5625C10.0123 56.5625 4.76562 61.8092 4.76562 68.2812C4.76562 74.7533 10.0123 80 16.4844 80C22.9564 80 28.2031 74.7533 28.2031 68.2812C28.2031 61.8092 22.9564 56.5625 16.4844 56.5625Z" fill="#008C99"/>
</svg>
