<svg width="400" height="263" viewBox="0 0 400 263" fill="none" xmlns="http://www.w3.org/2000/svg">
<g clip-path="url(#clip0_2016_38699)">
<path d="M393.069 61.7972L386.813 92.0878L382.786 88.1658L375.936 93.0487L370.7 86.5513L358.961 95.0881L348.927 78.3087L337.736 84.8649L333.298 78.7401L319.087 86.7474L314.812 77.5962L324.774 29.3496L378.178 40.3768L393.069 61.7972Z" fill="#EBEBEB"/>
<path d="M378.173 40.377L393.064 61.7974L374.539 57.9735L378.173 40.377Z" fill="#DBDBDB"/>
<path d="M385.473 98.1466L376.302 142.589L304.367 127.744L313.473 83.6484L317.748 92.8062L331.965 84.7989L336.396 90.9171L347.594 84.3609L357.621 101.14L369.367 92.6036L374.596 99.1009L381.453 94.2181L385.473 98.1466Z" fill="#EBEBEB"/>
<path d="M282.515 92.9372L209.207 97.4736L203.383 3.36634L257.82 0L277.802 16.7598L282.515 92.9372Z" fill="#EBEBEB"/>
<path d="M257.82 0L277.803 16.7598L258.925 17.9299L257.82 0Z" fill="#DBDBDB"/>
<path d="M237.527 63.3202L237.24 61.1958C236.501 56.7966 237.704 51.8746 241.528 46.7303C244.979 42.1547 246.849 38.8864 246.639 35.1736C246.404 30.9902 243.626 28.3494 238.456 28.5586C235.501 28.712 232.662 29.7607 230.318 31.5654L228.062 26.5126C230.677 24.3882 235.253 22.8195 239.6 22.5907C249.032 22.0677 253.621 27.65 253.98 33.8794C254.294 39.4551 251.405 43.645 247.731 48.5409C244.358 53.0054 243.254 56.6855 243.731 60.8493L243.933 62.9803L237.527 63.3202ZM236.364 74.8965C236.194 71.8635 238.122 69.6149 240.992 69.458C243.861 69.3011 245.953 71.3144 246.123 74.3539C246.28 77.2235 244.522 79.5374 241.489 79.7074C238.593 79.8708 236.501 77.766 236.338 74.8965H236.364Z" fill="#DBDBDB"/>
<path d="M54.1645 47.3109L46.7912 43.9707L45.765 46.2258C45.6134 46.5481 45.377 46.823 45.081 47.0211C44.7851 47.2192 44.4408 47.3329 44.0851 47.3501C43.6799 47.3634 43.276 47.4027 42.8758 47.4678C42.5245 47.5199 42.1657 47.4757 41.8376 47.3399C41.5095 47.204 41.2245 46.9817 41.0129 46.6965L39.5683 44.6767L32.9859 49.3961L34.4305 51.4159C34.6315 51.7074 34.7497 52.0479 34.7727 52.4012C34.7957 52.7545 34.7227 53.1075 34.5613 53.4226C34.3749 53.7821 34.2069 54.1508 34.0579 54.5273C33.9285 54.8593 33.7109 55.1497 33.4288 55.3674C33.1466 55.5851 32.8105 55.7217 32.4565 55.7627L29.9922 56.0046L30.7831 64.0642L33.2605 63.8158C33.6158 63.7874 33.9721 63.8564 34.2911 64.0153C34.6101 64.1743 34.8798 64.4171 35.0711 64.7178C35.1757 64.8878 35.2868 65.0512 35.4045 65.2146C35.5221 65.378 35.6398 65.5349 35.764 65.6918C35.9896 65.9662 36.1346 66.2979 36.1831 66.6498C36.2316 67.0018 36.1815 67.3602 36.0385 67.6854L35.0057 69.9602L42.3856 73.3069L43.4118 71.0387C43.5648 70.7167 43.8026 70.4425 44.0997 70.2456C44.3969 70.0486 44.7421 69.9364 45.0982 69.921C45.4989 69.9044 45.8983 69.8652 46.2944 69.8033C46.6457 69.7511 47.0045 69.7953 47.3326 69.9312C47.6607 70.067 47.9458 70.2894 48.1574 70.5746L49.602 72.5944L56.1908 67.875L54.7462 65.8552C54.5391 65.5663 54.4171 65.2252 54.394 64.8705C54.3709 64.5158 54.4476 64.1618 54.6155 63.8485C54.7976 63.491 54.9612 63.1245 55.1058 62.7503C55.2315 62.4159 55.4479 62.1231 55.7308 61.9049C56.0137 61.6867 56.3518 61.5516 56.7072 61.5149L59.1846 61.2665L58.3871 53.2069L55.9098 53.4488C55.5567 53.4798 55.2019 53.4125 54.8847 53.2545C54.5675 53.0965 54.3001 52.8538 54.1122 52.5532C54.0011 52.3833 53.89 52.2199 53.7723 52.0565C53.6546 51.893 53.537 51.7296 53.4128 51.5793C53.1887 51.3015 53.0448 50.9677 52.9964 50.6141C52.948 50.2605 52.9971 49.9004 53.1383 49.5726L54.1645 47.3109ZM49.9811 54.7692C50.7455 55.8358 51.1764 57.1053 51.2192 58.4168C51.2621 59.7284 50.9151 61.0233 50.222 62.1377C49.529 63.252 48.521 64.1358 47.3256 64.6773C46.1303 65.2187 44.8012 65.3935 43.5064 65.1796C42.2117 64.9656 41.0095 64.3725 40.0519 63.4752C39.0942 62.578 38.4242 61.4169 38.1265 60.1388C37.8288 58.8607 37.9168 57.5231 38.3794 56.295C38.842 55.0669 39.6583 54.0036 40.7253 53.2396C42.1556 52.2153 43.9342 51.801 45.6699 52.0878C47.4056 52.3747 48.9563 53.3391 49.9811 54.7692Z" fill="#EBEBEB"/>
<path d="M387.462 154.25L382.547 157.087L383.416 158.59C383.546 158.806 383.61 159.055 383.602 159.306C383.594 159.558 383.514 159.802 383.37 160.009C383.22 160.244 383.076 160.486 382.945 160.741C382.838 160.966 382.668 161.156 382.456 161.288C382.244 161.42 381.999 161.489 381.749 161.486H380.023V167.166H381.762C382.012 167.163 382.257 167.232 382.469 167.364C382.681 167.496 382.851 167.686 382.958 167.911C383.089 168.166 383.233 168.408 383.383 168.644C383.527 168.851 383.607 169.094 383.615 169.346C383.623 169.598 383.559 169.846 383.429 170.062L382.56 171.565L387.475 174.402L388.351 172.892C388.478 172.678 388.662 172.504 388.882 172.388C389.103 172.273 389.351 172.221 389.6 172.239H390.436C390.684 172.222 390.932 172.274 391.153 172.389C391.373 172.505 391.557 172.679 391.685 172.892L392.561 174.409L397.47 171.572L396.6 170.062C396.477 169.845 396.416 169.598 396.425 169.349C396.434 169.099 396.513 168.857 396.653 168.65C396.803 168.415 396.947 168.166 397.077 167.918C397.185 167.693 397.355 167.502 397.567 167.37C397.778 167.238 398.024 167.17 398.274 167.173H400.012V161.493H398.261C398.011 161.496 397.765 161.427 397.553 161.295C397.341 161.163 397.172 160.973 397.064 160.747C396.934 160.499 396.79 160.251 396.639 160.015C396.5 159.808 396.421 159.566 396.412 159.317C396.403 159.067 396.464 158.82 396.587 158.603L397.457 157.093L392.548 154.257L391.672 155.747C391.545 155.961 391.361 156.136 391.14 156.251C390.92 156.367 390.671 156.418 390.423 156.401H390.005H389.586C389.337 156.417 389.089 156.365 388.867 156.25C388.646 156.135 388.46 155.961 388.331 155.747L387.462 154.25ZM390.005 159.675C390.926 159.674 391.827 159.946 392.593 160.457C393.359 160.968 393.957 161.695 394.31 162.545C394.663 163.396 394.756 164.332 394.576 165.236C394.397 166.139 393.954 166.969 393.302 167.62C392.651 168.272 391.821 168.715 390.918 168.894C390.014 169.074 389.078 168.981 388.227 168.628C387.377 168.275 386.65 167.677 386.139 166.911C385.628 166.145 385.356 165.244 385.357 164.323C385.356 163.712 385.476 163.107 385.709 162.542C385.942 161.978 386.285 161.465 386.716 161.032C387.148 160.6 387.66 160.257 388.225 160.023C388.789 159.789 389.394 159.669 390.005 159.669V159.675Z" fill="#EBEBEB"/>
<path d="M69.0806 23.16L64.5769 26.6114L65.6162 27.9906C65.7712 28.1871 65.8666 28.424 65.8909 28.6731C65.9152 28.9223 65.8675 29.1731 65.7535 29.3959C65.6284 29.6504 65.5192 29.9124 65.4267 30.1803C65.3461 30.4164 65.2012 30.6253 65.0084 30.7835C64.8155 30.9417 64.5823 31.043 64.335 31.0758L62.6094 31.2981L63.3415 36.9261L65.0671 36.7038C65.3183 36.6688 65.5743 36.7055 65.8056 36.8096C66.0369 36.9136 66.2341 37.0809 66.3745 37.2921C66.5319 37.5195 66.7021 37.7378 66.8843 37.9458C67.0527 38.131 67.1644 38.3606 67.2061 38.6074C67.2478 38.8543 67.2178 39.1079 67.1196 39.3381L66.466 40.9461L71.6952 43.1228L72.3489 41.5148C72.4462 41.2841 72.6061 41.0853 72.8106 40.9409C73.0151 40.7965 73.256 40.7122 73.5059 40.6977L73.9242 40.6519L74.336 40.5866C74.5779 40.541 74.8277 40.5626 75.0582 40.649C75.2887 40.7355 75.4911 40.8834 75.6433 41.0768L76.7088 42.4691L81.2125 39.0178L80.1601 37.6386C80.0081 37.4393 79.9147 37.2016 79.8905 36.9522C79.8662 36.7027 79.9121 36.4515 80.0228 36.2267C80.1468 35.9739 80.2559 35.7142 80.3497 35.4488C80.4302 35.2127 80.5751 35.0038 80.768 34.8456C80.9608 34.6874 81.194 34.5862 81.4413 34.5533L83.167 34.3311L82.4348 28.7031L80.7092 28.9253C80.4586 28.961 80.2031 28.9254 79.9719 28.8225C79.7406 28.7196 79.5431 28.5536 79.4019 28.3436C79.2385 28.1082 79.0685 27.886 78.8855 27.6899C78.7332 27.5007 78.6347 27.2741 78.6002 27.0337C78.5657 26.7933 78.5965 26.5481 78.6894 26.3237L79.343 24.7157L74.1138 22.5391L73.4601 24.1471C73.3616 24.3769 73.2013 24.5749 72.9971 24.7191C72.7929 24.8633 72.5526 24.9481 72.3031 24.9641L71.8848 25.0034L71.4991 25.0164C71.2572 25.062 71.0075 25.0404 70.777 24.954C70.5465 24.8676 70.3441 24.7196 70.1918 24.5262L69.0806 23.16ZM72.3031 28.2128C73.2137 28.0958 74.1385 28.251 74.9609 28.659C75.7833 29.0669 76.4665 29.7093 76.9242 30.505C77.382 31.3008 77.5938 32.2143 77.533 33.1303C77.4722 34.0463 77.1414 34.9238 76.5825 35.652C76.0236 36.3803 75.2615 36.9267 74.3923 37.2223C73.5232 37.518 72.586 37.5496 71.6989 37.3132C70.8119 37.0768 70.0147 36.583 69.4079 35.8941C68.8012 35.2051 68.4121 34.3519 68.2897 33.4421C68.208 32.8349 68.2472 32.2176 68.4049 31.6257C68.5627 31.0337 68.8359 30.4788 69.2089 29.9928C69.5819 29.5068 70.0473 29.0993 70.5783 28.7939C71.1093 28.4884 71.6955 28.2909 72.3031 28.2128Z" fill="#EBEBEB"/>
<path d="M35.4262 170.637C35.6717 164.318 35.5845 157.99 35.1647 151.681C34.2294 138.651 32.2424 125.719 29.223 113.01C27.5627 105.859 25.5232 98.8257 23.3923 91.7989C23.3269 91.5832 22.987 91.642 23.0459 91.8642C29.6282 116.638 35.0274 142.196 34.6549 167.95C34.5503 175.14 33.7136 182.233 33.0338 189.397C33.0338 189.586 33.3279 189.665 33.3737 189.469C34.7268 183.318 35.1712 176.899 35.4262 170.637Z" fill="#EBEBEB"/>
<path d="M23.0501 91.8457C23.0501 91.8457 13.0883 117.142 15.3173 123.064C17.5463 128.987 22.1481 130.255 22.1481 130.255C22.1481 130.255 16.0494 138.961 20.3113 147.126C24.5731 155.29 34.0381 154.904 34.6918 164.16C34.6722 164.206 35.1951 125.503 23.0501 91.8457Z" fill="#EBEBEB"/>
<path d="M33.5869 148.223C33.603 148.181 33.603 148.135 33.5869 148.093C32.2795 130.822 29.0388 113.753 23.9258 97.2054C23.9258 97.1596 23.8278 97.1727 23.8409 97.2054C25.8149 104.614 27.558 112.052 29.0701 119.521C27.7309 118.253 26.0947 117.34 24.3115 116.867C24.3115 116.867 24.2592 116.907 24.3115 116.92C26.1848 117.606 27.8692 118.726 29.227 120.188C29.5146 121.659 29.8022 123.123 30.0702 124.594C27.8412 122.103 24.756 120.868 21.6642 119.691C21.6572 119.694 21.6512 119.699 21.647 119.706C21.6429 119.712 21.6406 119.72 21.6406 119.727C21.6406 119.735 21.6429 119.742 21.647 119.749C21.6512 119.755 21.6572 119.76 21.6642 119.763C24.8867 121.07 28.0896 122.757 30.2729 125.535C31.0311 129.731 31.6978 133.943 32.2731 138.17C30.6636 136.484 28.5996 135.301 26.3313 134.765C26.2594 134.765 26.2202 134.85 26.2921 134.869C28.6222 135.555 30.7025 136.904 32.2796 138.752H32.3188C32.5149 140.234 32.7023 141.722 32.881 143.216C31.6359 142.163 30.2302 141.315 28.7172 140.706C28.6779 140.706 28.6518 140.752 28.7172 140.765C30.2612 141.434 31.6752 142.37 32.894 143.53C32.894 143.53 32.9267 143.53 32.9463 143.53C33.1097 144.949 33.2732 146.367 33.417 147.786C31.1724 145.072 28.2594 142.99 24.9651 141.746C24.9513 141.746 24.938 141.751 24.9282 141.761C24.9184 141.771 24.9129 141.784 24.9129 141.798C24.9129 141.812 24.9184 141.825 24.9282 141.835C24.938 141.845 24.9513 141.85 24.9651 141.85C28.218 143.284 31.0753 145.484 33.2928 148.263C33.3172 148.293 33.3501 148.316 33.3874 148.327C33.4246 148.339 33.4645 148.339 33.5019 148.328C33.7176 150.505 33.9137 152.681 34.0706 154.865C34.0706 154.897 34.1229 154.897 34.1229 154.865C33.953 152.673 33.7743 150.459 33.5869 148.223Z" fill="white"/>
<path d="M25.5814 114.377C23.7773 113.254 21.7164 112.611 19.5939 112.508C19.5835 112.508 19.5735 112.512 19.5662 112.519C19.5588 112.527 19.5547 112.537 19.5547 112.547C19.5547 112.557 19.5588 112.567 19.5662 112.575C19.5735 112.582 19.5835 112.586 19.5939 112.586C21.6459 112.975 23.6373 113.635 25.5161 114.547C25.5945 114.567 25.6533 114.43 25.5814 114.377Z" fill="white"/>
<path d="M26.7889 141.157C25.4023 140.361 23.8754 139.84 22.2917 139.621C22.2394 139.621 22.2329 139.693 22.2917 139.706C23.8382 140.016 25.3342 140.54 26.7366 141.262C26.7954 141.294 26.8477 141.19 26.7889 141.157Z" fill="white"/>
<path d="M61.6273 123.503C57.413 126.416 53.5426 129.797 50.0902 133.582C46.5297 137.59 43.7834 142.252 42.0044 147.309C38.2184 157.845 36.1825 168.929 35.9777 180.123C35.8507 186.322 36.4452 192.514 37.7491 198.576C37.7597 198.62 37.7868 198.658 37.8248 198.683C37.8629 198.707 37.9089 198.716 37.9535 198.708C37.998 198.7 38.0376 198.674 38.064 198.638C38.0905 198.601 38.1018 198.555 38.0956 198.51C36.473 187.814 36.5348 176.93 38.2786 166.252C39.9912 155.794 42.6777 144.407 49.332 135.903C52.9532 131.269 57.47 127.628 61.9345 123.863C62.1698 123.653 61.8691 123.333 61.6273 123.503Z" fill="#EBEBEB"/>
<path d="M37.4453 172.578C39.8441 168.698 42.6632 165.095 45.8514 161.832C50.8388 156.845 55.0353 153.302 55.6889 150.007C56.3426 146.713 50.695 144.281 50.695 144.281C50.695 144.281 57.5911 145.523 59.4802 142.628C61.3692 139.732 62.2778 122.959 62.2778 122.959C62.2778 122.959 49.7276 131.921 43.8773 144.484C38.0271 157.047 37.4453 172.578 37.4453 172.578Z" fill="#EBEBEB"/>
<path d="M57.7712 138.694C56.9448 138.571 56.1071 138.543 55.2742 138.609C55.1762 138.609 55.1827 138.779 55.2742 138.786C56.0978 138.786 56.928 138.746 57.7516 138.786C57.761 138.783 57.7696 138.778 57.7763 138.771C57.783 138.764 57.7877 138.755 57.7897 138.746C57.7918 138.736 57.7911 138.727 57.7878 138.717C57.7846 138.708 57.7788 138.7 57.7712 138.694Z" fill="white"/>
<path d="M48.7603 154.963C47.435 154.99 46.125 155.251 44.8906 155.734C44.8906 155.734 44.8906 155.8 44.8906 155.793C46.1979 155.486 47.4595 155.362 48.7538 155.139C48.7706 155.132 48.7851 155.12 48.7955 155.105C48.8059 155.089 48.8117 155.072 48.8124 155.053C48.8131 155.035 48.8086 155.017 48.7994 155.001C48.7901 154.985 48.7766 154.972 48.7603 154.963Z" fill="white"/>
<path d="M46.0498 149.342C45.4996 149.338 44.9502 149.386 44.4091 149.486C44.3991 149.49 44.3905 149.496 44.3844 149.505C44.3783 149.514 44.375 149.524 44.375 149.535C44.375 149.546 44.3783 149.556 44.3844 149.565C44.3905 149.574 44.3991 149.58 44.4091 149.584C44.957 149.616 45.5067 149.592 46.0498 149.512C46.0723 149.512 46.0939 149.503 46.1099 149.487C46.1258 149.471 46.1348 149.45 46.1348 149.427C46.1348 149.404 46.1258 149.383 46.1099 149.367C46.0939 149.351 46.0723 149.342 46.0498 149.342Z" fill="white"/>
<path d="M0.645201 141.295C4.73004 142.68 8.64439 144.524 12.313 146.792C16.1195 149.211 19.4205 152.346 22.0329 156.022C27.5295 163.673 31.738 172.172 34.4917 181.181C36.0274 186.17 36.9751 191.321 37.3155 196.529C37.3083 196.563 37.2898 196.593 37.263 196.615C37.2363 196.637 37.2029 196.648 37.1684 196.648C37.1339 196.648 37.1005 196.637 37.0737 196.615C37.047 196.593 37.0285 196.563 37.0213 196.529C35.8675 187.498 33.3045 178.704 29.4258 170.468C25.615 162.395 20.8106 153.806 13.4635 148.459C9.46306 145.55 4.96589 143.642 0.481787 141.628C0.246469 141.55 0.409884 141.217 0.645201 141.295Z" fill="#EBEBEB"/>
<path d="M31.5652 175.422C28.7254 172.839 25.6105 170.574 22.2767 168.67C17.0866 165.787 12.8705 163.892 11.5828 161.375C10.2951 158.859 14.3021 155.59 14.3021 155.59C14.3021 155.59 9.00742 158.205 6.81112 156.277C4.61483 154.348 0 141.014 0 141.014C0 141.014 12.23 145.361 19.8582 154.178C27.4864 162.996 31.5652 175.422 31.5652 175.422Z" fill="#EBEBEB"/>
<path d="M21.4153 163.146C20.2128 163.062 19.0055 163.211 17.8594 163.584C17.8594 163.584 17.8594 163.643 17.8594 163.636C19.0287 163.436 20.2101 163.313 21.3957 163.27C21.4806 163.27 21.5003 163.152 21.4153 163.146Z" fill="white"/>
<path d="M10.7481 149.159C10.1996 149.114 9.64756 149.145 9.10744 149.25C9.04861 149.25 9.06822 149.355 9.10744 149.348C9.64998 149.289 10.1794 149.309 10.7154 149.296C10.7321 149.297 10.7485 149.291 10.7617 149.281C10.775 149.271 10.7844 149.257 10.7882 149.241C10.7921 149.224 10.7902 149.207 10.7829 149.192C10.7756 149.177 10.7633 149.166 10.7481 149.159Z" fill="white"/>
<path d="M47.3384 213.388H19.7344L23.6694 184.555L24.676 177.162H42.3967L43.4034 184.555L47.3384 213.388Z" fill="#DBDBDB"/>
<path d="M43.4058 184.555H23.6719L24.6785 177.162H42.3992L43.4058 184.555Z" fill="#C7C7C7"/>
<path d="M44.9272 174.6H22.1406V180.862H44.9272V174.6Z" fill="#DBDBDB"/>
<path d="M2.17969 213.387L51.8643 213.224L101.549 213.172L200.918 213.061L300.287 213.165L349.972 213.224L399.657 213.387L349.972 213.544L300.287 213.603L200.918 213.708L101.549 213.603L51.8643 213.544L2.17969 213.387Z" fill="#263238"/>
<path d="M202.227 262.103C305.742 262.103 389.657 252.908 389.657 241.565C389.657 230.222 305.742 221.027 202.227 221.027C98.7122 221.027 14.7969 230.222 14.7969 241.565C14.7969 252.908 98.7122 262.103 202.227 262.103Z" fill="#EBEBEB"/>
<path d="M158.599 238.168C157.076 238.684 113.405 238.822 111.732 237.789C111.078 237.397 110.706 231.037 110.425 223.337C110.366 221.676 110.32 219.957 110.281 218.218L106.797 194.922L135.996 194.732L138.748 218.035L138.637 223.16C138.637 223.16 155.383 230.579 157.096 231.926C158.809 233.272 160.122 237.652 158.599 238.168Z" fill="#EB9481"/>
<path d="M158.597 238.168C157.074 238.684 113.403 238.822 111.73 237.789C110.958 237.305 110.54 228.017 110.305 218.218L138.713 218.035L138.602 223.16C138.602 223.16 155.348 230.579 157.061 231.925C158.773 233.272 160.12 237.651 158.597 238.168Z" fill="white"/>
<path d="M158.597 238.168C157.074 238.685 113.403 238.822 111.729 237.789C111.076 237.397 110.703 231.037 110.422 223.337L138.575 223.16C138.575 223.16 155.322 230.579 157.034 231.926C158.747 233.272 160.12 237.652 158.597 238.168Z" fill="#A6A6A6"/>
<path d="M157.964 236.423C150.643 236.266 121.098 236.338 113.849 236.743C113.79 236.743 113.79 236.782 113.849 236.789C121.104 237.096 150.65 236.789 157.964 236.54C158.121 236.534 158.121 236.423 157.964 236.423Z" fill="#263238"/>
<path d="M154.244 230.363C153.43 230.345 152.621 230.495 151.868 230.806C151.115 231.117 150.435 231.58 149.871 232.167C148.843 233.215 148.261 234.621 148.25 236.089C148.25 236.135 148.328 236.135 148.335 236.089C148.578 234.643 149.282 233.314 150.342 232.301C151.403 231.288 152.762 230.645 154.218 230.467C154.232 230.471 154.246 230.469 154.259 230.461C154.271 230.454 154.28 230.442 154.283 230.428C154.287 230.414 154.285 230.4 154.277 230.387C154.27 230.375 154.258 230.366 154.244 230.363Z" fill="#263238"/>
<path d="M141.437 223.878C138.509 223.845 135.116 224.891 133.299 227.296C133.234 227.388 133.364 227.486 133.449 227.44C136.008 226.09 138.703 225.016 141.489 224.237C141.532 224.225 141.57 224.198 141.594 224.161C141.619 224.124 141.629 224.079 141.622 224.034C141.616 223.99 141.593 223.95 141.559 223.921C141.525 223.892 141.482 223.877 141.437 223.878Z" fill="#263238"/>
<path d="M143.714 224.748C140.779 224.748 137.386 225.768 135.575 228.167C135.504 228.265 135.634 228.363 135.726 228.317C138.281 226.962 140.974 225.886 143.759 225.108C143.802 225.096 143.839 225.069 143.863 225.033C143.888 224.996 143.898 224.952 143.892 224.908C143.887 224.864 143.866 224.824 143.833 224.795C143.8 224.765 143.758 224.749 143.714 224.748Z" fill="#263238"/>
<path d="M145.976 225.623C143.048 225.623 139.655 226.636 137.838 229.042C137.773 229.133 137.903 229.231 137.988 229.186C140.547 227.835 143.242 226.761 146.028 225.983C146.071 225.971 146.109 225.944 146.133 225.906C146.158 225.869 146.168 225.824 146.161 225.78C146.155 225.736 146.132 225.695 146.098 225.666C146.064 225.638 146.021 225.622 145.976 225.623Z" fill="#263238"/>
<path d="M148.244 226.499C145.309 226.466 141.917 227.512 140.106 229.917C140.034 230.009 140.171 230.107 140.256 230.061C142.814 228.71 145.51 227.636 148.296 226.858C148.339 226.847 148.377 226.819 148.401 226.782C148.426 226.745 148.436 226.7 148.429 226.655C148.423 226.611 148.4 226.571 148.366 226.542C148.332 226.513 148.289 226.498 148.244 226.499Z" fill="#263238"/>
<path d="M115.693 229.781C112.425 229.781 112.425 234.913 115.693 234.893C118.962 234.873 118.988 229.762 115.693 229.781Z" fill="#263238"/>
<path d="M144.587 216.047C143.104 214.818 141.234 216.047 140.326 217.309C138.813 219.539 137.912 222.126 137.711 224.813C137.711 224.872 137.757 224.898 137.802 224.898C137.814 224.953 137.839 225.005 137.875 225.049C137.91 225.092 137.956 225.127 138.008 225.149C138.06 225.172 138.116 225.181 138.173 225.177C138.229 225.173 138.284 225.156 138.332 225.127C140.411 223.682 142.816 222.388 144.391 220.342C145.287 219.152 146.019 217.191 144.587 216.047ZM141.018 222.283C140.012 223.022 138.972 223.708 137.992 224.486C138.515 223.022 138.966 221.545 139.633 220.133C139.941 219.456 140.295 218.801 140.692 218.172C141.345 217.198 144.195 214.74 144.496 217.923C144.666 219.669 142.215 221.407 141.018 222.283Z" fill="#263238"/>
<path d="M130.412 225.924C132.961 226.303 135.595 225.571 138.099 225.172C138.153 225.158 138.203 225.131 138.245 225.094C138.288 225.057 138.321 225.01 138.342 224.958C138.363 224.906 138.371 224.85 138.366 224.794C138.362 224.738 138.344 224.684 138.314 224.636C138.324 224.628 138.332 224.619 138.337 224.608C138.342 224.598 138.345 224.586 138.345 224.574C138.345 224.562 138.342 224.55 138.337 224.539C138.332 224.528 138.324 224.519 138.314 224.512C136.303 222.718 133.855 221.485 131.216 220.936C129.673 220.642 127.49 221.067 127.294 222.982C127.058 224.786 128.921 225.688 130.412 225.924ZM128.634 224.263C126.673 221.753 130.418 221.537 131.542 221.799C132.272 221.981 132.988 222.213 133.686 222.492C135.116 223.085 136.515 223.75 137.876 224.485C136.634 224.61 135.412 224.832 134.177 225.002C132.699 225.198 129.732 225.642 128.634 224.263Z" fill="#263238"/>
<path d="M63.8672 87.2441C63.8672 87.2441 97.7725 144.923 98.6811 148.976C100.073 155.199 107.453 216.649 107.453 216.649L142.751 215.995C142.751 215.995 136.672 161.814 130.913 143.962C126.769 131.105 96.8443 88.4599 96.8443 88.4599L63.8672 87.2441Z" fill="#37474F"/>
<path d="M139.539 210.609C134.473 210.57 116.517 210.367 109.771 210.995C109.719 210.995 109.725 211.086 109.771 211.093C112.092 211.426 134.466 210.91 139.532 210.746C139.543 210.75 139.554 210.752 139.565 210.75C139.577 210.749 139.587 210.745 139.597 210.739C139.606 210.732 139.614 210.724 139.619 210.714C139.625 210.704 139.628 210.693 139.629 210.682C139.629 210.671 139.627 210.66 139.622 210.65C139.618 210.639 139.611 210.63 139.602 210.623C139.593 210.616 139.583 210.611 139.572 210.609C139.561 210.606 139.55 210.606 139.539 210.609Z" fill="#263238"/>
<path d="M69.6528 92.5389C71.8752 96.0229 74.2284 99.435 76.4901 102.893C78.7517 106.351 81.0264 109.809 83.2685 113.26C87.7395 120.232 92.0972 127.25 96.3417 134.314C98.4131 137.589 100.185 141.043 101.636 144.635C102.961 148.229 103.956 151.935 104.61 155.708C105.303 159.493 105.761 163.317 106.186 167.141C106.622 171.207 107.077 175.275 107.552 179.345C108.48 187.672 109.41 196 110.343 204.328C110.454 205.347 110.565 206.367 110.67 207.393C110.67 207.544 110.415 207.57 110.395 207.393C109.356 199.124 108.493 190.823 107.552 182.554C107.081 178.427 106.613 174.303 106.147 170.18C105.709 166.343 105.29 162.5 104.695 158.689C104.15 154.928 103.319 151.213 102.212 147.577C100.991 143.812 99.3555 140.195 97.3352 136.792C93.2499 129.739 88.9226 122.81 84.5954 115.874C80.2682 108.939 75.8233 101.945 71.2608 95.0947C70.6986 94.2515 70.1299 93.4082 69.5417 92.5781C69.4959 92.5323 69.6136 92.4735 69.6528 92.5389Z" fill="#263238"/>
<path d="M74.9763 241.565C73.3683 241.467 31.8348 224.642 30.6843 223.047C30.6331 222.953 30.6104 222.847 30.619 222.74C30.619 221.309 33.5016 216.315 35.9071 209.752C36.0574 209.334 37.1294 207.386 38.6132 204.764C42.7378 197.581 49.928 185.207 49.928 185.207L77.0745 195.992L64.0798 215.439L62.06 220.145C62.06 220.145 74.7998 233.316 75.8718 235.179C76.9438 237.042 76.5777 241.657 74.9763 241.565Z" fill="#EB9481"/>
<path d="M74.9763 241.567C73.3683 241.469 31.8348 224.643 30.6843 223.048C30.6331 222.955 30.6104 222.848 30.619 222.741C30.619 221.31 33.5016 216.316 35.9071 209.753C36.0574 209.335 37.1294 207.387 38.6132 204.766L64.1059 215.44L62.0861 220.146C62.0861 220.146 74.8259 233.317 75.8979 235.18C76.9699 237.043 76.5777 241.658 74.9763 241.567Z" fill="white"/>
<path d="M74.9738 241.566C73.3658 241.467 31.8323 224.642 30.6819 223.047C30.2374 222.439 32.0938 216.772 35.9112 209.752L62.0575 220.152C62.0575 220.152 74.7973 233.31 75.8759 235.186C76.9544 237.062 76.5753 241.657 74.9738 241.566Z" fill="#A6A6A6"/>
<path d="M75.0441 239.711C68.3179 236.822 40.9035 225.801 34.0335 223.461C33.9747 223.461 33.9616 223.461 34.0335 223.5C40.642 226.507 68.1414 237.305 75.0179 239.842C75.1487 239.874 75.1879 239.77 75.0441 239.711Z" fill="#263238"/>
<path d="M73.8642 232.696C73.1183 232.368 72.3126 232.199 71.4979 232.199C70.6833 232.199 69.8775 232.368 69.1317 232.696C67.7906 233.283 66.7277 234.365 66.1641 235.716C66.1641 235.755 66.2229 235.788 66.2425 235.749C67.0131 234.495 68.1691 233.526 69.5373 232.985C70.9055 232.444 72.4122 232.361 73.8315 232.748C73.8425 232.745 73.8519 232.738 73.858 232.729C73.864 232.719 73.8662 232.707 73.8642 232.696Z" fill="#263238"/>
<path d="M64.4357 221.885C61.736 220.754 58.1932 220.453 55.6113 222.002C55.5132 222.061 55.6113 222.199 55.6962 222.192C58.5745 221.9 61.4757 221.915 64.3507 222.238C64.3949 222.243 64.4394 222.231 64.4758 222.206C64.5122 222.18 64.538 222.142 64.5484 222.099C64.5588 222.055 64.5531 222.01 64.5324 221.971C64.5116 221.931 64.4772 221.901 64.4357 221.885Z" fill="#263238"/>
<path d="M66.2013 223.545C63.5017 222.414 59.9588 222.113 57.3769 223.663C57.2788 223.721 57.3769 223.859 57.4619 223.852C60.34 223.557 63.2415 223.572 66.1163 223.898C66.1605 223.903 66.205 223.891 66.2414 223.866C66.2778 223.84 66.3036 223.802 66.314 223.759C66.3245 223.716 66.3188 223.67 66.298 223.631C66.2772 223.591 66.2429 223.561 66.2013 223.545Z" fill="#263238"/>
<path d="M67.9856 225.205C65.2794 224.074 61.7366 223.774 59.1612 225.323C59.0566 225.382 59.1612 225.519 59.2396 225.512C62.1177 225.217 65.0193 225.232 67.8941 225.558C67.9392 225.566 67.9855 225.556 68.0239 225.531C68.0623 225.506 68.09 225.468 68.1015 225.424C68.113 225.379 68.1075 225.332 68.086 225.292C68.0645 225.251 68.0287 225.22 67.9856 225.205Z" fill="#263238"/>
<path d="M69.7512 226.866C67.0451 225.735 63.5088 225.435 60.9268 226.977C60.8222 227.043 60.9268 227.18 61.0053 227.173C63.8834 226.878 66.7849 226.894 69.6597 227.219C69.7048 227.227 69.7512 227.217 69.7896 227.192C69.828 227.167 69.8556 227.129 69.8671 227.085C69.8786 227.04 69.8731 226.993 69.8516 226.953C69.8302 226.912 69.7943 226.882 69.7512 226.866Z" fill="#263238"/>
<path d="M38.3483 217.695C35.2957 216.48 33.4001 221.232 36.4658 222.447C39.5314 223.663 41.4336 218.911 38.3483 217.695Z" fill="#263238"/>
<path d="M70.2799 215.805C69.3582 214.112 67.1815 214.531 65.8546 215.374C63.6193 216.872 61.8162 218.929 60.6253 221.342C60.6201 221.353 60.6173 221.364 60.6172 221.376C60.6171 221.388 60.6196 221.399 60.6247 221.41C60.6297 221.421 60.6371 221.43 60.6462 221.438C60.6554 221.445 60.6661 221.45 60.6776 221.453C60.6776 221.669 60.8214 221.924 61.0763 221.871C63.5537 221.303 66.2664 221.009 68.4888 219.701C69.7635 218.943 71.1492 217.407 70.2799 215.805ZM64.6257 220.244C63.4165 220.551 62.2006 220.799 61.0044 221.152C61.9939 219.96 63.0433 218.819 64.1485 217.734C64.6927 217.216 65.2714 216.735 65.8807 216.296C66.8285 215.642 70.4106 214.433 69.4955 217.498C68.9922 219.191 66.0703 219.878 64.6257 220.244Z" fill="#263238"/>
<path d="M53.4408 219.642C55.6632 220.949 58.3759 221.257 60.8467 221.832C61.1017 221.891 61.2716 221.636 61.252 221.413C61.2643 221.412 61.276 221.408 61.286 221.401C61.2961 221.393 61.3041 221.384 61.3094 221.373C61.3146 221.361 61.3169 221.349 61.316 221.337C61.3152 221.324 61.3111 221.313 61.3043 221.302C60.1153 218.885 58.312 216.822 56.075 215.321C54.7677 214.472 52.578 214.047 51.6498 215.733C50.7216 217.42 52.14 218.877 53.4408 219.642ZM52.4211 217.433C51.5125 214.367 55.088 215.583 56.0358 216.243C56.6444 216.683 57.2211 217.166 57.7615 217.688C58.8646 218.775 59.9119 219.919 60.899 221.113C59.7028 220.76 58.487 220.505 57.2778 220.198C55.8136 219.805 52.9179 219.152 52.4211 217.433Z" fill="#263238"/>
<path d="M66.1933 214.354L35.8047 202.085C35.8047 202.085 73.4816 146.687 73.7561 142.563C74.0045 138.915 57.4539 107.134 56.8067 97.8721C56.1008 87.8712 60.9117 80.1384 66.2064 75.334L97.5493 88.6621C97.5493 88.6621 94.2418 93.9502 89.0517 96.8982C89.0517 96.8982 105.125 133.634 104.21 144.929C103.295 156.224 66.1933 214.354 66.1933 214.354Z" fill="#37474F"/>
<path d="M67.5405 208.577C63.1479 206.688 64.4356 207.165 60.0169 205.309C57.8598 204.406 43.6754 198.504 41.4922 198.014C41.4465 198.014 41.4138 198.079 41.4595 198.105C43.3486 199.262 57.6507 204.916 59.8274 205.779C64.2788 207.531 63.0172 206.982 67.4882 208.681C67.4949 208.69 67.5038 208.697 67.5139 208.702C67.5241 208.706 67.5353 208.708 67.5464 208.707C67.5575 208.706 67.5681 208.702 67.5774 208.696C67.5866 208.69 67.594 208.681 67.599 208.671C67.604 208.661 67.6063 208.65 67.6058 208.639C67.6053 208.628 67.602 208.617 67.5961 208.608C67.5903 208.598 67.5821 208.591 67.5724 208.585C67.5626 208.58 67.5517 208.577 67.5405 208.577Z" fill="#263238"/>
<path d="M94.1891 96.2261C90.926 96.9868 87.7334 98.0233 84.6457 99.3245C84.6333 99.3288 84.6218 99.3355 84.6119 99.3442C84.6021 99.3529 84.594 99.3635 84.5883 99.3754C84.5825 99.3872 84.5791 99.4 84.5783 99.4132C84.5775 99.4263 84.5793 99.4395 84.5836 99.4519C84.5879 99.4644 84.5946 99.4759 84.6033 99.4857C84.6121 99.4956 84.6226 99.5036 84.6345 99.5094C84.6463 99.5152 84.6592 99.5185 84.6723 99.5193C84.6855 99.5201 84.6986 99.5183 84.7111 99.514C87.914 98.5793 91.1692 97.7034 94.3199 96.5987C94.5617 96.5137 94.4375 96.1738 94.1891 96.2261Z" fill="#263238"/>
<path d="M90.458 94.9568C90.1534 95.4985 89.8848 96.0597 89.654 96.6368C89.4284 97.0747 89.2886 97.5517 89.2422 98.0421C89.2422 98.1402 89.3729 98.1598 89.4317 98.1009C89.7597 97.7087 90.0244 97.2676 90.2161 96.7936C90.4841 96.2772 90.7587 95.7674 91.0136 95.2379C91.1901 94.8523 90.6606 94.6039 90.458 94.9568Z" fill="#263238"/>
<path d="M90.8508 91.9894C91.0469 91.5057 91.2365 91.0285 91.4391 90.5448C91.6417 90.0611 91.8967 89.5643 92.0928 89.0545C92.0928 88.976 92.2496 89.0545 92.217 89.1133C92.0209 89.597 91.8967 90.1069 91.7463 90.6037C91.596 91.1004 91.426 91.5972 91.2626 92.094C90.9554 93.0157 90.609 93.9308 90.1841 94.8263C90.6984 94.852 91.212 94.7626 91.6875 94.5648C92.1731 94.254 92.5465 93.7959 92.7529 93.2575C93.0275 92.7215 93.2824 92.1724 93.5635 91.6364C93.9095 91.0569 94.2005 90.4464 94.4329 89.8127C94.4329 89.7343 94.5897 89.8127 94.5571 89.8716C94.1308 91.2113 93.5725 92.5054 92.8902 93.7347C92.5961 94.2119 92.3673 94.7152 91.8313 94.8982C91.2511 95.0605 90.6439 95.1027 90.0468 95.0224C89.9684 95.0224 89.8768 95.0224 89.903 94.9047C90.1706 93.9179 90.487 92.945 90.8508 91.9894Z" fill="#263238"/>
<path d="M89.5155 98.0949C90.6333 100.455 91.6138 102.808 92.6531 105.161C93.6924 107.514 94.614 109.789 95.5488 112.129C97.4182 116.848 99.0916 121.659 100.562 126.509C101.288 128.915 101.961 131.34 102.563 133.785C103.225 136.222 103.71 138.703 104.014 141.21C104.276 143.713 104.054 146.243 103.36 148.662C102.639 151.053 101.714 153.378 100.595 155.61C99.9087 157.022 99.6799 156.833 100.007 156.12C100.941 154.094 103.393 147.956 103.216 142.799C103.073 140.33 102.692 137.88 102.079 135.484C101.508 133.013 100.865 130.562 100.151 128.131C98.7582 123.333 97.1045 118.633 95.405 113.94C94.4506 111.325 93.444 108.71 92.4635 106.096C91.483 103.481 90.5025 101.076 89.4044 98.1865C89.3717 98.0688 89.4828 98.023 89.5155 98.0949Z" fill="#263238"/>
<path d="M66.4435 90.2975C66.986 90.0949 67.7508 90.4283 68.2999 90.5198C69.011 90.6405 69.7295 90.7125 70.4504 90.7355C71.1637 90.7606 71.8779 90.7366 72.5879 90.6636C73.3029 90.6451 74.0036 90.4593 74.6338 90.121C75.6678 89.3678 76.5542 88.4305 77.2485 87.3561C78.0758 86.2582 78.759 85.0587 79.2814 83.7871C79.2814 83.7087 79.4186 83.7871 79.3925 83.8394C79.1637 84.5649 78.9937 85.297 78.7388 86.0095C78.457 86.6789 78.1203 87.3239 77.7322 87.9378C77.1029 89.1732 76.1721 90.2298 75.026 91.01C73.7645 91.729 72.1434 91.6637 70.738 91.6048C69.923 91.5573 69.1124 91.4503 68.313 91.2846C67.7377 91.1604 66.7703 91.0688 66.4043 90.5655C66.3871 90.5463 66.3743 90.5235 66.3668 90.4987C66.3594 90.474 66.3575 90.4479 66.3612 90.4224C66.365 90.3968 66.3743 90.3724 66.3885 90.3508C66.4027 90.3292 66.4215 90.311 66.4435 90.2975Z" fill="#263238"/>
<path d="M44.4732 196.274C49.4672 188.709 54.3696 181.083 59.1805 173.396C63.9915 165.709 68.737 157.963 73.4172 150.159C74.535 148.296 75.8227 146.439 76.5417 144.374C77.3261 142.132 76.8816 139.955 76.1757 137.759C74.8426 133.752 73.2844 129.824 71.5085 125.993C69.7567 122.13 67.8677 118.332 66.0113 114.521C64.1549 110.71 62.2135 106.945 60.782 102.971C59.4747 99.1734 58.9452 95.2384 59.9649 91.3033C60.9846 87.3683 63.1809 83.8908 65.4753 80.616C66.0766 79.7532 66.6976 78.8969 67.3055 78.0014C67.3513 77.936 67.4493 78.0014 67.4036 78.0798C64.8739 81.4919 62.4096 85.1066 60.9258 89.1136C60.1674 91.0886 59.7433 93.1762 59.6708 95.2906C59.6584 97.4369 59.9917 99.5712 60.6578 101.612C61.8867 105.586 63.828 109.344 65.6387 113.083C67.4493 116.822 69.3841 120.692 71.1686 124.542C73.0096 128.417 74.646 132.386 76.0711 136.432C76.679 138.229 77.3784 140.112 77.3261 142.04C77.2803 144.152 76.2737 146.054 75.2279 147.832C70.6522 155.578 65.9655 163.232 61.1938 170.841C56.4221 178.449 51.5131 186.058 46.5453 193.588L44.6628 196.431C44.5647 196.549 44.3948 196.412 44.4732 196.274Z" fill="#263238"/>
<path d="M99.2857 53.431C102.116 59.6407 116.412 68.1971 123.105 69.1188C127.916 69.7725 142.545 70.0078 147.558 69.243C153.441 68.3409 148.944 52.4897 145.473 52.9015C135.93 54.0127 127.824 55.2547 125.275 55.2547C122.164 55.2547 105.332 49.8555 103.306 49.0907C98.3379 47.2408 97.6842 49.9078 99.2857 53.431Z" fill="#EB9481"/>
<path d="M99.3792 55.0835C102.961 60.3847 114.864 69.0522 114.864 69.0522L116.518 65.3917L121.989 53.2859C121.989 53.2859 111.054 49.8542 103.857 48.2854C103.01 48.0927 102.148 47.9703 101.281 47.9194C96.6862 47.671 96.2874 50.5079 99.3792 55.0835Z" fill="#007580"/>
<path d="M99.3792 55.0837C102.961 60.3849 114.864 69.0524 114.864 69.0524L116.518 65.3919C112.08 60.2345 105.223 52.4233 101.281 47.9327C96.6862 47.6712 96.2874 50.5081 99.3792 55.0837Z" fill="#263238"/>
<path d="M112.72 66.5941C113.628 64.3651 117.668 55.3904 118.674 53.5209C118.74 53.3902 118.844 53.4033 118.786 53.5209C117.033 57.9841 115.039 62.3483 112.811 66.5941C112.785 66.6726 112.68 66.6464 112.72 66.5941Z" fill="#263238"/>
<path d="M143.719 53.0639C149.523 52.3057 156.707 51.0049 162.793 53.5869C163.476 53.855 164.049 54.3454 164.42 54.9792C167.166 56.0904 167.466 57.718 167.466 57.718C169.708 59.5352 169.787 61.2477 169.787 61.2477C169.787 61.2477 173.003 62.5551 172.512 64.6598C171.976 66.9869 167.571 64.6599 164.368 64.8494C157.014 65.307 146.719 68.0066 144.595 68.3465L143.719 53.0639Z" fill="#EB9481"/>
<path d="M156.328 59.9153C158.479 59.7683 160.636 59.7683 162.787 59.9153C165.128 60.2091 167.444 60.6789 169.715 61.3207C169.73 61.3259 169.746 61.325 169.76 61.3183C169.775 61.3116 169.785 61.2995 169.791 61.2848C169.796 61.27 169.795 61.2538 169.788 61.2397C169.781 61.2256 169.769 61.2148 169.755 61.2096C165.488 59.5357 160.844 59.0654 156.328 59.85C156.224 59.8369 156.224 59.9219 156.328 59.9153Z" fill="#263238"/>
<path d="M154.967 53.1237C158.556 53.3067 160.798 53.8819 164.406 54.967V54.9278C160.432 53.2675 158.804 53.1106 154.948 52.9668C154.824 53.0191 154.83 53.1237 154.967 53.1237Z" fill="#263238"/>
<path d="M155.543 65.9609C154.608 66.3989 154.837 66.8891 156.621 67.3009C158.406 67.7127 165.825 67.8369 165.563 70.4254C165.302 73.0139 154.837 72.6871 151.915 71.772C148.993 70.8568 144.594 68.3468 144.594 68.3468C146.666 68.0003 151.529 66.6865 155.543 65.9609Z" fill="#EB9481"/>
<path d="M107.056 63.3263C107.011 64.4441 106.906 65.5814 106.749 66.7123C106.749 66.6665 106.749 66.6273 106.795 66.5881C107.011 65.9998 107.226 65.3984 107.488 64.8297C107.488 64.8297 107.553 64.8297 107.547 64.8297C107.421 65.4529 107.233 66.0617 106.984 66.6469C106.867 66.928 106.756 67.2025 106.632 67.4771C106.553 67.9804 106.462 68.4771 106.364 68.9739C106.167 69.9087 105.285 73.8829 105.056 74.5562C105.017 74.6934 104.847 74.6608 104.86 74.5039C104.906 73.7718 105.644 69.6341 105.795 68.6929C106.087 66.8754 106.477 65.0752 106.965 63.3002C106.998 63.2675 107.063 63.2936 107.056 63.3263Z" fill="#263238"/>
<path d="M100.26 93.0491C98.5145 93.9447 96.266 95.337 86.1342 93.3433C85.4806 93.2126 84.8661 93.0557 84.2256 92.8661C74.7279 90.0162 63.3085 78.8451 62.6875 78.0542C62.6875 78.0542 77.7805 53.5878 97.083 45.8942C99.4689 44.9464 103.417 46.7766 105.581 49.0579C106.358 49.875 108.051 55.8821 107.404 60.7453C106.757 65.6086 101.999 92.1536 100.26 93.0491Z" fill="#007580"/>
<path d="M98.9007 60.5234C98.9736 61.5573 98.8288 62.595 98.4758 63.5695C98.3929 62.5353 98.5379 61.4955 98.9007 60.5234Z" fill="white"/>
<path d="M92.3164 77.1836C92.358 77.6981 92.3404 78.2157 92.2641 78.7262C92.2012 79.2406 92.076 79.7454 91.8915 80.2296C91.8465 79.713 91.864 79.1929 91.9438 78.6805C92.0106 78.169 92.1356 77.6668 92.3164 77.1836Z" fill="white"/>
<path d="M81.1345 64.5879C81.2087 65.6218 81.064 66.6598 80.7096 67.6339C80.628 66.5998 80.773 65.5603 81.1345 64.5879Z" fill="white"/>
<path d="M103.207 76.334C103.249 76.8507 103.231 77.3705 103.155 77.8832C103.092 78.3975 102.967 78.9023 102.782 79.3866C102.737 78.87 102.755 78.3498 102.834 77.8374C102.9 77.3236 103.025 76.8192 103.207 76.334Z" fill="white"/>
<path d="M88.8438 62.4306C89.358 62.3868 89.8756 62.4022 90.3864 62.4763C90.901 62.5415 91.4058 62.6688 91.8898 62.8554C90.8559 62.9297 89.8179 62.7849 88.8438 62.4306Z" fill="white"/>
<path d="M76.1562 74.4656C77.1901 74.3927 78.2278 74.5375 79.2023 74.8905C78.1681 74.9734 77.1283 74.8283 76.1562 74.4656Z" fill="white"/>
<path d="M91.1094 87.4916C92.1433 87.4173 93.1813 87.5621 94.1554 87.9165C93.1213 87.9981 92.0817 87.8531 91.1094 87.4916Z" fill="white"/>
<path d="M72.2344 82.7605C73.2683 82.6877 74.3059 82.8324 75.2804 83.1854C74.2463 83.267 73.2067 83.122 72.2344 82.7605Z" fill="white"/>
<path d="M98.8047 48.8094C99.8386 48.7365 100.876 48.8812 101.851 49.2343C100.817 49.3071 99.7792 49.1624 98.8047 48.8094Z" fill="white"/>
<path d="M95.1113 52.9785C94.7808 53.3758 94.4033 53.7313 93.987 54.0374C93.582 54.3507 93.1435 54.6181 92.6797 54.8349C93.008 54.4402 93.3809 54.0849 93.7909 53.776C94.1998 53.4616 94.6427 53.1941 95.1113 52.9785Z" fill="white"/>
<path d="M74.985 64.8301C74.6505 65.2239 74.271 65.5771 73.8542 65.8825C73.4533 66.2016 73.0141 66.4695 72.5469 66.6799C72.8831 66.2878 73.2625 65.9348 73.6777 65.6275C74.0796 65.3098 74.5186 65.042 74.985 64.8301Z" fill="white"/>
<path d="M100.118 70.1777C99.7834 70.5736 99.4039 70.929 98.987 71.2367C98.5851 71.5544 98.1461 71.8222 97.6797 72.0341C98.0141 71.6383 98.3936 71.2829 98.8105 70.9752C99.2146 70.6606 99.6532 70.3931 100.118 70.1777Z" fill="white"/>
<path d="M83.8366 80.4258C83.5022 80.8216 83.1227 81.177 82.7058 81.4847C82.3032 81.8015 81.8644 82.0692 81.3984 82.2822C81.7328 81.8863 82.1123 81.5309 82.5293 81.2232C82.9334 80.9087 83.372 80.6411 83.8366 80.4258Z" fill="white"/>
<path d="M106.352 56.1758C106.018 56.5716 105.638 56.927 105.221 57.2347C104.816 57.5479 104.378 57.8154 103.914 58.0322C104.248 57.6363 104.628 57.2809 105.045 56.9732C105.447 56.6564 105.886 56.3887 106.352 56.1758Z" fill="white"/>
<path d="M106.013 68.0534C105.617 67.719 105.261 67.3395 104.954 66.9226C104.636 66.5209 104.368 66.0819 104.156 65.6152C104.553 65.9457 104.909 66.3232 105.215 66.7395C105.527 67.1475 105.795 67.588 106.013 68.0534Z" fill="white"/>
<path d="M69.7314 76.237C69.3355 75.9026 68.9802 75.5231 68.6725 75.1061C68.3579 74.7021 68.0903 74.2635 67.875 73.7988C68.2708 74.1332 68.6262 74.5127 68.9339 74.9297C69.2508 75.3322 69.5185 75.7711 69.7314 76.237Z" fill="white"/>
<path d="M101.599 85.9687C101.201 85.6383 100.846 85.2607 100.54 84.8444C100.226 84.4394 99.959 84.001 99.7422 83.5371C100.138 83.8715 100.493 84.251 100.801 84.6679C101.117 85.0691 101.384 85.5056 101.599 85.9687Z" fill="white"/>
<path d="M85.6298 58.2226C85.2341 57.8905 84.8787 57.5132 84.5709 57.0983C84.259 56.6924 83.9917 56.2541 83.7734 55.791C84.1707 56.1215 84.5263 56.499 84.8324 56.9153C85.1443 57.3213 85.4116 57.7595 85.6298 58.2226Z" fill="white"/>
<path d="M85.9111 91.5124C85.5152 91.178 85.1598 90.7985 84.8521 90.3815C84.5386 89.9768 84.2711 89.5383 84.0547 89.0742C84.4519 89.4047 84.8075 89.7822 85.1136 90.1985C85.4282 90.605 85.6957 91.0457 85.9111 91.5124Z" fill="white"/>
<path d="M88.6233 71.8776C88.2312 71.5413 87.8782 71.162 87.5709 70.7468C87.2518 70.3458 86.9839 69.9067 86.7734 69.4395C87.1672 69.774 87.5204 70.1535 87.8258 70.5703C88.1436 70.9722 88.4114 71.4111 88.6233 71.8776Z" fill="white"/>
<path d="M102.041 55.5739C99.5768 55.1164 97.2629 50.0244 96.9688 46.5992C96.9688 46.3639 98.1192 44.501 99.433 42.1674C100.231 40.749 101.074 39.1475 101.747 37.631C101.884 37.3238 102.688 38.3631 102.688 38.3631L104.44 39.6704L110.225 44.1088C108.847 45.7618 107.677 47.5772 106.741 49.5145C106.648 49.7245 106.578 49.9436 106.532 50.1682C106.529 50.2052 106.529 50.2423 106.532 50.2793C106.172 51.5735 104.414 56.0119 102.041 55.5739Z" fill="#EB9481"/>
<path d="M106.538 50.2013C106.536 50.2382 106.536 50.2754 106.538 50.3124C106.195 50.2117 105.86 50.0827 105.538 49.9267C99.2042 46.9591 101.995 38.4746 101.995 38.4746L104.479 39.7035L110.264 44.1418C108.887 45.7949 107.717 47.6103 106.78 49.5476C106.676 49.7562 106.595 49.9754 106.538 50.2013Z" fill="#263238"/>
<path d="M116.875 26.0488C116.875 26.0488 119.771 27.8856 119.784 31.1539C119.797 34.4222 118.476 37.6186 118.202 37.7362C117.927 37.8539 116.875 26.0488 116.875 26.0488Z" fill="#263238"/>
<path d="M102.51 27.7482C100.772 31.1799 100.863 41.998 103.033 44.7826C106.184 48.8222 112.25 50.2145 115.917 46.2206C119.466 42.351 119.1 28.2581 116.571 25.6304C112.89 21.7476 105.086 22.6693 102.51 27.7482Z" fill="#EB9481"/>
<path d="M111.736 36.4082C111.736 36.4082 111.677 36.4474 111.684 36.4736C111.723 37.2122 111.645 38.062 110.984 38.3234C110.984 38.3234 110.984 38.3692 110.984 38.3626C111.801 38.2319 111.893 37.1011 111.736 36.4082Z" fill="#263238"/>
<path d="M111.064 35.6576C109.875 35.5922 109.835 37.9715 110.94 38.0304C112.045 38.0892 112.058 35.7099 111.064 35.6576Z" fill="#263238"/>
<path d="M115.77 36.3828C115.77 36.3828 115.829 36.3828 115.829 36.4482C115.789 37.1868 115.874 38.0366 116.541 38.2915C116.541 38.2915 116.541 38.3373 116.541 38.3307C115.717 38.2065 115.619 37.0757 115.77 36.3828Z" fill="#263238"/>
<path d="M116.441 35.6246C117.624 35.5527 117.683 37.9321 116.584 37.9974C115.486 38.0628 115.447 35.6835 116.441 35.6246Z" fill="#263238"/>
<path d="M110.319 33.8469C110.631 33.758 110.939 33.6533 111.24 33.5331C111.584 33.471 111.897 33.2962 112.129 33.0363C112.186 32.9412 112.209 32.8301 112.196 32.7202C112.183 32.6103 112.135 32.5078 112.058 32.4284C111.881 32.2939 111.671 32.2091 111.45 32.1827C111.23 32.1563 111.006 32.1892 110.802 32.2781C110.361 32.3962 109.98 32.6732 109.73 33.0559C109.681 33.147 109.658 33.2504 109.665 33.3539C109.673 33.4574 109.709 33.5566 109.771 33.6398C109.833 33.7231 109.918 33.7868 110.015 33.8235C110.112 33.8602 110.217 33.8683 110.319 33.8469Z" fill="#263238"/>
<path d="M117.257 34.9C116.939 34.8289 116.625 34.7416 116.316 34.6385C115.972 34.593 115.652 34.4343 115.408 34.1875C115.345 34.0966 115.314 33.9871 115.321 33.8767C115.328 33.7664 115.373 33.6616 115.447 33.5796C115.615 33.4355 115.82 33.3394 116.038 33.3014C116.257 33.2635 116.481 33.285 116.689 33.3639C117.136 33.4566 117.532 33.713 117.8 34.0829C117.856 34.1705 117.885 34.2724 117.884 34.3763C117.884 34.4803 117.853 34.5817 117.795 34.6683C117.738 34.7549 117.656 34.8229 117.561 34.864C117.465 34.9051 117.36 34.9176 117.257 34.9Z" fill="#263238"/>
<path d="M110.061 43.3976C110.238 43.5741 110.408 43.8094 110.676 43.8355C110.95 43.8354 111.222 43.7775 111.473 43.6656C111.473 43.6656 111.519 43.6656 111.473 43.7048C111.366 43.8485 111.222 43.9603 111.056 44.0282C110.89 44.0961 110.709 44.1177 110.532 44.0904C110.383 44.0497 110.248 43.9661 110.146 43.8499C110.044 43.7337 109.978 43.5901 109.957 43.4368C109.951 43.4229 109.952 43.4076 109.958 43.3941C109.964 43.3806 109.975 43.3701 109.989 43.3649C110.003 43.3597 110.019 43.3602 110.032 43.3663C110.046 43.3725 110.056 43.3837 110.061 43.3976Z" fill="#263238"/>
<path d="M114.338 40.2464C114.338 40.2464 114.371 41.3445 114.338 41.8609C113.334 41.7543 112.319 41.7896 111.325 41.9655C111.089 42.0178 111.116 41.8282 111.384 41.704C112.185 41.3379 113.077 41.2195 113.946 41.3641C113.998 41.2269 113.861 39.6646 113.946 39.6712C114.341 39.7488 114.724 39.8808 115.083 40.0634C115.083 37.7625 114.717 35.4878 114.75 33.1869C114.75 33.1084 114.874 33.0954 114.887 33.1869C115.352 35.6209 115.571 38.0954 115.541 40.5732C115.547 40.8543 114.534 40.351 114.338 40.2464Z" fill="#263238"/>
<path d="M112.869 41.4686C112.609 42.154 112.125 42.7319 111.496 43.1093C110.509 43.508 110.189 42.6125 111.183 41.802C111.704 41.5386 112.287 41.4233 112.869 41.4686Z" fill="#263238"/>
<path d="M111.845 42.9066C111.74 42.9915 111.623 43.0599 111.498 43.1092C110.59 43.4752 110.23 42.7497 110.962 42.0176C111.459 42.0568 112.028 42.2398 111.845 42.9066Z" fill="#FF99BA"/>
<path d="M102.011 36.9974C103.208 37.3635 104.58 33.7683 104.973 32.4218C105.312 31.206 105.705 27.3429 105.763 27.0749C105.822 26.8069 110.993 30.4935 113.986 29.6176C116.98 28.7417 119.013 26.029 119.059 24.7674C119.105 23.5059 115.359 20.303 112.124 20.1395C108.888 19.9761 104.502 24.0615 104.502 24.0615C105.032 23.4603 105.513 22.8176 105.94 22.1397C105.888 21.9959 103.796 22.8326 103.41 24.323C103.41 24.323 103.829 22.447 103.672 22.4143C103.515 22.3816 101.887 23.9831 102.253 25.1989C102.253 25.1989 100.371 26.8265 100.201 28.611C100.031 30.3954 100.606 36.566 102.011 36.9974Z" fill="#263238"/>
<path d="M116.127 28.9381C115.236 29.4209 114.278 29.7647 113.283 29.9578C112.167 30.0574 111.044 29.8777 110.015 29.4349C108.978 29.0344 108.015 28.4645 107.165 27.7485C106.413 27.134 105.74 26.3823 104.936 25.8332C104.734 25.6894 104.505 25.9836 104.629 26.1666C105.97 28.0613 107.887 29.4732 110.094 30.1931C111.119 30.5274 112.213 30.5898 113.269 30.3744C114.326 30.159 115.308 29.6731 116.12 28.9643C116.12 28.9643 116.14 28.9381 116.127 28.9381Z" fill="#263238"/>
<path d="M103.258 36.6767C103.258 36.6767 101.402 32.9116 99.7282 33.5195C98.0548 34.1274 99.0745 39.3371 100.794 40.2914C101.004 40.4277 101.24 40.52 101.487 40.5629C101.734 40.6057 101.988 40.5982 102.232 40.5409C102.476 40.4835 102.706 40.3774 102.908 40.229C103.11 40.0805 103.28 39.8928 103.408 39.677L103.258 36.6767Z" fill="#EB9481"/>
<path d="M100.064 35.0039C100.064 35.0039 100.025 35.0039 100.064 35.0562C101.254 35.7622 101.738 37.0172 102.025 38.3245C101.971 38.1861 101.888 38.0611 101.78 37.9582C101.673 37.8553 101.545 37.7768 101.404 37.7284C101.264 37.6799 101.115 37.6625 100.967 37.6774C100.819 37.6923 100.676 37.7391 100.548 37.8146C100.509 37.8146 100.548 37.8865 100.548 37.8865C100.782 37.8502 101.021 37.8872 101.233 37.9926C101.445 38.098 101.619 38.2664 101.731 38.4748C101.918 38.8239 102.067 39.1921 102.176 39.573C102.215 39.6972 102.431 39.6645 102.411 39.5272C102.692 37.8996 101.777 35.4353 100.064 35.0039Z" fill="#263238"/>
<path d="M91.0012 53.4888C89.6939 60.8947 97.7208 85.8449 102.865 90.5055C110.519 97.4342 124.671 101.99 129.802 103.474C132.038 104.128 138.222 88.3941 135.96 87.3548C131.116 85.152 116.069 80.4457 114.638 79.2691C113.206 78.0925 104.578 65.6272 100.734 58.45C95.5899 48.789 91.6483 49.7433 91.0012 53.4888Z" fill="#EB9481"/>
<path d="M132.153 85.9688C132.153 85.9688 138.834 87.6748 143.141 88.9887C145.547 89.7273 149.56 91.3549 151.083 92.7014C153.358 94.7212 161.581 104.605 159.228 106.651C157.097 108.507 151.109 99.1138 151.109 99.1138C151.109 99.1138 157.986 108.056 155.031 109.814C152.077 111.573 146.671 100.062 146.671 100.062C146.671 100.062 153.528 109.409 150.175 110.736C147.638 111.736 142.2 101.585 142.2 101.585C142.2 101.585 148.044 109.657 145.468 110.801C142.631 112.069 137.029 103.01 137.029 103.01C130.022 104.82 125.917 102.814 123.218 101.049C122.584 100.617 132.153 85.9688 132.153 85.9688Z" fill="#EB9481"/>
<path d="M148.927 95.8663C149.777 96.886 150.64 97.9188 151.392 99.0104C152.143 100.102 152.856 101.226 153.503 102.383C154.38 103.88 155.082 105.472 155.595 107.129C154.47 104.253 151.836 100.298 151.084 99.2065C150.333 98.1149 149.633 96.9841 148.888 95.8924C148.869 95.8663 148.908 95.8402 148.927 95.8663Z" fill="#263238"/>
<path d="M144.929 98.514C146.38 99.6644 149.42 103.939 150.59 106.809C150.642 106.927 150.59 106.92 150.505 106.809C149.59 105.39 145.877 99.8997 144.897 98.5336C144.877 98.514 144.91 98.4944 144.929 98.514Z" fill="#263238"/>
<path d="M141.094 100.186C142.897 102.078 144.322 104.296 145.291 106.723C145.336 106.841 145.245 106.821 145.173 106.723C143.82 104.52 142.774 102.801 141.022 100.245C140.996 100.186 141.055 100.128 141.094 100.186Z" fill="#263238"/>
<path d="M98.2974 54.0316C92.3295 45.5929 88.7605 48.7174 89.9567 57.8817C91.081 66.4511 94.0813 76.6613 94.0813 76.6613L109.115 69.3665C109.115 69.3665 102.095 59.4374 98.2974 54.0316Z" fill="#007580"/>
<path d="M101.923 57.3516C102.121 57.8282 102.264 58.3261 102.348 58.8354C102.44 59.3463 102.473 59.8661 102.446 60.3845C102.25 59.9054 102.11 59.4054 102.028 58.8942C101.931 58.3861 101.896 57.8681 101.923 57.3516Z" fill="white"/>
<path d="M93.0156 62.4831C93.975 62.0928 95.0074 61.9144 96.0421 61.9601C95.5652 62.1561 95.0673 62.2965 94.5583 62.3785C94.0502 62.4755 93.5322 62.5106 93.0156 62.4831Z" fill="white"/>
<path d="M93.4042 49.3574C92.9994 50.3127 92.3955 51.1707 91.6328 51.874C92.0376 50.9187 92.6415 50.0608 93.4042 49.3574Z" fill="white"/>
<path d="M106.146 66.4258C105.948 66.9039 105.696 67.3578 105.395 67.7788C105.102 68.2053 104.759 68.5958 104.375 68.9424C104.78 67.9871 105.384 67.1291 106.146 66.4258Z" fill="white"/>
<path d="M95.6807 71.5429C95.2014 71.3468 94.7472 71.0945 94.3276 70.7912C93.901 70.4983 93.5104 70.156 93.1641 69.7715C93.6416 69.971 94.0954 70.2231 94.5171 70.5232C94.9436 70.8164 95.3341 71.1586 95.6807 71.5429Z" fill="white"/>
<path d="M100.257 56.5742C101.061 57.6789 101.891 58.7574 102.714 59.8425C102.505 59.2934 102.322 58.7378 102.165 58.1757H102.205C102.368 58.6071 102.558 59.032 102.714 59.483L102.95 60.1367C102.97 60.1813 102.988 60.2271 103.002 60.2739C103.656 61.1172 104.309 61.9604 104.911 62.8232C105.649 63.856 106.362 64.9018 107.081 65.9477C107.8 66.9935 108.525 68.2943 109.303 69.3467C109.375 69.4382 107.996 70.0004 107.846 70.0723C107.695 70.1442 107.617 70.02 107.761 69.9742C107.905 69.9285 109.003 69.2552 109.016 69.2421C108.297 68.1832 107.467 67.2092 106.715 66.183C105.963 65.1568 105.218 64.1305 104.492 63.0912C103.022 60.9733 101.675 58.777 100.211 56.6527L100.257 56.5742Z" fill="#263238"/>
<path d="M90.3142 63.9482C90.543 64.3926 90.7914 64.8306 90.9679 65.2882L91.2163 65.8568C90.8699 64.2292 90.5626 62.5885 90.2031 60.9609C90.896 63.5756 91.5954 66.249 92.236 68.9029C92.8439 71.4391 93.5825 74.0014 93.9355 76.5899C94.3913 76.39 94.8638 76.2303 95.3474 76.1127C94.862 76.4269 94.3395 76.6794 93.7917 76.8645C93.0038 74.2323 92.3493 71.5619 91.8307 68.8637C91.6673 68.1316 91.517 67.3995 91.3601 66.6674C91.1902 66.2229 90.9875 65.798 90.7849 65.3601C90.5822 64.9221 90.3992 64.4319 90.2162 63.9678C90.2554 63.9416 90.3012 63.9155 90.3142 63.9482Z" fill="#263238"/>
<path d="M94.3072 74.1383C96.3989 72.9617 105.138 68.4384 107.093 67.6017C107.23 67.5429 107.302 67.6017 107.165 67.6932C103.016 70.1037 98.7394 72.2859 94.353 74.2298C94.3007 74.2429 94.2484 74.171 94.3072 74.1383Z" fill="#263238"/>
<path d="M333.821 245.985H134.664L163.458 82.668H362.615L333.821 245.985Z" fill="#007580"/>
<path d="M231.617 65.752H166.44L163.453 82.6686H233.212L231.617 65.752Z" fill="#007580"/>
<g opacity="0.1">
<path d="M333.821 245.985H134.664L163.458 82.668H362.615L333.821 245.985Z" fill="black"/>
<path d="M231.624 65.752H166.448L163.461 82.6686H233.219L231.624 65.752Z" fill="black"/>
</g>
<path d="M159.413 72.6536C158.977 70.7831 158.977 68.8374 159.413 66.9668C159.849 68.8374 159.849 70.7831 159.413 72.6536Z" fill="#263238"/>
<path d="M153.616 74.3276C152.95 73.6375 152.377 72.8641 151.91 72.0267C151.42 71.2068 151.035 70.3283 150.766 69.4121C151.433 70.0982 152.007 70.8697 152.472 71.7064C152.96 72.5292 153.345 73.4097 153.616 74.3276Z" fill="#263238"/>
<path d="M149.438 78.6754C147.601 78.117 145.917 77.1442 144.516 75.832C145.432 76.0984 146.311 76.4806 147.13 76.9694C147.968 77.4394 148.743 78.0126 149.438 78.6754Z" fill="#263238"/>
<path d="M147.968 84.532C146.098 84.9678 144.152 84.9678 142.281 84.532C144.152 84.0961 146.098 84.0961 147.968 84.532Z" fill="#263238"/>
<path d="M149.673 90.3223C148.98 90.9844 148.207 91.5575 147.372 92.0283C146.553 92.5171 145.674 92.8993 144.758 93.1657C145.448 92.5001 146.221 91.9267 147.059 91.4596C147.877 90.9685 148.756 90.5861 149.673 90.3223Z" fill="#263238"/>
<path d="M154.015 94.5C153.459 96.3395 152.486 98.0261 151.172 99.4286C151.438 98.5111 151.823 97.6321 152.316 96.8139C152.782 95.9736 153.353 95.196 154.015 94.5Z" fill="#263238"/>
<path d="M159.868 95.9453C160.096 96.8756 160.205 97.831 160.194 98.7887C160.209 99.7467 160.099 100.702 159.868 101.632C159.633 100.703 159.524 99.7468 159.541 98.7887C159.53 97.831 159.64 96.8756 159.868 95.9453Z" fill="#263238"/>
<path d="M165.656 94.3041C166.322 94.9942 166.895 95.7676 167.362 96.605C167.853 97.4234 168.236 98.3023 168.5 99.2196C167.186 97.8171 166.213 96.1306 165.656 94.291V94.3041Z" fill="#263238"/>
<path d="M169.836 89.9238C170.753 90.1877 171.632 90.57 172.451 91.0612C173.288 91.5282 174.061 92.1017 174.751 92.7672C173.834 92.5034 172.955 92.121 172.137 91.6299C171.299 91.1628 170.526 90.5894 169.836 89.9238Z" fill="#263238"/>
<path d="M171.281 84.067C173.154 83.6313 175.102 83.6313 176.975 84.067C175.102 84.5027 173.154 84.5027 171.281 84.067Z" fill="#263238"/>
<path d="M169.607 78.277C170.299 77.6154 171.072 77.0444 171.908 76.5775C172.725 76.0816 173.604 75.697 174.522 75.4336C173.12 76.7476 171.433 77.7205 169.594 78.277H169.607Z" fill="#263238"/>
<path d="M165.258 74.0991C165.527 73.1837 165.909 72.3054 166.395 71.4845C166.862 70.6471 167.436 69.8737 168.101 69.1836C167.837 70.1009 167.455 70.9798 166.964 71.7982C166.497 72.6356 165.923 73.409 165.258 74.0991Z" fill="#263238"/>
<path d="M333.526 245.986H133.938L105.602 88.5977H305.19L333.526 245.986Z" fill="#007580"/>
<path d="M174.764 184.809C179.345 184.809 183.059 181.095 183.059 176.514C183.059 171.933 179.345 168.219 174.764 168.219C170.183 168.219 166.469 171.933 166.469 176.514C166.469 181.095 170.183 184.809 174.764 184.809Z" fill="#263238"/>
<path d="M240.342 184.809C244.923 184.809 248.637 181.095 248.637 176.514C248.637 171.933 244.923 168.219 240.342 168.219C235.761 168.219 232.047 171.933 232.047 176.514C232.047 181.095 235.761 184.809 240.342 184.809Z" fill="#263238"/>
<path d="M219.472 186.136L219.014 185.266C218.975 185.188 214.687 177.266 206.065 177.266C198.221 177.266 196.26 184.724 196.208 185.044L195.972 185.992L194.07 185.534L194.299 184.58C194.299 184.489 196.639 175.305 206.065 175.305C215.87 175.305 220.557 183.985 220.753 184.358L221.21 185.221L219.472 186.136Z" fill="#263238"/>
<path d="M320.289 175.558C320.714 175.466 321.139 175.368 321.557 175.264" stroke="#263238" stroke-miterlimit="10"/>
<path d="M324.07 174.519C334.071 171.139 342.444 163.276 343.229 154.085C344.968 133.822 320.292 122.631 322.841 99.2172C325.273 76.8817 348.7 75.2867 358.093 78.372C368.467 81.7841 364.911 91.7524 355.518 90.4647C339.235 88.2357 328.999 70.5346 336.731 50.4542C342.51 35.4528 356.916 29.7921 362.767 28.0664" stroke="#263238" stroke-miterlimit="10" stroke-dasharray="4 4"/>
<path d="M364.023 27.7199C364.827 27.5108 365.292 27.4258 365.292 27.4258" stroke="#263238" stroke-miterlimit="10"/>
<path d="M375.661 23.8121C373.995 18.6482 362.83 20.5046 365.007 27.2569C367.184 34.0092 377.328 28.9825 375.661 23.8121Z" fill="#263238"/>
<path d="M358.931 21.7463C359.016 19.4781 362.167 17.7329 366.625 18.5369C371.083 19.3409 375.273 22.3477 375.273 22.3477C375.273 22.3477 370.874 25.0146 366.37 25.5049C361.866 25.9951 358.846 24.008 358.931 21.7463Z" fill="#EBEBEB"/>
<path d="M375.272 22.3341C372.958 22.3341 370.65 22.2687 368.343 22.1968C366.035 22.1249 363.721 22.0072 361.414 21.8242C363.728 21.8242 366.042 21.883 368.349 21.9549C370.657 22.0269 372.971 22.1445 375.272 22.3341Z" fill="#263238"/>
<path d="M363.414 19.7266C364.728 20.355 365.966 21.129 367.107 22.034C366.45 21.7255 365.812 21.3762 365.199 20.9881C364.58 20.6027 363.984 20.1815 363.414 19.7266Z" fill="#263238"/>
<path d="M369.472 22.1191C368.29 23.0775 367.008 23.9058 365.648 24.59C366.837 23.6305 368.126 22.802 369.492 22.1191H369.472Z" fill="#263238"/>
<path d="M370.141 20.8438C370.8 21.1605 371.378 21.6259 371.827 22.2034C371.497 22.0477 371.188 21.8523 370.905 21.6216C370.622 21.3923 370.365 21.1313 370.141 20.8438Z" fill="#263238"/>
<path d="M363.183 35.1796C364.576 36.9706 368.151 36.5392 371.295 33.2839C374.439 30.0287 376.106 25.1328 376.106 25.1328C376.106 25.1328 370.955 25.525 367.027 27.7474C363.098 29.9699 361.784 33.382 363.183 35.1796Z" fill="#EBEBEB"/>
<path d="M376.106 25.1328C374.224 26.4401 372.394 27.8913 370.557 29.2966C368.72 30.702 366.922 32.1531 365.164 33.65C367.047 32.3427 368.877 30.8981 370.707 29.4927C372.537 28.0873 374.322 26.6362 376.106 25.1328Z" fill="#263238"/>
<path d="M367.984 34.1652C368.334 33.5303 368.646 32.8755 368.919 32.2042C369.197 31.5311 369.433 30.8412 369.625 30.1387C369.275 30.7731 368.962 31.4279 368.69 32.0996C368.415 32.7738 368.179 33.4635 367.984 34.1652Z" fill="#263238"/>
<path d="M371.529 28.7007C369.999 28.619 368.465 28.7 366.953 28.9426C367.715 28.9883 368.479 28.9883 369.241 28.9426C370.007 28.9052 370.771 28.8245 371.529 28.7007Z" fill="#263238"/>
<path d="M372.789 29.3482C372.964 29.0254 373.1 28.6832 373.194 28.3285C373.291 27.9765 373.348 27.6147 373.364 27.25C373.017 27.8971 372.82 28.6144 372.789 29.3482Z" fill="#263238"/>
<path d="M375.66 23.8124C375.291 23.9323 374.895 23.9399 374.521 23.8343C374.148 23.7287 373.814 23.5147 373.562 23.2193C373.31 22.9239 373.152 22.5604 373.107 22.1749C373.062 21.7894 373.132 21.3992 373.309 21.0537C373.486 20.7082 373.761 20.423 374.101 20.2341C374.44 20.0453 374.827 19.9613 375.214 19.9928C375.601 20.0243 375.97 20.17 376.274 20.4112C376.578 20.6525 376.803 20.9786 376.922 21.3481C377.08 21.8422 377.037 22.379 376.8 22.8409C376.564 23.3028 376.154 23.6522 375.66 23.8124Z" fill="#455A64"/>
<path d="M376.862 27.5435C376.493 27.6629 376.097 27.6702 375.723 27.5645C375.35 27.4589 375.017 27.2449 374.765 26.9498C374.514 26.6547 374.355 26.2916 374.31 25.9065C374.265 25.5213 374.335 25.1314 374.511 24.786C374.688 24.4407 374.962 24.1553 375.301 23.9661C375.639 23.7769 376.026 23.6923 376.413 23.7229C376.8 23.7536 377.168 23.8982 377.473 24.1385C377.777 24.3787 378.004 24.7038 378.123 25.0727C378.203 25.3177 378.233 25.5761 378.213 25.8329C378.192 26.0897 378.122 26.34 378.004 26.5695C377.887 26.799 377.726 27.0031 377.53 27.1702C377.334 27.3373 377.107 27.4642 376.862 27.5435Z" fill="#455A64"/>
<path d="M162.557 25.8777C162.244 28.8801 161.102 31.7363 159.26 34.1278C157.418 36.5192 154.948 38.3517 152.125 39.4208C149.302 40.49 146.237 40.7536 143.273 40.1824C140.309 39.6112 137.562 38.2275 135.339 36.1859L127.188 37.3821L131.266 30.3357C130.334 28.0429 129.936 25.5677 130.103 23.0981C130.27 20.6284 130.997 18.2294 132.23 16.0831C133.463 13.9368 135.169 12.0997 137.219 10.7115C139.268 9.32317 141.607 8.42017 144.057 8.07104C146.508 7.72192 149.006 7.93586 151.361 8.69661C153.716 9.45735 155.868 10.7449 157.651 12.4614C159.434 14.178 160.803 16.2784 161.653 18.6031C162.503 20.9278 162.812 23.4157 162.557 25.8777Z" fill="white"/>
<path d="M162.556 25.8777C162.25 28.8785 161.119 31.7359 159.288 34.1334C158.394 35.346 157.315 36.4112 156.092 37.2906C154.895 38.2029 153.574 38.9402 152.17 39.4803C150.764 40.0338 149.288 40.3859 147.784 40.5262C147.032 40.5936 146.276 40.6089 145.522 40.5719C144.765 40.5525 144.011 40.4738 143.267 40.3366C140.263 39.7839 137.472 38.4055 135.207 36.3558L135.397 36.4147L127.259 37.6631L126.664 37.7547L126.965 37.2317L131.017 30.1722V30.4533C130.061 28.1182 129.655 25.5944 129.829 23.0771C130.004 20.5598 130.755 18.1163 132.024 15.9355C133.292 13.7616 135.035 11.9024 137.123 10.4971C139.207 9.1104 141.578 8.21362 144.059 7.87401C146.539 7.53439 149.064 7.76075 151.444 8.53611C153.799 9.33735 155.946 10.655 157.726 12.3927C159.502 14.126 160.86 16.2412 161.697 18.5777C162.534 20.9142 162.828 23.4107 162.556 25.8777ZM162.556 25.8777C162.821 23.4228 162.517 20.9401 161.669 18.6213C160.822 16.3024 159.452 14.2093 157.667 12.5037C155.882 10.7981 153.729 9.52562 151.373 8.78441C149.018 8.0432 146.524 7.85313 144.084 8.22889C141.668 8.58646 139.367 9.49444 137.358 10.8827C135.366 12.2819 133.702 14.0975 132.482 16.2035C131.28 18.3143 130.571 20.6696 130.41 23.0931C130.25 25.5329 130.644 27.9773 131.56 30.2441L131.619 30.3879L131.54 30.5252L127.435 37.5586L127.148 37.1271L135.305 35.9832H135.417L135.495 36.0551C137.676 38.0848 140.378 39.4676 143.3 40.049C144.028 40.1973 144.767 40.287 145.509 40.317C146.251 40.3693 146.996 40.3693 147.738 40.317C149.226 40.1971 150.691 39.8738 152.091 39.3561C153.495 38.8451 154.816 38.1316 156.013 37.2383C157.232 36.366 158.312 35.3149 159.216 34.1203C161.07 31.7344 162.227 28.8812 162.556 25.8777Z" fill="#263238"/>
<path d="M138.393 31.7809C138.381 31.5645 138.413 31.3478 138.487 31.1444C138.562 30.9409 138.678 30.7549 138.827 30.598C138.977 30.441 139.157 30.3165 139.357 30.2322C139.557 30.1478 139.771 30.1054 139.988 30.1076C140.432 30.1076 140.858 30.2839 141.171 30.5977C141.485 30.9115 141.662 31.3371 141.662 31.7809C141.662 32.2247 141.485 32.6504 141.171 32.9642C140.858 33.278 140.432 33.4543 139.988 33.4543C139.771 33.4565 139.557 33.414 139.357 33.3297C139.157 33.2453 138.977 33.1208 138.827 32.9639C138.678 32.807 138.562 32.621 138.487 32.4175C138.413 32.214 138.381 31.9973 138.393 31.7809ZM139.047 27.9178L138.668 14.9492H141.282L140.903 27.9178H139.047Z" fill="#007580"/>
<path d="M144.604 31.7809C144.592 31.5651 144.624 31.349 144.698 31.1459C144.772 30.9428 144.887 30.7572 145.036 30.6004C145.185 30.4436 145.364 30.3189 145.563 30.2342C145.762 30.1494 145.976 30.1063 146.193 30.1076C146.636 30.1076 147.062 30.2839 147.376 30.5977C147.69 30.9115 147.866 31.3371 147.866 31.7809C147.866 32.2247 147.69 32.6504 147.376 32.9642C147.062 33.278 146.636 33.4543 146.193 33.4543C145.976 33.4556 145.762 33.4125 145.563 33.3277C145.364 33.243 145.185 33.1183 145.036 32.9615C144.887 32.8047 144.772 32.619 144.698 32.416C144.624 32.2129 144.592 31.9968 144.604 31.7809ZM145.258 27.9178L144.898 14.9492H147.513L147.134 27.9178H145.258Z" fill="#007580"/>
<path d="M150.815 31.7809C150.803 31.5645 150.835 31.3478 150.909 31.1444C150.984 30.9409 151.1 30.7549 151.249 30.598C151.399 30.441 151.579 30.3165 151.779 30.2322C151.978 30.1478 152.193 30.1054 152.41 30.1076C152.854 30.1076 153.28 30.2839 153.593 30.5977C153.907 30.9115 154.083 31.3371 154.083 31.7809C154.083 32.2247 153.907 32.6504 153.593 32.9642C153.28 33.278 152.854 33.4543 152.41 33.4543C152.193 33.4565 151.978 33.414 151.779 33.3297C151.579 33.2453 151.399 33.1208 151.249 32.9639C151.1 32.807 150.984 32.621 150.909 32.4175C150.835 32.214 150.803 31.9973 150.815 31.7809ZM151.469 27.9178L151.09 14.9492H153.704L153.332 27.9178H151.469Z" fill="#007580"/>
</g>
<defs>
<clipPath id="clip0_2016_38699">
<rect width="400" height="262.104" fill="white"/>
</clipPath>
</defs>
</svg>
