<svg width="80" height="80" viewBox="0 0 80 80" fill="none" xmlns="http://www.w3.org/2000/svg">
<g clip-path="url(#clip0_2057_43919)">
<path d="M75.2149 15.3154H50.4028C48.5253 9.86824 43.4139 5.92715 37.3625 5.78793C29.5423 5.60825 23.0011 11.9015 22.892 19.7229C22.7819 27.6249 29.1545 34.0652 37.0312 34.0652C43.1686 34.0652 48.3918 30.1549 50.3478 24.6902H60.4296V32.5027C60.4296 33.3657 61.1291 34.0652 61.9921 34.0652H68.2421C69.1051 34.0652 69.8046 33.3657 69.8046 32.5027V24.6902H75.3124C77.9451 24.6902 80.0707 22.5201 79.998 19.871C79.928 17.3181 77.7691 15.3154 75.2149 15.3154ZM36.9922 27.0341C33.029 27.0341 29.8047 23.8098 29.8047 19.8467C29.8047 15.8835 33.029 12.6592 36.9922 12.6592C40.9553 12.6592 44.1796 15.8835 44.1796 19.8467C44.1796 23.8098 40.9553 27.0341 36.9922 27.0341Z" fill="#EDB45E"/>
<path d="M79.9968 19.8718C79.9265 17.3187 77.7671 15.3156 75.214 15.3156H50.4015C48.5234 9.86869 43.4125 5.92651 37.3609 5.78745C37.2219 5.78432 37.0828 5.78276 36.9453 5.78588V12.6593H36.9906C40.9531 12.6593 44.1781 15.8843 44.1781 19.8468C44.1781 23.8093 40.9531 27.0343 36.9906 27.0343H36.9453V34.064C36.9734 34.0655 37.0016 34.0655 37.0297 34.0655C43.1672 34.0655 48.3906 30.1546 50.3469 24.6905H60.4281V32.503C60.4281 33.3655 61.1281 34.0655 61.9906 34.0655H68.2406C69.1031 34.0655 69.8031 33.3655 69.8031 32.503V24.6905H75.3109C77.9437 24.6905 80.0687 22.5202 79.9968 19.8718Z" fill="#FF9900"/>
<path d="M20.2976 36.9086C25.2972 37.2719 29.3646 40.6313 30.8736 45.1025L41.8649 47.0403C44.5968 47.5214 46.4202 50.1272 45.9391 52.8573L45.929 52.9078C45.4479 55.638 42.8438 57.4614 40.112 56.9803L30.0775 55.2151C28.8075 54.9917 27.5768 55.7747 27.2412 57.0198C26.8542 58.4554 27.8032 59.9083 29.2734 60.1308L42.0687 62.0662L62.7997 51.3292C67.145 49.1014 72.3538 50.4164 75.1728 54.1745C75.7963 55.0056 75.5042 56.2017 74.5777 56.6717L47.3893 70.4637C44.7966 71.7789 41.8646 72.2721 38.9845 71.8778L18.8392 68.2781H10.4283L9.36719 67.6053V41.4717L10.4283 40.8903C12.8405 38.2072 16.4219 36.6277 20.2976 36.9086Z" fill="#FFCCBD"/>
<path d="M40.1156 56.9811L36.9453 56.4233V46.1733L41.8672 47.0405C44.6 47.5218 46.4234 50.1265 45.9422 52.8577L45.9312 52.9077C45.45 55.6374 42.8469 57.4608 40.1156 56.9811Z" fill="#FFBDA9"/>
<path d="M74.5812 56.6716L47.3922 70.4637C44.8 71.7794 41.8672 72.2716 38.9875 71.8778L36.9453 71.5122V61.2919L42.0719 62.0669L62.8031 51.3294C67.1484 49.1013 72.3562 50.4169 75.1765 54.1747C75.7999 55.006 75.5077 56.2013 74.5812 56.6716Z" fill="#FFBDA9"/>
<path d="M1.5625 74.2156H8.86701C9.72998 74.2156 10.4295 73.5161 10.4295 72.6531V38.459C10.4295 37.596 9.72998 36.8965 8.86701 36.8965H1.5625C0.69953 36.8965 0 37.596 0 38.459V72.6531C0 73.5161 0.69953 74.2156 1.5625 74.2156Z" fill="#007580"/>
</g>
<defs>
<clipPath id="clip0_2057_43919">
<rect width="80" height="80" fill="white"/>
</clipPath>
</defs>
</svg>
