<svg width="16" height="16" viewBox="0 0 16 16" fill="none" xmlns="http://www.w3.org/2000/svg">
<path d="M6.66364 3.06095C7.10167 2.95842 7.55013 2.90716 8 2.90822C12.4545 2.90822 15 7.99913 15 7.99913C14.6137 8.72179 14.153 9.40214 13.6255 10.0291M9.34909 9.34822C9.17431 9.53579 8.96355 9.68623 8.72937 9.79057C8.49519 9.89491 8.24239 9.95102 7.98606 9.95554C7.72972 9.96007 7.4751 9.91291 7.23739 9.8169C6.99967 9.72088 6.78373 9.57796 6.60245 9.39668C6.42116 9.2154 6.27825 8.99946 6.18223 8.76174C6.08622 8.52402 6.03906 8.26941 6.04358 8.01307C6.04811 7.75674 6.10421 7.50394 6.20856 7.26976C6.3129 7.03558 6.46334 6.82481 6.65091 6.65004M11.78 11.7791C10.6922 12.6083 9.36761 13.0677 8 13.09C3.54545 13.09 1 7.99913 1 7.99913C1.79157 6.52397 2.88945 5.23515 4.22 4.21913L11.78 11.7791Z" stroke="#007580" stroke-width="2" stroke-linecap="round" stroke-linejoin="round"/>
<path d="M1 1L15 15" stroke="#007580" stroke-width="2" stroke-linecap="round" stroke-linejoin="round"/>
</svg>
