<svg width="42" height="42" viewBox="0 0 42 42" fill="none" xmlns="http://www.w3.org/2000/svg">
<path d="M42 20.9934C41.9999 16.9807 40.8495 13.0522 38.6851 9.67293C36.5206 6.29371 33.4328 3.60538 29.7873 1.92633C26.1417 0.247273 22.0912 -0.352165 18.1155 0.199004C14.1397 0.750173 10.4052 2.42886 7.35429 5.03626C4.30336 7.64365 2.06379 11.0705 0.900809 14.911C-0.262167 18.7516 -0.299828 22.8448 0.792284 26.7061C1.8844 30.5673 4.06053 34.0348 7.06297 36.6979C10.0654 39.3609 13.7684 41.108 17.7333 41.7322V27.0738H12.3916V20.9934H17.724V16.3654C17.724 11.106 20.86 8.19799 25.6573 8.19799C27.2322 8.22002 28.8034 8.35723 30.3582 8.60854V13.7746H27.7107C25.1004 13.7746 24.2884 15.395 24.2884 17.0527V20.9934H30.1124L29.1791 27.0614H24.2822V41.7322C29.2214 40.9496 33.7193 38.431 36.967 34.6295C40.2148 30.8279 41.9994 25.9928 42 20.9934Z" fill="#4676ED"/>
<path d="M29.172 27.0711L30.1053 21.0031H24.2813V17.0501C24.2813 15.3923 25.0933 13.7719 27.7035 13.7719H30.3511V8.60586C28.7962 8.35456 27.2251 8.21734 25.6502 8.19531C20.8528 8.19531 17.7168 11.1034 17.7168 16.3627V20.9907H12.3906V27.0711H17.7231V41.742C19.898 42.082 22.1126 42.082 24.2875 41.742V27.0711H29.172Z" fill="white"/>
</svg>
