<svg width="54" height="54" viewBox="0 0 54 54" fill="none" xmlns="http://www.w3.org/2000/svg">
<g filter="url(#filter0_d_1075_51940)">
<path d="M46.9997 22.9934C46.9996 18.9807 45.8492 15.0522 43.6848 11.6729C41.5204 8.29371 38.4326 5.60538 34.7871 3.92633C31.1416 2.24727 27.0911 1.64783 23.1154 2.199C19.1396 2.75017 15.4052 4.42886 12.3542 7.03626C9.30333 9.64366 7.06377 13.0705 5.9008 16.9111C4.73783 20.7516 4.70017 24.8448 5.79228 28.7061C6.88438 32.5674 9.0605 36.0348 12.0629 38.6979C15.0653 41.361 18.7683 43.1081 22.7332 43.7322V29.0738H17.3915V22.9934H22.7239V18.3654C22.7239 13.106 25.8599 10.198 30.6572 10.198C32.232 10.22 33.8032 10.3572 35.358 10.6085V15.7746H32.7105C30.1003 15.7746 29.2883 17.395 29.2883 19.0528V22.9934H35.1122L34.1789 29.0614H29.2821V43.7322C34.2212 42.9496 38.719 40.4311 41.9668 36.6295C45.2146 32.8279 46.9992 27.9928 46.9997 22.9934V22.9934Z" fill="#4676ED"/>
<path d="M34.1718 29.0741L35.1052 23.0061H29.2812V19.053C29.2812 17.3953 30.0932 15.7748 32.7034 15.7748H35.351V10.6088C33.7961 10.3575 32.225 10.2203 30.6501 10.1982C25.8528 10.1982 22.7168 13.1063 22.7168 18.3656V22.9936H17.3906V29.0741H22.723V43.7449C24.898 44.085 27.1125 44.085 29.2874 43.7449V29.0741H34.1718Z" fill="white"/>
</g>
<defs>
<filter id="filter0_d_1075_51940" x="0" y="0" width="54" height="54" filterUnits="userSpaceOnUse" color-interpolation-filters="sRGB">
<feFlood flood-opacity="0" result="BackgroundImageFix"/>
<feColorMatrix in="SourceAlpha" type="matrix" values="0 0 0 0 0 0 0 0 0 0 0 0 0 0 0 0 0 0 127 0" result="hardAlpha"/>
<feOffset dx="1" dy="4"/>
<feGaussianBlur stdDeviation="3"/>
<feComposite in2="hardAlpha" operator="out"/>
<feColorMatrix type="matrix" values="0 0 0 0 0 0 0 0 0 0 0 0 0 0 0 0 0 0 0.2 0"/>
<feBlend mode="normal" in2="BackgroundImageFix" result="effect1_dropShadow_1075_51940"/>
<feBlend mode="normal" in="SourceGraphic" in2="effect1_dropShadow_1075_51940" result="shape"/>
</filter>
</defs>
</svg>
