<svg width="42" height="42" viewBox="0 0 42 42" fill="none" xmlns="http://www.w3.org/2000/svg">
<path d="M41.9997 20.9934C41.9996 16.9807 40.8492 13.0522 38.6848 9.67294C36.5204 6.29371 33.4326 3.60538 29.7871 1.92633C26.1416 0.247273 22.0911 -0.352165 18.1154 0.199004C14.1396 0.750174 10.4052 2.42886 7.35424 5.03626C4.30333 7.64366 2.06377 11.0705 0.900803 14.9111C-0.262165 18.7516 -0.299826 22.8448 0.792279 26.7061C1.88438 30.5674 4.0605 34.0348 7.06293 36.6979C10.0653 39.361 13.7683 41.1081 17.7332 41.7322V27.0738H12.3915V20.9934H17.7239V16.3654C17.7239 11.106 20.8599 8.19799 25.6572 8.19799C27.232 8.22002 28.8032 8.35724 30.358 8.60854V13.7746H27.7105C25.1003 13.7746 24.2883 15.395 24.2883 17.0528V20.9934H30.1122L29.1789 27.0614H24.2821V41.7322C29.2212 40.9496 33.719 38.4311 36.9668 34.6295C40.2146 30.8279 41.9992 25.9928 41.9997 20.9934Z" fill="#4676ED"/>
</svg>
