<svg width="24" height="24" viewBox="0 0 24 24" fill="none" xmlns="http://www.w3.org/2000/svg">
<path d="M14.6865 5.05043C15.7386 5.25531 16.7055 5.76888 17.4635 6.52541C18.2215 7.28194 18.7361 8.24702 18.9413 9.29711M14.6865 0.75C16.8724 0.992368 18.9107 1.96936 20.4669 3.52056C22.023 5.07177 23.0044 7.10498 23.25 9.28636M22.1728 17.8657V21.0911C22.1741 21.3905 22.1126 21.6868 21.9924 21.9612C21.8722 22.2355 21.696 22.4818 21.4749 22.6842C21.2539 22.8866 20.9929 23.0407 20.7087 23.1367C20.4245 23.2326 20.1234 23.2682 19.8246 23.2413C16.51 22.8818 13.3261 21.7513 10.5287 19.9407C7.92603 18.29 5.71946 16.0877 4.06565 13.49C2.24521 10.6853 1.11232 7.492 0.758743 4.16885C0.731825 3.87154 0.767226 3.5719 0.86269 3.289C0.958155 3.0061 1.11159 2.74614 1.31323 2.52567C1.51487 2.3052 1.7603 2.12905 2.03388 2.00844C2.30747 1.88782 2.60322 1.82539 2.90231 1.82511H6.13381C6.65657 1.81997 7.16336 2.00474 7.55972 2.34496C7.95609 2.68518 8.21498 3.15765 8.28814 3.6743C8.42454 4.70647 8.67749 5.71993 9.04216 6.69535C9.18709 7.08016 9.21845 7.49837 9.13254 7.90042C9.04663 8.30247 8.84705 8.67152 8.55744 8.96383L7.18943 10.3292C8.72284 13.0208 10.9557 15.2494 13.6524 16.7799L15.0204 15.4145C15.3133 15.1254 15.6831 14.9262 16.0859 14.8405C16.4887 14.7547 16.9077 14.786 17.2933 14.9307C18.2705 15.2947 19.286 15.5471 20.3201 15.6833C20.8434 15.7569 21.3212 16.02 21.6628 16.4224C22.0044 16.8248 22.1859 17.3385 22.1728 17.8657Z" stroke="#009638" stroke-width="1.5" stroke-linecap="round" stroke-linejoin="round"/>
</svg>
