<svg width="20" height="20" viewBox="0 0 20 20" fill="none" xmlns="http://www.w3.org/2000/svg">
<path d="M11.8496 1H4.64961C4.17222 1 3.71438 1.18964 3.37682 1.52721C3.03925 1.86477 2.84961 2.32261 2.84961 2.8V17.2C2.84961 17.6774 3.03925 18.1352 3.37682 18.4728C3.71438 18.8104 4.17222 19 4.64961 19H15.4496C15.927 19 16.3848 18.8104 16.7224 18.4728C17.06 18.1352 17.2496 17.6774 17.2496 17.2V6.4L11.8496 1Z" stroke="#007580" stroke-width="2" stroke-linecap="round" stroke-linejoin="round"/>
<path d="M11.8496 1V6.4H17.2496" stroke="#007580" stroke-width="2" stroke-linecap="round" stroke-linejoin="round"/>
<path d="M13.65 10.9001H6.44995" stroke="#007580" stroke-width="2" stroke-linecap="round" stroke-linejoin="round"/>
<path d="M13.65 14.5H6.44995" stroke="#007580" stroke-width="2" stroke-linecap="round" stroke-linejoin="round"/>
<path d="M8.24995 7.30005H7.34995H6.44995" stroke="#007580" stroke-width="2" stroke-linecap="round" stroke-linejoin="round"/>
</svg>
