<svg width="20" height="20" viewBox="0 0 20 20" fill="none" xmlns="http://www.w3.org/2000/svg">
<path d="M19.6049 8.12475C19.7299 8.79419 19.798 9.49411 19.798 10.2245C19.798 15.9376 15.9743 20 10.1992 20C8.88589 20.0004 7.58535 19.742 6.37191 19.2396C5.15847 18.7372 4.05592 18.0006 3.12726 17.072C2.19859 16.1433 1.46201 15.0407 0.959608 13.8273C0.457203 12.6139 0.198819 11.3133 0.199219 10C0.198819 8.68667 0.457203 7.38613 0.959608 6.17269C1.46201 4.95926 2.19859 3.8567 3.12726 2.92804C4.05592 1.99937 5.15847 1.26279 6.37191 0.76039C7.58535 0.257984 8.88589 -0.000399962 10.1992 4.64701e-07C12.8993 4.64701e-07 15.1555 0.993499 16.8865 2.60666L14.0676 5.42564V5.41853C13.0182 4.41893 11.6864 3.90593 10.1992 3.90593C6.89975 3.90593 4.21791 6.69342 4.21791 9.99391C4.21791 13.2934 6.89975 16.087 10.1992 16.087C13.1929 16.087 15.2307 14.3753 15.6492 12.0246H10.1992V8.12475H19.606H19.6049Z" fill="#EA4335"/>
</svg>
