<svg width="68" height="68" viewBox="0 0 68 68" fill="none" xmlns="http://www.w3.org/2000/svg">
<rect width="68" height="68" rx="10" fill="#F8F8F8"/>
<path d="M38.3582 36.6176C38.3665 37.4096 38.224 38.196 37.9383 38.9348C37.6799 39.6092 37.2938 40.2274 36.8011 40.7555C36.3209 41.2729 35.7427 41.6897 35.0999 41.9816C34.4602 42.2634 33.7667 42.4026 33.0677 42.3892C32.3803 42.3983 31.7019 42.2316 31.0969 41.9049C30.5922 41.6294 30.1692 41.2255 29.8708 40.734H29.693V41.577C29.693 41.6989 29.6446 41.8158 29.5583 41.9021C29.4721 41.9883 29.3552 42.0367 29.2332 42.0367H27.5198C27.9271 41.7911 28.3037 41.4979 28.6417 41.1632C29.2068 40.5933 29.65 39.9144 29.9444 39.1678C30.0431 38.9241 30.1261 38.6742 30.1926 38.4199C30.3013 38.5955 30.4299 38.758 30.5758 38.9042C30.8382 39.1679 31.1509 39.3764 31.4953 39.5172C31.842 39.6571 32.2127 39.7279 32.5865 39.7256C32.9625 39.7274 33.3349 39.6523 33.6808 39.5049C34.0237 39.3613 34.3358 39.1532 34.6003 38.8919C34.874 38.6125 35.0906 38.2825 35.2379 37.9202C35.5649 37.0985 35.5649 36.1826 35.2379 35.3608C35.0913 34.9982 34.8747 34.668 34.6003 34.3892C34.3365 34.1271 34.0242 33.9189 33.6808 33.7762C33.3349 33.6288 32.9625 33.5537 32.5865 33.5555C32.2125 33.5542 31.8418 33.626 31.4953 33.767C31.1497 33.9054 30.8365 34.1142 30.5758 34.38C30.4308 34.5259 30.3024 34.6873 30.1926 34.8612C30.067 35.0617 29.9642 35.2755 29.8861 35.4988V36.6513C29.886 36.9588 29.8655 37.266 29.8248 37.5708C29.7597 38.0483 29.6351 38.5158 29.4539 38.9624C29.1853 39.6438 28.7806 40.2633 28.2647 40.7831C27.8909 41.1566 27.4632 41.4717 26.9957 41.718C26.82 41.8142 26.6388 41.9002 26.4531 41.9754C24.9687 42.5477 23.3245 42.5477 21.8401 41.9754C21.1638 41.7026 20.5489 41.2972 20.0317 40.7831C19.5147 40.2634 19.109 39.644 18.8393 38.9624C18.2671 37.4705 18.2671 35.8197 18.8393 34.3279C19.1105 33.6471 19.516 33.0279 20.0317 32.5072C20.5498 31.9941 21.1644 31.5889 21.8401 31.3148C23.32 30.7468 24.9579 30.7468 26.4378 31.3148V34.7509C26.3486 34.6171 26.2459 34.4928 26.1313 34.38C25.8706 34.1142 25.5574 33.9054 25.2118 33.767C24.8724 33.6272 24.509 33.5554 24.142 33.5555C23.7709 33.553 23.403 33.6249 23.06 33.767C22.72 33.9076 22.4123 34.1162 22.1558 34.38C21.8821 34.6563 21.6682 34.986 21.5275 35.3486C21.2168 36.1893 21.2168 37.1133 21.5275 37.954C21.6681 38.3175 21.882 38.6482 22.1558 38.9256C22.6849 39.4527 23.4013 39.7486 24.1482 39.7486C24.895 39.7486 25.6114 39.4527 26.1405 38.9256C26.4133 38.6474 26.627 38.3169 26.7689 37.954C26.8969 37.6287 26.9724 37.2853 26.9926 36.9363V27.6673C26.9926 27.2844 27.1447 26.9172 27.4155 26.6465C27.6862 26.3757 28.0534 26.2236 28.4363 26.2236C28.8192 26.2236 29.1864 26.3757 29.4571 26.6465C29.7279 26.9172 29.88 27.2844 29.88 27.6673V32.5133C30.1792 32.0225 30.602 31.6188 31.106 31.3424C31.743 31.001 32.4589 30.8339 33.1812 30.8581C33.8624 30.8567 34.5359 31.0031 35.1551 31.2873C35.7784 31.5745 36.3404 31.9794 36.8103 32.4796C37.3017 33.0087 37.6876 33.6266 37.9475 34.3003C38.2294 35.0399 38.3688 35.8261 38.3582 36.6176Z" fill="#007580"/>
<path d="M12.7236 42.3765C11.5497 42.3996 10.3997 42.0439 9.44388 41.362C8.97674 41.0244 8.57043 40.6098 8.24234 40.1359C8.12261 39.955 8.04473 39.7497 8.01436 39.5349C7.984 39.3201 8.00191 39.1012 8.0668 38.8942C8.13169 38.6872 8.24192 38.4973 8.38947 38.3383C8.53702 38.1793 8.71817 38.0552 8.91973 37.975C9.23948 37.8488 9.59294 37.8366 9.92063 37.9404C10.2483 38.0443 10.5302 38.2578 10.719 38.5451C10.8412 38.7239 10.9877 38.8849 11.1542 39.0233C11.5966 39.3828 12.1537 39.5711 12.7236 39.5535C13.0242 39.5703 13.3248 39.5195 13.6033 39.405C13.8817 39.2904 14.131 39.1149 14.3328 38.8915C14.7442 38.3642 14.9481 37.7045 14.906 37.037V27.7006C14.9068 27.3058 15.064 26.9273 15.3432 26.6481C15.6224 26.369 16.0008 26.2117 16.3956 26.2109C16.7907 26.2109 17.1696 26.3679 17.449 26.6472C17.7283 26.9266 17.8853 27.3055 17.8853 27.7006V37.0033C17.9013 37.7989 17.7629 38.59 17.4776 39.3328C17.2309 39.9626 16.855 40.5338 16.3742 41.0095C15.9087 41.4609 15.3515 41.8069 14.7405 42.024C14.0944 42.2603 13.4115 42.3796 12.7236 42.3765Z" fill="#007580"/>
<path d="M57.8695 40.4399C57.7884 40.9015 57.5963 41.3366 57.3099 41.7075C57.0058 42.1001 56.6242 42.4259 56.1887 42.6646C55.701 42.9303 55.1693 43.1054 54.6192 43.1815C53.9846 43.272 53.3394 43.2571 52.7097 43.1374C52.0783 43.0358 51.4666 42.8366 50.8965 42.5469C50.4205 42.3045 49.9846 41.9904 49.6041 41.6156C49.46 41.4644 49.3295 41.3008 49.2141 41.1266L49.1033 40.9608C48.9022 40.6563 48.8299 40.2846 48.9023 39.9269C48.9747 39.5692 49.1859 39.2548 49.4896 39.0525C49.6024 38.9789 49.7247 38.9209 49.853 38.8801L49.9798 38.8495C50.2485 38.7964 50.5268 38.824 50.7798 38.929C51.0327 39.034 51.2488 39.2116 51.4009 39.4393L51.475 39.5489C51.4766 39.5585 51.4817 39.5671 51.4893 39.5732L51.5684 39.6899C51.651 39.8001 51.7433 39.9029 51.8442 39.9968C52.2079 40.3352 52.6629 40.5593 53.1529 40.6415C53.5798 40.7403 54.0258 40.7176 54.4405 40.576C54.5809 40.5378 54.7084 40.4627 54.81 40.3586C54.9115 40.2544 54.9834 40.125 55.018 39.9838C55.0439 39.8437 55.0341 39.6994 54.9894 39.5642C54.9446 39.429 54.8665 39.3073 54.7622 39.2104C54.3986 38.8986 53.9821 38.6544 53.5324 38.4893L52.0806 37.8971C51.7394 37.7548 51.4139 37.5775 51.1094 37.368C50.7879 37.1517 50.4986 36.8911 50.2499 36.5939C50.0013 36.2927 49.8109 35.9477 49.6885 35.5768C49.5618 35.17 49.5384 34.7379 49.6207 34.3198C49.697 33.8333 49.8968 33.3746 50.2011 32.9874C50.5019 32.6204 50.8793 32.3237 51.3068 32.1179C51.7773 31.8954 52.2831 31.757 52.8013 31.7091C53.3848 31.6517 53.9734 31.6759 54.5503 31.781C55.4933 31.932 56.3875 32.3029 57.1605 32.8637C57.3312 32.9917 57.4795 33.1472 57.5992 33.3239L57.6564 33.4055C57.8508 33.6747 57.9359 34.0076 57.8946 34.337C57.8532 34.6665 57.6885 34.968 57.4336 35.1808C57.297 35.2904 57.1393 35.3706 56.9703 35.4167C56.8014 35.4628 56.6248 35.4737 56.4515 35.4486C56.2781 35.4236 56.1118 35.3633 55.9628 35.2713C55.8138 35.1793 55.6852 35.0577 55.5852 34.914C55.4821 34.7876 55.3626 34.6755 55.23 34.5806C54.8968 34.335 54.5123 34.1682 54.1053 34.0928C53.7374 34.0186 53.3567 34.0394 52.9991 34.153C52.8603 34.183 52.7329 34.2518 52.6317 34.3512C52.5304 34.4507 52.4594 34.5769 52.4269 34.7151C52.4072 34.8389 52.4227 34.9658 52.4717 35.0812C52.5207 35.1966 52.6012 35.2959 52.704 35.3677C53.0002 35.5981 53.3237 35.791 53.6671 35.9422L55.2285 36.619C56.2687 37.0742 57.0002 37.6327 57.423 38.2945C57.8422 38.9256 58.0021 39.6939 57.8695 40.4399Z" fill="#007580"/>
<path d="M48.9945 37.8507C48.8968 38.4599 48.6681 39.0406 48.3242 39.5528C47.9802 40.0649 47.5292 40.4964 47.0023 40.8173C46.448 41.1517 45.8335 41.3744 45.1936 41.4726C44.4727 41.5846 43.738 41.5729 43.021 41.4381C42.429 41.3351 41.854 41.151 41.3123 40.8909C40.792 40.6389 40.3181 40.3007 39.9107 39.8905C39.5782 39.5573 39.294 39.1792 39.066 38.7674C39.0075 38.6637 38.9516 38.5574 38.8982 38.4483C38.8451 38.3392 38.7984 38.227 38.7582 38.1124C38.6687 37.7666 38.7061 37.4001 38.8637 37.0796C39.0213 36.759 39.2886 36.5056 39.6172 36.3653L39.7507 36.3141L40.038 36.2559C40.3045 36.227 40.5739 36.2706 40.8178 36.3821C41.0616 36.4935 41.2708 36.6687 41.4234 36.8892C41.4814 36.973 41.5313 37.062 41.5726 37.1552L41.7683 37.6161C41.8132 37.6801 41.8616 37.7417 41.9132 37.8004C42.2298 38.1328 42.6213 38.3846 43.0551 38.5348C43.4889 38.6849 43.9523 38.729 44.4066 38.6633C44.6842 38.6238 44.9513 38.5302 45.1928 38.388C45.425 38.2511 45.6282 38.0702 45.791 37.8554C45.9621 37.625 46.0746 37.3564 46.1188 37.0729C46.1834 36.7852 46.1771 36.4862 46.1004 36.2016C46.0237 35.9169 45.8789 35.6552 45.6786 35.439C45.2676 35.022 44.7407 34.7382 44.1664 34.6246L43.8283 34.565C43.5098 34.4859 43.2293 34.2973 43.0359 34.0321C42.8425 33.767 42.7486 33.4423 42.7705 33.1148L42.794 32.982C42.8883 32.6599 43.0947 32.3821 43.3758 32.1988C43.657 32.0155 43.9944 31.9388 44.3272 31.9825L44.4027 31.9958C44.6183 32.0191 44.8356 32.0219 45.0517 32.0044C45.3243 31.9841 45.5909 31.914 45.8382 31.7976C46.0795 31.6776 46.288 31.5008 46.4458 31.2822C46.6189 31.0447 46.7326 30.7691 46.7773 30.4786C46.8248 30.2526 46.8216 30.0188 46.7682 29.7942C46.7147 29.5695 46.6122 29.3595 46.468 29.1791C46.1317 28.7799 45.6561 28.5236 45.1378 28.4621C44.8747 28.3973 44.6012 28.3861 44.3337 28.4293C44.0662 28.4725 43.8102 28.5692 43.5808 28.7135C43.5311 28.7484 43.4814 28.7832 43.4342 28.8215L43.2078 28.9933C42.9133 29.217 42.5419 29.3146 42.1755 29.2646C41.809 29.2146 41.4773 29.021 41.2536 28.7265C41.0298 28.4319 40.9322 28.0606 40.9822 27.6941C41.0323 27.3276 41.2258 26.996 41.5203 26.7722L41.7858 26.5731C41.8271 26.5437 41.8703 26.517 41.915 26.4932C42.0098 26.4321 42.1102 26.3751 42.2099 26.3211C42.6916 26.071 43.2095 25.8977 43.7447 25.8074C44.3747 25.704 45.018 25.7121 45.6453 25.8313C46.308 25.9395 46.9481 26.1576 47.539 26.4765C48.057 26.7579 48.5186 27.1326 48.9004 27.5817C49.2524 27.9989 49.5103 28.4871 49.6564 29.0129C49.8029 29.5463 49.8266 30.106 49.7257 30.6499C49.6611 31.0482 49.5363 31.4345 49.3557 31.7953C49.1993 32.1074 49.0016 32.3971 48.7681 32.6566C48.5559 32.891 48.3105 33.0931 48.0398 33.2565C47.7997 33.4032 47.5419 33.5188 47.2726 33.6005L47.2364 33.8058C47.879 34.1971 48.3976 34.7622 48.7324 35.4359C49.0818 36.1905 49.1738 37.0388 48.9945 37.8507Z" fill="#FF9900"/>
<path d="M42.6046 42.2432V42.3784C42.6005 42.3334 42.6005 42.2882 42.6046 42.2432Z" fill="#007580"/>
</svg>
