<svg width="80" height="80" viewBox="0 0 80 80" fill="none" xmlns="http://www.w3.org/2000/svg">
<path d="M37.2372 28.0224C35.9683 29.2908 33.9114 29.2908 32.6431 28.0224L21.3931 16.7725C17.5565 12.9352 17.5565 6.71448 21.3931 2.8772C25.1163 -0.845327 31.0843 -0.9558 34.9399 2.54639C38.7967 -0.9558 44.7641 -0.845327 48.4872 2.8772C52.3239 6.71448 52.3239 12.9352 48.4872 16.7725L37.2372 28.0224Z" fill="#007580"/>
<path d="M45.0708 13.3577L31.5234 26.905L32.641 28.0226C33.9093 29.2915 35.9662 29.2915 37.2345 28.0226L48.4851 16.7726C52.3218 12.9353 52.3218 6.7146 48.4851 2.87793L48.4637 2.89929C46.8371 4.52588 46.1523 6.83056 46.4801 9.10717C46.6968 10.6141 46.2274 12.201 45.0708 13.3577V13.3577Z" fill="#036B75"/>
<path d="M33.8031 45.4236V24.386C33.8031 22.0526 31.911 20.1611 29.5776 20.1611C27.2436 20.1611 25.3521 22.0526 25.3521 24.386V40.4828C25.3515 38.1494 23.4601 36.2585 21.1267 36.2585C18.7933 36.2585 16.9012 38.15 16.9012 40.484C16.9012 38.15 15.0098 36.2585 12.6764 36.2585C10.3424 36.2585 8.45092 38.15 8.45092 40.484V43.479L8.44482 43.4796C8.32824 41.2488 6.48193 39.4763 4.2218 39.4781C1.89941 39.48 0 41.4715 0 43.7939V58.9648C0 61.206 0.584716 63.4082 1.69617 65.3534L6.43859 73.6529V77.5854C6.43859 78.919 7.51952 79.9999 8.85314 79.9999L30.5279 79.9975C31.8615 79.9975 32.9425 78.9166 32.9425 77.583V73.6529L38.0902 65.5438C39.4 63.4802 40.0958 61.0864 40.0958 58.6419V50.0207C40.0958 46.7303 36.8756 44.4232 33.8031 45.4236V45.4236Z" fill="#FFC98C"/>
<path d="M15.9967 44.9769H16.8988V40.5726C16.8988 38.2649 15.0854 36.3154 12.7783 36.2599C12.5372 36.2544 12.3004 36.2697 12.0703 36.3026V41.0505C12.0703 43.2185 13.8281 44.9769 15.9967 44.9769V44.9769Z" fill="#F7A16E"/>
<path d="M8.45019 48.1958V43.7921C8.45019 41.4843 6.63684 39.5349 4.3291 39.4793C4.08801 39.4732 3.85181 39.4885 3.62109 39.5215V44.2694C3.62109 46.438 5.3789 48.1964 7.54748 48.1964H8.45019V48.1958Z" fill="#F7A16E"/>
<path d="M24.4504 44.9769H25.3525V40.5726C25.3525 38.2649 23.5392 36.3154 21.2321 36.2599C20.991 36.2544 20.7542 36.2697 20.5234 36.3026V41.0505C20.5234 43.2185 22.2812 44.9769 24.4504 44.9769V44.9769Z" fill="#F7A16E"/>
<path d="M35.2666 45.1917V45.1887L33.803 45.1917V24.3861H33.8005C33.7548 22.1174 31.9597 20.2174 29.6819 20.1625C29.4408 20.1563 29.2046 20.1716 28.9739 20.2046V46.5864C28.9739 49.2536 31.1357 51.4155 33.803 51.4155H35.2672V58.6426C35.2672 60.1703 34.832 61.6663 34.0135 62.956L29.6782 69.7846C28.6565 71.3947 28.1133 73.2624 28.1133 75.1691V80L30.5284 79.9976C31.8614 79.9976 32.9424 78.9167 32.9424 77.5831V73.653L38.0901 65.5439C39.4005 63.4803 40.0957 61.0865 40.0957 58.642V50.0208C40.0957 47.3072 37.8813 45.1917 35.2666 45.1917V45.1917Z" fill="#F7A16E"/>
</svg>
