<svg width="80" height="80" viewBox="0 0 80 80" fill="none" xmlns="http://www.w3.org/2000/svg">
<path d="M80.0007 52.4136V63.4481H51.0352C51.4758 61.5713 52.0474 59.7277 52.7455 57.9308H55.78C57.4448 57.9308 58.8145 55.4481 58.8145 52.4136H80.0007Z" fill="#C03A2B"/>
<path d="M80.0018 51.0346V55.1725H60.6914V49.6553H78.6224C79.3842 49.6553 80.0018 50.2728 80.0018 51.0346Z" fill="#393F4A"/>
<path d="M64.8281 5.51709H74.4833V22.0688H64.8281V5.51709Z" fill="#F5EFCA"/>
<path d="M57.9297 5.51709H66.2055V22.0688H57.9297V5.51709Z" fill="#285680"/>
<path d="M79.9981 6.8964V20.6895C79.9981 21.4513 79.3806 22.0688 78.6188 22.0688H73.1016V5.51709H78.6188C79.3806 5.51709 79.9981 6.13463 79.9981 6.8964Z" fill="#C03A2B"/>
<path d="M57.9297 27.5864H78.6193C79.3811 27.5864 79.9987 28.204 79.9987 28.9657V42.7588C79.9987 43.5206 79.3811 44.1381 78.6193 44.1381H57.9297V27.5864Z" fill="#F5EFCA"/>
<path d="M70.3446 38.6208C71.8681 38.6208 73.1032 37.3857 73.1032 35.8621C73.1032 34.3386 71.8681 33.1035 70.3446 33.1035C68.821 33.1035 67.5859 34.3386 67.5859 35.8621C67.5859 37.3857 68.821 38.6208 70.3446 38.6208Z" fill="#C03A2B"/>
<path d="M6.89655 0.124023L12.4138 58.0551C10.7163 58.3257 9.15011 59.1329 7.94483 60.3585C6.44138 61.8482 6.62069e-07 63.9171 0 66.2068L6.62069e-07 8.27575C-0.00160193 4.23846 2.91479 0.791288 6.89655 0.124023Z" fill="#C03A2B"/>
<path d="M60.6915 66.2069V70.3449C60.6847 72.6274 58.8361 74.476 56.5536 74.4828H55.1743C54.9536 74.1794 51.2295 72.4828 51.0364 72.1656C50.5949 71.429 50.2121 70.6588 49.8915 69.8621C49.2384 68.2639 48.9012 66.5542 48.8984 64.8276L60.6915 66.2069Z" fill="#B19046"/>
<path d="M60.6915 2.75864V55.1724C60.6915 56.6897 59.4502 59.3104 57.9329 59.3104L8.27775 59.1862C7.81963 59.1833 7.36231 59.2249 6.91223 59.3104H6.89844V0.124155C7.35343 0.0405779 7.81514 -0.000976397 8.27775 1.74103e-05H57.9329C59.4546 0.00456196 60.687 1.23698 60.6915 2.75864Z" fill="#FF9900"/>
<path d="M55.173 73.9655C6.24889 73.9655 8.95647 74.0082 8.13854 73.8882C4.12653 73.7282 0.912712 70.5089 0.759588 66.4966C0.606464 62.4843 3.56557 59.0294 7.55371 58.5641C12.9261 58.5641 -10.9566 58.4482 55.1758 58.4482C51.5486 62.9844 51.5474 69.428 55.173 73.9655Z" fill="#F5EFCA"/>
<path d="M30.3432 67.5863H6.89494C6.13316 67.5863 5.51562 66.9687 5.51562 66.2069C5.51562 65.4452 6.13316 64.8276 6.89494 64.8276H30.3432C31.105 64.8276 31.7225 65.4452 31.7225 66.2069C31.7225 66.9687 31.105 67.5863 30.3432 67.5863Z" fill="#CBB292"/>
<path d="M50.9532 31.3793C49.5906 34.5963 47.3545 37.3676 44.4981 39.3793V39.3655C43.1364 38.9079 41.7234 38.6206 40.2912 38.5103C38.3754 38.3348 36.4439 38.4604 34.567 38.8827C32.4186 39.4571 30.4468 40.5567 28.8291 42.0827C27.0808 41.6024 25.4125 40.8681 23.8774 39.9034V39.8896C24.1696 38.9803 24.3865 38.0484 24.5256 37.1034C24.5743 35.7277 24.4491 34.3513 24.1532 33.0069C23.836 30.1655 25.7946 27.9586 26.0291 25.2138C26.1474 24.1878 25.5493 23.2138 24.5808 22.8551C23.2153 22.262 21.6567 22.2345 20.305 21.6827C18.3476 20.7324 16.9998 18.861 16.7188 16.7034C17.5115 14.8828 18.592 13.2015 19.9187 11.7241C22.7618 11.7549 25.5975 11.4306 28.3601 10.7586C31.2977 10.2193 33.7857 8.27729 35.0222 5.55859C37.4689 5.71745 39.8598 6.35971 42.0567 7.44825V7.46204L42.0429 7.47583C40.4975 9.29994 38.5202 10.7082 36.2912 11.5724C34.5961 12.2474 33.3081 13.6678 32.8015 15.4207C32.3463 17.9448 34.7739 19.4758 36.8981 19.9448C39.4222 20.5103 41.6843 21.9172 41.6981 24.7586C41.6485 25.9538 41.387 27.1307 40.9256 28.2345C40.2949 29.5381 39.8803 30.9357 39.6981 32.3724C39.6771 33.2006 40.045 33.9909 40.6922 34.5082C41.3394 35.0254 42.1914 35.2099 42.9946 35.0069C44.1538 34.8116 45.2531 34.3539 46.2084 33.6689C46.3188 33.6 46.4291 33.531 46.5394 33.4482C47.8678 32.4877 49.3652 31.7858 50.9532 31.3793Z" fill="#2FA8CC"/>
<path d="M24.1536 33.0071C24.4495 34.3515 24.5746 35.7279 24.526 37.1036C24.3868 38.0486 24.17 38.9805 23.8777 39.8898V39.9036C16.0912 34.9981 13.0505 25.1437 16.7191 16.7036C17.0002 18.8612 18.348 20.7326 20.3053 21.6829C21.657 22.2346 23.2157 22.2622 24.5812 22.8553C25.5497 23.214 26.1477 24.188 26.0295 25.214C25.795 27.9588 23.8364 30.1657 24.1536 33.0071Z" fill="#4FBA6F"/>
<path d="M35.0214 5.55848C33.785 8.27718 31.2969 10.2192 28.3593 10.7585C25.5967 11.4305 22.761 11.7548 19.918 11.724C23.4457 7.76985 28.4948 5.51132 33.7938 5.5171C34.2076 5.5171 34.6076 5.53089 35.0214 5.55848Z" fill="#B0D3F0"/>
<path d="M44.4971 39.3656V39.3794C39.9408 42.5773 34.1926 43.5691 28.8281 42.0828C30.4458 40.5568 32.4176 39.4572 34.5661 38.8828C36.4429 38.4606 38.3744 38.3349 40.2902 38.5104C41.7224 38.6207 43.1355 38.908 44.4971 39.3656Z" fill="#B0D3F0"/>
<path d="M52.4155 24.1379C52.4158 26.625 51.9187 29.0871 50.9534 31.3793C49.3653 31.7858 47.868 32.4877 46.5396 33.4482C46.4293 33.531 46.3189 33.6 46.2086 33.6689C45.2532 34.3539 44.154 34.8116 42.9948 35.0069C42.1915 35.2099 41.3396 35.0254 40.6923 34.5082C40.0451 33.9909 39.6773 33.2006 39.6982 32.3724C39.8805 30.9357 40.2951 29.5381 40.9258 28.2344C41.3872 27.1307 41.6487 25.9538 41.6982 24.7586C41.6844 21.9172 39.4224 20.5103 36.8982 19.9448C34.7741 19.4758 32.3465 17.9448 32.8017 15.4207C33.3082 13.6678 34.5963 12.2474 36.2913 11.5724C38.5204 10.7082 40.4977 9.29993 42.0431 7.47583L42.0568 7.46203V7.44824C48.4019 10.5897 52.4163 17.0578 52.4155 24.1379Z" fill="#4FBA6F"/>
<path d="M45.519 49.6551H22.0707C21.3089 49.6551 20.6914 49.0376 20.6914 48.2758C20.6914 47.514 21.3089 46.8965 22.0707 46.8965H45.519C46.2808 46.8965 46.8983 47.514 46.8983 48.2758C46.8983 49.0376 46.2808 49.6551 45.519 49.6551Z" fill="white"/>
<path d="M7.38095 60.7724C8.00164 60.6482 4.73543 60.6896 56.5534 60.6896C58.8358 60.6828 60.6845 58.8342 60.6913 56.5517V55.1724C60.6867 56.694 59.4543 57.9264 57.9327 57.931H8.2775C4.98159 57.9081 1.99286 59.8625 0.692327 62.891C-0.608208 65.9196 0.0326888 69.4326 2.31888 71.8068C3.9395 73.4788 6.15629 74.4409 8.4844 74.4827H56.5534C58.8358 74.4759 60.6845 72.6273 60.6913 70.3448V66.2068C60.6913 65.4451 60.0738 64.8275 59.312 64.8275C58.5502 64.8275 57.9327 65.4451 57.9327 66.2068V70.3448C57.9327 71.1065 57.3151 71.7241 56.5534 71.7241H8.60853C7.07261 71.7451 5.59172 71.1527 4.49397 70.0783C3.39622 69.0038 2.77223 67.536 2.76026 65.9999C2.86018 63.3798 4.79294 61.1932 7.38095 60.7724ZM54.3837 73.2413C54.3313 73.1517 54.2816 73.0606 54.232 72.9655C54.283 73.0579 54.3299 73.1489 54.3837 73.2413Z" fill="#E64C3C"/>
<path d="M21.4527 79.8526L18.5479 78.4001C18.1597 78.2062 17.7029 78.2062 17.3148 78.4001L14.4099 79.8526C13.9827 80.066 13.4754 80.0433 13.069 79.7925C12.6625 79.5417 12.4148 79.0984 12.4141 78.6208V66.207H23.4485V78.6208C23.4478 79.0984 23.2001 79.5417 22.7936 79.7925C22.3872 80.0433 21.8799 80.066 21.4527 79.8526Z" fill="#C03A2B"/>
<path d="M80.0003 60.6895V64.8274C80.0003 65.5892 79.3827 66.2067 78.621 66.2067H52.4141C52.4137 64.3028 52.8229 62.4212 53.6141 60.6895H80.0003Z" fill="#FF9900"/>
</svg>
