<svg width="16" height="17" viewBox="0 0 16 17" fill="none" xmlns="http://www.w3.org/2000/svg">
<path d="M4.47654 15.7499H2.30155C1.91699 15.7499 1.54818 15.5971 1.27625 15.3252C1.00433 15.0533 0.851563 14.6845 0.851562 14.2999V9.22495C0.851562 8.84039 1.00433 8.47158 1.27625 8.19965C1.54818 7.92773 1.91699 7.77496 2.30155 7.77496H4.47654M9.55151 6.32497V3.42499C9.55151 2.84814 9.32236 2.29493 8.91447 1.88704C8.50658 1.47915 7.95336 1.25 7.37652 1.25L4.47654 7.77496V15.7499H12.6545C13.0042 15.7539 13.3435 15.6313 13.61 15.4048C13.8764 15.1783 14.052 14.8632 14.1045 14.5174L15.105 7.99246C15.1365 7.78464 15.1225 7.57245 15.0639 7.37059C15.0053 7.16873 14.9035 6.98203 14.7656 6.82341C14.6276 6.6648 14.4569 6.53807 14.2651 6.452C14.0733 6.36593 13.8652 6.32259 13.655 6.32497H9.55151Z" stroke="#007580" stroke-width="1.5" stroke-linecap="round" stroke-linejoin="round"/>
</svg>
