<svg width="17" height="16" viewBox="0 0 17 16" fill="none" xmlns="http://www.w3.org/2000/svg">
<path d="M13.8031 5.82422H7.27813C6.47731 5.82422 5.82812 6.47341 5.82812 7.27422V13.7992C5.82812 14.6 6.47731 15.2492 7.27813 15.2492H13.8031C14.6039 15.2492 15.2531 14.6 15.2531 13.7992V7.27422C15.2531 6.47341 14.6039 5.82422 13.8031 5.82422Z" stroke="#007580" stroke-width="1.5" stroke-linecap="round" stroke-linejoin="round"/>
<path d="M2.925 10.175H2.2C1.81544 10.175 1.44662 10.0222 1.1747 9.7503C0.902767 9.47838 0.75 9.10956 0.75 8.725V2.2C0.75 1.81544 0.902767 1.44662 1.1747 1.1747C1.44662 0.902767 1.81544 0.75 2.2 0.75H8.725C9.10956 0.75 9.47838 0.902767 9.7503 1.1747C10.0222 1.44662 10.175 1.81544 10.175 2.2V2.925" stroke="#007580" stroke-width="1.5" stroke-linecap="round" stroke-linejoin="round"/>
</svg>
