<svg width="42" height="42" viewBox="0 0 42 42" fill="none" xmlns="http://www.w3.org/2000/svg">
<path d="M21 42C32.598 42 42 32.598 42 21C42 9.40202 32.598 0 21 0C9.40202 0 0 9.40202 0 21C0 32.598 9.40202 42 21 42Z" fill="#4467AD"/>
<path d="M22.6217 18.1372C22.967 17.7483 23.2439 17.3532 23.6048 17.0203C24.1167 16.5212 24.7228 16.1289 25.3878 15.8661C26.0527 15.6033 26.7633 15.4753 27.4781 15.4896C28.3019 15.4754 29.1237 15.5749 29.9203 15.7852C31.7434 16.3141 32.8012 17.5678 33.3083 19.3474C33.6444 20.681 33.7962 22.0544 33.7594 23.4292C33.7594 26.3318 33.7594 29.2314 33.7594 32.1403C33.7594 32.4109 33.6848 32.4825 33.4172 32.4794C31.9197 32.4669 30.4254 32.4669 28.9341 32.4794C28.6697 32.4794 28.623 32.4016 28.623 32.1683C28.623 29.4077 28.623 26.6471 28.623 23.8865C28.6385 23.193 28.5569 22.5008 28.3803 21.8301C28.0226 20.5856 27.1359 19.9634 25.8385 20.0287C24.0683 20.1221 23.1443 21.0025 22.9203 22.8038C22.8654 23.233 22.8384 23.6654 22.8394 24.0981C22.8394 26.783 22.8394 29.4678 22.8394 32.1527C22.8394 32.4203 22.771 32.4981 22.4972 32.4949C20.9945 32.4949 19.4888 32.4949 17.983 32.4949C17.7403 32.4949 17.6719 32.4327 17.6719 32.1838C17.6719 26.8701 17.6719 21.5552 17.6719 16.2394C17.6719 15.9749 17.7559 15.9283 18.0048 15.9283C19.4359 15.9407 20.866 15.9407 22.295 15.9283C22.5563 15.9283 22.6248 16.0123 22.6061 16.2612C22.6123 16.8647 22.6217 17.4994 22.6217 18.1372Z" fill="#FEFEFE"/>
<path d="M14.4332 24.2091C14.4332 26.838 14.4332 29.4669 14.4332 32.0958C14.4332 32.3882 14.3616 32.4785 14.0598 32.4754C12.5634 32.4567 11.0701 32.4754 9.57674 32.4754C9.33718 32.4754 9.26562 32.4162 9.26562 32.1642C9.26562 26.838 9.26562 21.5139 9.26562 16.1918C9.26562 15.9709 9.32162 15.8807 9.55496 15.8962C11.0701 15.8962 12.5852 15.8962 14.1003 15.8962C14.3927 15.8962 14.4301 16.0051 14.4301 16.2571C14.428 18.9078 14.429 21.5585 14.4332 24.2091Z" fill="#FEFEFE"/>
<path d="M14.846 10.6242C14.8491 11.2153 14.6765 11.7939 14.3503 12.2867C14.0241 12.7795 13.5588 13.1643 13.0136 13.3924C12.4683 13.6204 11.8676 13.6813 11.2877 13.5675C10.7077 13.4536 10.1746 13.1701 9.75608 12.7528C9.33751 12.3356 9.0523 11.8034 8.93662 11.2238C8.82094 10.6442 8.87999 10.0433 9.1063 9.49735C9.33261 8.95138 9.71599 8.48492 10.2078 8.15714C10.6996 7.82936 11.2776 7.65503 11.8686 7.65626C12.6554 7.66032 13.4089 7.97402 13.9662 8.52949C14.5234 9.08496 14.8395 9.83749 14.846 10.6242V10.6242Z" fill="#FEFEFE"/>
</svg>
