<svg width="116" height="42" viewBox="0 0 116 42" fill="none" xmlns="http://www.w3.org/2000/svg">
<path d="M67.2919 25.7506C67.3103 27.5063 66.9944 29.2494 66.3611 30.8871C65.7883 32.382 64.9325 33.7524 63.8404 34.9229C62.776 36.0698 61.4942 36.9937 60.0695 37.6407C58.6514 38.2655 57.1142 38.5739 55.5649 38.5443C54.041 38.5644 52.5372 38.1948 51.1961 37.4708C50.0774 36.8601 49.1399 35.9647 48.4784 34.8754H48.0843V36.7438C48.0843 37.0141 47.9769 37.2733 47.7858 37.4645C47.5947 37.6556 47.3354 37.7629 47.0651 37.7629H43.2671C44.17 37.2185 45.0047 36.5685 45.7538 35.8266C47.0066 34.5635 47.9891 33.0585 48.6414 31.4035C48.8604 30.8633 49.0442 30.3095 49.1918 29.7456C49.4327 30.1349 49.7177 30.4951 50.0411 30.8191C50.6228 31.4038 51.3159 31.8659 52.0794 32.178C52.8478 32.4881 53.6695 32.6451 54.4982 32.64C55.3316 32.644 56.157 32.4775 56.9237 32.1508C57.6838 31.8324 58.3758 31.3711 58.962 30.792C59.5687 30.1728 60.0487 29.4412 60.3753 28.6382C61.1003 26.8165 61.1003 24.7865 60.3753 22.9649C60.0504 22.161 59.5702 21.4291 58.962 20.8111C58.3772 20.2302 57.6849 19.7686 56.9237 19.4522C56.157 19.1256 55.3316 18.9591 54.4982 18.963C53.669 18.9601 52.8474 19.1194 52.0794 19.4318C51.3132 19.7387 50.6191 20.2014 50.0411 20.7907C49.7198 21.1141 49.435 21.4718 49.1918 21.8574C48.9134 22.3017 48.6855 22.7757 48.5123 23.2706V25.8253C48.512 26.507 48.4666 27.1879 48.3764 27.8636C48.2321 28.9221 47.9559 29.9583 47.5543 30.9482C46.9588 32.4586 46.0619 33.8318 44.9181 34.9841C44.0897 35.8119 43.1415 36.5105 42.1053 37.0564C41.7158 37.2696 41.3142 37.4602 40.9027 37.6271C37.6122 38.8956 33.9677 38.8956 30.6772 37.6271C29.1781 37.0222 27.8151 36.1236 26.6685 34.9841C25.5226 33.8322 24.6234 32.459 24.0255 30.9482C22.7571 27.6413 22.7571 23.9821 24.0255 20.6752C24.6267 19.1661 25.5256 17.7936 26.6685 16.6393C27.817 15.5021 29.1795 14.6038 30.6772 13.9963C33.9577 12.7372 37.5882 12.7372 40.8687 13.9963V21.6128C40.6709 21.3163 40.4432 21.0408 40.1893 20.7907C39.6113 20.2014 38.9172 19.7387 38.151 19.4318C37.3988 19.1221 36.5932 18.9628 35.7797 18.963C34.957 18.9576 34.1415 19.117 33.3813 19.4318C32.6276 19.7435 31.9456 20.2059 31.377 20.7907C30.7702 21.4031 30.2961 22.134 29.9842 22.9377C29.2955 24.8012 29.2955 26.8494 29.9842 28.7129C30.296 29.5187 30.7701 30.2518 31.377 30.8667C32.5498 32.0351 34.1379 32.6911 35.7933 32.6911C37.4488 32.6911 39.0368 32.0351 40.2097 30.8667C40.8144 30.25 41.2881 29.5174 41.6025 28.7129C41.8863 27.992 42.0537 27.2306 42.0985 26.4572V5.91108C42.0985 5.06235 42.4356 4.24838 43.0358 3.64824C43.6359 3.0481 44.4499 2.71094 45.2986 2.71094C46.1473 2.71094 46.9613 3.0481 47.5614 3.64824C48.1616 4.24838 48.4988 5.06235 48.4988 5.91108V16.6529C49.162 15.565 50.0991 14.67 51.2165 14.0575C52.6284 13.3006 54.2152 12.9303 55.8163 12.984C57.3264 12.9807 58.8193 13.3053 60.1918 13.9352C61.5735 14.5719 62.8192 15.4693 63.8608 16.5782C64.95 17.7509 65.8055 19.1207 66.3815 20.614C67.0065 22.2534 67.3154 23.9963 67.2919 25.7506Z" fill="white"/>
<path d="M10.4705 38.8334C7.86846 38.8846 5.31918 38.096 3.20056 36.5844C2.16507 35.8361 1.26444 34.9171 0.537176 33.8667C0.271787 33.4657 0.0991494 33.0106 0.0318402 32.5345C-0.035469 32.0583 0.00424419 31.5732 0.148079 31.1144C0.291913 30.6555 0.536251 30.2345 0.863311 29.882C1.19037 29.5296 1.59192 29.2544 2.03872 29.0767C2.74749 28.797 3.53097 28.7699 4.25734 29.0001C4.98371 29.2303 5.60865 29.7036 6.02701 30.3404C6.29784 30.7368 6.62256 31.0936 6.9918 31.4004C7.97247 32.1974 9.20737 32.6147 10.4705 32.5758C11.1369 32.6129 11.8032 32.5004 12.4204 32.2465C13.0377 31.9925 13.5902 31.6036 14.0375 31.1082C14.9495 29.9395 15.4015 28.4771 15.3081 26.9976V6.30205C15.3099 5.42684 15.6583 4.58799 16.2772 3.96913C16.8961 3.35026 17.7349 3.0018 18.6101 3C19.4859 3 20.3258 3.34789 20.945 3.96715C21.5643 4.5864 21.9122 5.42629 21.9122 6.30205V26.9229C21.9478 28.6864 21.6409 30.44 21.0085 32.0866C20.4617 33.4826 19.6285 34.7487 18.5626 35.8031C17.5307 36.8038 16.2956 37.5708 14.9412 38.052C13.5091 38.5757 11.9953 38.8403 10.4705 38.8334Z" fill="white"/>
<path d="M110.544 34.2266C110.365 35.2499 109.939 36.2142 109.304 37.0365C108.63 37.9068 107.784 38.6289 106.819 39.1579C105.738 39.7469 104.559 40.1351 103.34 40.3037C101.933 40.5043 100.503 40.4713 99.1069 40.2059C97.7074 39.9809 96.3515 39.5393 95.0878 38.897C94.0327 38.3598 93.0665 37.6636 92.223 36.8327C91.9034 36.4976 91.6142 36.1349 91.3586 35.7489L91.1129 35.3813C90.667 34.7064 90.5068 33.8823 90.6673 33.0894C90.8278 32.2966 91.2959 31.5997 91.9691 31.1513C92.2192 30.988 92.4902 30.8595 92.7748 30.769L93.0558 30.7013C93.6513 30.5835 94.2683 30.6448 94.829 30.8775C95.3896 31.1102 95.8688 31.5039 96.2058 32.0087L96.37 32.2516C96.3737 32.2728 96.385 32.292 96.4019 32.3055L96.5771 32.564C96.7603 32.8085 96.9649 33.0362 97.1884 33.2445C97.9947 33.9945 99.0033 34.4914 100.089 34.6736C101.036 34.8924 102.024 34.8421 102.944 34.5283C103.255 34.4436 103.537 34.2772 103.762 34.0463C103.988 33.8155 104.147 33.5287 104.224 33.2155C104.281 32.9052 104.259 32.5853 104.16 32.2856C104.061 31.9859 103.888 31.7161 103.657 31.5012C102.851 30.81 101.927 30.2687 100.931 29.9028L97.7124 28.5902C96.9562 28.2748 96.2347 27.8817 95.5597 27.4173C94.847 26.9379 94.2057 26.3602 93.6545 25.7015C93.1034 25.0337 92.6814 24.2691 92.4101 23.4468C92.1291 22.545 92.0774 21.5874 92.2597 20.6606C92.4288 19.5822 92.8718 18.5653 93.5463 17.707C94.2131 16.8936 95.0496 16.2358 95.9973 15.7797C97.0401 15.2864 98.1613 14.9797 99.31 14.8736C100.603 14.7463 101.908 14.7999 103.187 15.0328C105.277 15.3676 107.259 16.1898 108.973 17.4329C109.351 17.7167 109.68 18.0614 109.945 18.4529L110.072 18.6339C110.503 19.2306 110.692 19.9685 110.6 20.6988C110.508 21.4291 110.143 22.0974 109.578 22.5691C109.275 22.8119 108.926 22.9899 108.551 23.092C108.177 23.1941 107.785 23.2182 107.401 23.1628C107.017 23.1073 106.648 22.9735 106.318 22.7697C105.988 22.5658 105.703 22.2962 105.481 21.9777C105.252 21.6975 104.988 21.449 104.694 21.2387C103.955 20.6942 103.103 20.3245 102.2 20.1574C101.385 19.993 100.541 20.0389 99.7484 20.2908C99.4409 20.3574 99.1585 20.5097 98.934 20.7302C98.7095 20.9507 98.5521 21.2304 98.4801 21.5367C98.4364 21.8112 98.4708 22.0924 98.5794 22.3482C98.6881 22.6041 98.8665 22.8242 99.0943 22.9834C99.7509 23.494 100.468 23.9217 101.229 24.2568L104.69 25.757C106.996 26.7661 108.618 28.0041 109.555 29.471C110.484 30.8699 110.838 32.5731 110.544 34.2266Z" fill="white"/>
<path d="M90.872 28.4854C90.6555 29.8357 90.1486 31.123 89.3862 32.2583C88.6238 33.3936 87.6241 34.35 86.4561 35.0613C85.2274 35.8026 83.8653 36.2961 82.4469 36.5138C80.8489 36.7622 79.2202 36.7363 77.6309 36.4373C76.3186 36.2091 75.0441 35.8009 73.8433 35.2244C72.6899 34.6659 71.6395 33.9162 70.7364 33.007C69.9996 32.2682 69.3694 31.4303 68.8642 30.5174C68.7345 30.2876 68.6105 30.0518 68.4921 29.8102C68.3745 29.5682 68.2709 29.3195 68.1819 29.0656C67.9833 28.299 68.0663 27.4867 68.4157 26.7761C68.765 26.0655 69.3576 25.5037 70.0859 25.1928L70.3819 25.0794L71.0187 24.9502C71.6095 24.8862 72.2067 24.9829 72.7472 25.23C73.2876 25.4771 73.7515 25.8654 74.0896 26.3541C74.2182 26.5398 74.3289 26.7372 74.4203 26.9437L74.8542 27.9654C74.9536 28.1074 75.0609 28.2437 75.1754 28.3739C75.8771 29.1108 76.745 29.6689 77.7065 30.0017C78.6681 30.3345 79.6953 30.4322 80.7024 30.2867C81.3176 30.1991 81.9097 29.9917 82.4451 29.6764C82.9597 29.373 83.4101 28.972 83.7709 28.4959C84.1503 27.9852 84.3998 27.3898 84.4977 26.7612C84.6409 26.1237 84.6269 25.4609 84.4569 24.8299C84.2869 24.199 83.966 23.6189 83.5219 23.1396C82.6109 22.2152 81.443 21.5861 80.1698 21.3343L79.4204 21.2021C78.7144 21.0268 78.0926 20.6087 77.6639 20.021C77.2352 19.4333 77.027 18.7135 77.0758 17.9877L77.1277 17.6932C77.3368 16.9792 77.7942 16.3635 78.4175 15.9572C79.0407 15.551 79.7887 15.3809 80.5264 15.4777L80.6937 15.5072C81.1715 15.5587 81.6532 15.5651 82.1322 15.5263C82.7365 15.4812 83.3274 15.3259 83.8757 15.0679C84.4106 14.8019 84.8728 14.4099 85.2224 13.9255C85.6063 13.3989 85.8583 12.7881 85.9574 12.144C86.0625 11.643 86.0556 11.125 85.9371 10.627C85.8185 10.129 85.5913 9.66338 85.2718 9.26348C84.5262 8.37877 83.4721 7.81062 82.3232 7.6742C81.74 7.53049 81.1338 7.50579 80.5408 7.60156C79.9478 7.69733 79.3802 7.91161 78.8719 8.2316C78.7617 8.30876 78.6515 8.38591 78.5468 8.47094L78.0451 8.85162C77.3922 9.34764 76.569 9.564 75.7567 9.4531C74.9443 9.3422 74.2092 8.91313 73.7132 8.26026C73.2172 7.6074 73.0008 6.78423 73.1117 5.97185C73.2226 5.15946 73.6517 4.4244 74.3045 3.92837L74.8929 3.48709C74.9844 3.42186 75.0801 3.36268 75.1794 3.30993C75.3896 3.17451 75.6119 3.04814 75.8331 2.92846C76.9009 2.37401 78.0487 1.9898 79.2351 1.78973C80.6317 1.56045 82.0577 1.57837 83.448 1.84267C84.9171 2.08263 86.3358 2.56597 87.6458 3.27277C88.794 3.89659 89.8171 4.72721 90.6634 5.72281C91.4437 6.64746 92.0153 7.72956 92.3393 8.89527C92.6641 10.0776 92.7166 11.3182 92.4929 12.5237C92.3497 13.4068 92.0731 14.2629 91.6727 15.0629C91.3259 15.7547 90.8878 16.3968 90.3702 16.9719C89.8998 17.4916 89.356 17.9396 88.7559 18.3017C88.2236 18.6269 87.6521 18.8831 87.0553 19.0643L86.9751 19.5193C88.3994 20.3866 89.549 21.6394 90.2911 23.1327C91.0655 24.8053 91.2696 26.6857 90.872 28.4854Z" fill="#FF9900"/>
</svg>
