<svg width="116" height="42" viewBox="0 0 116 42" fill="none" xmlns="http://www.w3.org/2000/svg">
<path d="M67.2919 25.7535C67.3103 27.5092 66.9944 29.2524 66.3611 30.89C65.7883 32.3849 64.9325 33.7553 63.8404 34.9258C62.776 36.0728 61.4942 36.9966 60.0695 37.6436C58.6514 38.2684 57.1142 38.5768 55.5649 38.5472C54.041 38.5673 52.5372 38.1978 51.1961 37.4737C50.0774 36.863 49.1399 35.9677 48.4784 34.8783H48.0843V36.7467C48.0843 37.017 47.9769 37.2763 47.7858 37.4674C47.5947 37.6585 47.3354 37.7659 47.0651 37.7659H43.2671C44.17 37.2214 45.0047 36.5714 45.7538 35.8295C47.0066 34.5664 47.9891 33.0615 48.6414 31.4064C48.8604 30.8662 49.0442 30.3124 49.1918 29.7486C49.4327 30.1378 49.7177 30.498 50.0411 30.8221C50.6228 31.4067 51.3159 31.8688 52.0794 32.1809C52.8478 32.4911 53.6695 32.648 54.4982 32.6429C55.3316 32.6469 56.157 32.4804 56.9237 32.1538C57.6838 31.8354 58.3758 31.3741 58.962 30.7949C59.5687 30.1757 60.0487 29.4441 60.3753 28.6411C61.1003 26.8195 61.1003 24.7894 60.3753 22.9678C60.0504 22.1639 59.5702 21.432 58.962 20.814C58.3772 20.2331 57.6849 19.7716 56.9237 19.4551C56.157 19.1285 55.3316 18.962 54.4982 18.9659C53.669 18.963 52.8474 19.1223 52.0794 19.4347C51.3132 19.7416 50.6191 20.2044 50.0411 20.7936C49.7198 21.117 49.435 21.4748 49.1918 21.8603C48.9134 22.3046 48.6855 22.7786 48.5123 23.2736V25.8282C48.512 26.5099 48.4666 27.1908 48.3764 27.8665C48.2321 28.925 47.9559 29.9612 47.5543 30.9512C46.9588 32.4615 46.0619 33.8347 44.9181 34.987C44.0897 35.8149 43.1415 36.5135 42.1053 37.0593C41.7158 37.2726 41.3142 37.4631 40.9027 37.63C37.6122 38.8985 33.9677 38.8985 30.6772 37.63C29.1781 37.0251 27.8151 36.1265 26.6685 34.987C25.5226 33.8351 24.6234 32.4619 24.0255 30.9512C22.7571 27.6443 22.7571 23.985 24.0255 20.6781C24.6267 19.1691 25.5256 17.7965 26.6685 16.6423C27.817 15.505 29.1795 14.6067 30.6772 13.9993C33.9577 12.7401 37.5882 12.7401 40.8687 13.9993V21.6157C40.6709 21.3192 40.4432 21.0438 40.1893 20.7936C39.6113 20.2044 38.9172 19.7416 38.151 19.4347C37.3988 19.125 36.5932 18.9657 35.7797 18.9659C34.957 18.9605 34.1415 19.1199 33.3813 19.4347C32.6276 19.7464 31.9456 20.2088 31.377 20.7936C30.7702 21.4061 30.2961 22.1369 29.9842 22.9406C29.2955 24.8041 29.2955 26.8523 29.9842 28.7158C30.296 29.5216 30.7701 30.2547 31.377 30.8696C32.5498 32.038 34.1379 32.694 35.7933 32.694C37.4488 32.694 39.0368 32.038 40.2097 30.8696C40.8144 30.2529 41.2881 29.5203 41.6025 28.7158C41.8863 27.9949 42.0537 27.2335 42.0985 26.4601V5.91401C42.0985 5.06528 42.4356 4.25131 43.0358 3.65117C43.6359 3.05103 44.4499 2.71387 45.2986 2.71387C46.1473 2.71387 46.9613 3.05103 47.5614 3.65117C48.1616 4.25131 48.4988 5.06528 48.4988 5.91401V16.6559C49.162 15.5679 50.0991 14.673 51.2165 14.0604C52.6284 13.3036 54.2152 12.9332 55.8163 12.9869C57.3264 12.9837 58.8193 13.3082 60.1918 13.9381C61.5735 14.5749 62.8192 15.4723 63.8608 16.5811C64.95 17.7538 65.8055 19.1236 66.3815 20.617C67.0065 22.2563 67.3154 23.9992 67.2919 25.7535Z" fill="white"/>
<path d="M10.4705 38.5189C7.86846 38.5701 5.31918 37.7815 3.20056 36.27C2.16507 35.5217 1.26444 34.6026 0.537176 33.5523C0.271787 33.1513 0.0991494 32.6961 0.0318402 32.22C-0.035469 31.7439 0.00424419 31.2588 0.148079 30.7999C0.291913 30.3411 0.536251 29.9201 0.863311 29.5676C1.19037 29.2151 1.59192 28.94 2.03872 28.7622C2.74749 28.4825 3.53097 28.4555 4.25734 28.6857C4.98371 28.9158 5.60865 29.3891 6.02701 30.026C6.29784 30.4224 6.62256 30.7791 6.9918 31.0859C7.97247 31.883 9.20737 32.3002 10.4705 32.2613C11.1369 32.2985 11.8032 32.186 12.4204 31.932C13.0377 31.6781 13.5902 31.2891 14.0375 30.7937C14.9495 29.625 15.4015 28.1626 15.3081 26.6832V5.9876C15.3099 5.11239 15.6583 4.27354 16.2772 3.65468C16.8961 3.03581 17.7349 2.68734 18.6101 2.68555C19.4859 2.68555 20.3258 3.03344 20.945 3.6527C21.5643 4.27195 21.9122 5.11184 21.9122 5.9876V26.6084C21.9478 28.3719 21.6409 30.1255 21.0085 31.7721C20.4617 33.1682 19.6285 34.4342 18.5626 35.4886C17.5307 36.4893 16.2956 37.2563 14.9412 37.7376C13.5091 38.2612 11.9953 38.5258 10.4705 38.5189Z" fill="white"/>
<path d="M110.544 34.2236C110.365 35.2469 109.939 36.2113 109.304 37.0336C108.63 37.9038 107.784 38.626 106.819 39.155C105.738 39.7439 104.559 40.1321 103.34 40.3008C101.933 40.5014 100.503 40.4683 99.1069 40.203C97.7074 39.9779 96.3515 39.5364 95.0878 38.8941C94.0327 38.3569 93.0665 37.6606 92.223 36.8298C91.9034 36.4947 91.6142 36.132 91.3586 35.7459L91.1129 35.3784C90.667 34.7034 90.5068 33.8793 90.6673 33.0865C90.8278 32.2937 91.2959 31.5968 91.9691 31.1484C92.2192 30.9851 92.4902 30.8565 92.7748 30.7661L93.0558 30.6984C93.6513 30.5806 94.2683 30.6419 94.829 30.8746C95.3896 31.1073 95.8688 31.501 96.2058 32.0058L96.37 32.2486C96.3737 32.2699 96.385 32.2891 96.4019 32.3025L96.5771 32.5611C96.7603 32.8056 96.9649 33.0333 97.1884 33.2415C97.9947 33.9915 99.0033 34.4885 100.089 34.6706C101.036 34.8895 102.024 34.8392 102.944 34.5254C103.255 34.4407 103.537 34.2742 103.762 34.0434C103.988 33.8126 104.147 33.5257 104.224 33.2126C104.281 32.9022 104.259 32.5824 104.16 32.2827C104.061 31.983 103.888 31.7132 103.657 31.4982C102.851 30.8071 101.927 30.2658 100.931 29.8999L97.7124 28.5873C96.9562 28.2718 96.2347 27.8787 95.5597 27.4143C94.847 26.9349 94.2057 26.3573 93.6545 25.6986C93.1034 25.0307 92.6814 24.2661 92.4101 23.4439C92.1291 22.5421 92.0774 21.5845 92.2597 20.6577C92.4288 19.5793 92.8718 18.5623 93.5463 17.7041C94.2131 16.8907 95.0496 16.2329 95.9973 15.7767C97.0401 15.2835 98.1613 14.9768 99.31 14.8706C100.603 14.7434 101.908 14.797 103.187 15.0299C105.277 15.3647 107.259 16.1869 108.973 17.43C109.351 17.7137 109.68 18.0584 109.945 18.45L110.072 18.631C110.503 19.2277 110.692 19.9655 110.6 20.6958C110.508 21.4261 110.143 22.0945 109.578 22.5662C109.275 22.809 108.926 22.987 108.551 23.0891C108.177 23.1912 107.785 23.2153 107.401 23.1599C107.017 23.1044 106.648 22.9706 106.318 22.7667C105.988 22.5629 105.703 22.2933 105.481 21.9748C105.252 21.6946 104.988 21.4461 104.694 21.2357C103.955 20.6913 103.103 20.3216 102.2 20.1545C101.385 19.9901 100.541 20.036 99.7484 20.2879C99.4409 20.3544 99.1585 20.5068 98.934 20.7273C98.7095 20.9478 98.5521 21.2274 98.4801 21.5338C98.4364 21.8082 98.4708 22.0895 98.5794 22.3453C98.6881 22.6011 98.8665 22.8213 99.0943 22.9805C99.7509 23.4911 100.468 23.9188 101.229 24.2538L104.69 25.7541C106.996 26.7632 108.618 28.0012 109.555 29.4681C110.484 30.867 110.838 32.5702 110.544 34.2236Z" fill="white"/>
<path d="M90.872 28.4854C90.6555 29.8357 90.1486 31.123 89.3862 32.2583C88.6238 33.3936 87.6241 34.35 86.4561 35.0613C85.2274 35.8026 83.8653 36.2961 82.4469 36.5138C80.8489 36.7622 79.2202 36.7363 77.6309 36.4373C76.3186 36.2091 75.0441 35.8009 73.8433 35.2244C72.6899 34.6659 71.6395 33.9162 70.7364 33.007C69.9996 32.2682 69.3694 31.4303 68.8642 30.5174C68.7345 30.2876 68.6105 30.0518 68.4921 29.8102C68.3745 29.5682 68.2709 29.3195 68.1819 29.0656C67.9833 28.299 68.0663 27.4867 68.4157 26.7761C68.765 26.0655 69.3576 25.5037 70.0859 25.1928L70.3819 25.0794L71.0187 24.9502C71.6095 24.8862 72.2067 24.9829 72.7472 25.23C73.2876 25.4771 73.7515 25.8654 74.0896 26.3541C74.2182 26.5398 74.3289 26.7372 74.4203 26.9437L74.8542 27.9654C74.9536 28.1074 75.0609 28.2437 75.1754 28.3739C75.8771 29.1108 76.745 29.6689 77.7065 30.0017C78.6681 30.3345 79.6953 30.4322 80.7024 30.2867C81.3176 30.1991 81.9097 29.9917 82.4451 29.6764C82.9597 29.373 83.4101 28.972 83.7709 28.4959C84.1503 27.9852 84.3998 27.3898 84.4977 26.7612C84.6409 26.1237 84.6269 25.4609 84.4569 24.8299C84.2869 24.199 83.966 23.6189 83.5219 23.1396C82.6109 22.2152 81.443 21.5861 80.1698 21.3343L79.4204 21.2021C78.7144 21.0268 78.0926 20.6087 77.6639 20.021C77.2352 19.4333 77.027 18.7135 77.0758 17.9877L77.1277 17.6932C77.3368 16.9792 77.7942 16.3635 78.4175 15.9572C79.0407 15.551 79.7887 15.3809 80.5264 15.4777L80.6937 15.5072C81.1715 15.5587 81.6532 15.5651 82.1322 15.5263C82.7365 15.4812 83.3274 15.3259 83.8757 15.0679C84.4106 14.8019 84.8728 14.4099 85.2224 13.9255C85.6063 13.3989 85.8583 12.7881 85.9574 12.144C86.0625 11.643 86.0556 11.125 85.9371 10.627C85.8185 10.129 85.5913 9.66338 85.2718 9.26348C84.5262 8.37877 83.4721 7.81062 82.3232 7.6742C81.74 7.53049 81.1338 7.50579 80.5408 7.60156C79.9478 7.69733 79.3802 7.91161 78.8719 8.2316C78.7617 8.30876 78.6515 8.38591 78.5468 8.47094L78.0451 8.85162C77.3922 9.34764 76.569 9.564 75.7567 9.4531C74.9443 9.3422 74.2092 8.91313 73.7132 8.26026C73.2172 7.6074 73.0008 6.78423 73.1117 5.97185C73.2226 5.15946 73.6517 4.4244 74.3045 3.92837L74.8929 3.48709C74.9844 3.42186 75.0801 3.36268 75.1794 3.30993C75.3896 3.17451 75.6119 3.04814 75.8331 2.92846C76.9009 2.37401 78.0487 1.9898 79.2351 1.78973C80.6317 1.56045 82.0577 1.57837 83.448 1.84267C84.9171 2.08263 86.3358 2.56597 87.6458 3.27277C88.794 3.89659 89.8171 4.72721 90.6634 5.72281C91.4437 6.64746 92.0153 7.72956 92.3393 8.89527C92.6641 10.0776 92.7166 11.3182 92.4929 12.5237C92.3497 13.4068 92.0731 14.2629 91.6727 15.0629C91.3259 15.7547 90.8878 16.3968 90.3702 16.9719C89.8998 17.4916 89.356 17.9396 88.7559 18.3017C88.2236 18.6269 87.6521 18.8831 87.0553 19.0643L86.9751 19.5193C88.3994 20.3866 89.549 21.6394 90.2911 23.1327C91.0655 24.8053 91.2696 26.6857 90.872 28.4854Z" fill="white"/>
</svg>
