<svg width="116" height="42" viewBox="0 0 116 42" fill="none" xmlns="http://www.w3.org/2000/svg">
<path d="M67.2919 25.753C67.3103 27.5087 66.9944 29.2519 66.3611 30.8895C65.7883 32.3845 64.9325 33.7548 63.8404 34.9254C62.776 36.0723 61.4942 36.9961 60.0695 37.6431C58.6514 38.2679 57.1142 38.5763 55.5649 38.5468C54.041 38.5668 52.5372 38.1973 51.1961 37.4732C50.0774 36.8625 49.1399 35.9672 48.4784 34.8778H48.0843V36.7462C48.0843 37.0165 47.9769 37.2758 47.7858 37.4669C47.5947 37.658 47.3354 37.7654 47.0651 37.7654H43.2671C44.17 37.221 45.0047 36.5709 45.7538 35.829C47.0066 34.5659 47.9891 33.061 48.6414 31.4059C48.8604 30.8657 49.0442 30.3119 49.1918 29.7481C49.4327 30.1373 49.7177 30.4975 50.0411 30.8216C50.6228 31.4062 51.3159 31.8683 52.0794 32.1804C52.8478 32.4906 53.6695 32.6475 54.4982 32.6425C55.3316 32.6464 56.157 32.4799 56.9237 32.1533C57.6838 31.8349 58.3758 31.3736 58.962 30.7944C59.5687 30.1752 60.0487 29.4436 60.3753 28.6406C61.1003 26.819 61.1003 24.7889 60.3753 22.9673C60.0504 22.1634 59.5702 21.4315 58.962 20.8135C58.3772 20.2326 57.6849 19.7711 56.9237 19.4546C56.157 19.128 55.3316 18.9615 54.4982 18.9655C53.669 18.9626 52.8474 19.1218 52.0794 19.4343C51.3132 19.7412 50.6191 20.2039 50.0411 20.7931C49.7198 21.1166 49.435 21.4743 49.1918 21.8598C48.9134 22.3041 48.6855 22.7782 48.5123 23.2731V25.8277C48.512 26.5094 48.4666 27.1903 48.3764 27.866C48.2321 28.9245 47.9559 29.9608 47.5543 30.9507C46.9588 32.461 46.0619 33.8342 44.9181 34.9865C44.0897 35.8144 43.1415 36.513 42.1053 37.0588C41.7158 37.2721 41.3142 37.4626 40.9027 37.6295C37.6122 38.898 33.9677 38.898 30.6772 37.6295C29.1781 37.0246 27.8151 36.126 26.6685 34.9865C25.5226 33.8346 24.6234 32.4615 24.0255 30.9507C22.7571 27.6438 22.7571 23.9845 24.0255 20.6776C24.6267 19.1686 25.5256 17.796 26.6685 16.6418C27.817 15.5046 29.1795 14.6062 30.6772 13.9988C33.9577 12.7396 37.5882 12.7396 40.8687 13.9988V21.6152C40.6709 21.3187 40.4432 21.0433 40.1893 20.7931C39.6113 20.2039 38.9172 19.7412 38.151 19.4343C37.3988 19.1245 36.5932 18.9653 35.7797 18.9655C34.957 18.96 34.1415 19.1194 33.3813 19.4343C32.6276 19.7459 31.9456 20.2083 31.377 20.7931C30.7702 21.4056 30.2961 22.1364 29.9842 22.9401C29.2955 24.8036 29.2955 26.8519 29.9842 28.7153C30.296 29.5211 30.7701 30.2542 31.377 30.8691C32.5498 32.0375 34.1379 32.6935 35.7933 32.6935C37.4488 32.6935 39.0368 32.0375 40.2097 30.8691C40.8144 30.2524 41.2881 29.5198 41.6025 28.7153C41.8863 27.9945 42.0537 27.2331 42.0985 26.4596V26.4596V5.91352C42.0985 5.06479 42.4356 4.25082 43.0358 3.65068C43.6359 3.05054 44.4499 2.71338 45.2986 2.71338V2.71338C46.1473 2.71338 46.9613 3.05054 47.5614 3.65068C48.1616 4.25082 48.4988 5.06479 48.4988 5.91352V16.6554C49.162 15.5674 50.0991 14.6725 51.2165 14.0599C52.6284 13.3031 54.2152 12.9327 55.8163 12.9864C57.3264 12.9832 58.8193 13.3077 60.1918 13.9376C61.5735 14.5744 62.8192 15.4718 63.8608 16.5806C64.95 17.7534 65.8055 19.1231 66.3815 20.6165C67.0065 22.2558 67.3154 23.9987 67.2919 25.753Z" fill="#007580"/>
<path d="M10.4705 38.5194C7.86846 38.5706 5.31918 37.782 3.20056 36.2705C2.16507 35.5221 1.26444 34.6031 0.537176 33.5527C0.271787 33.1518 0.0991494 32.6966 0.0318402 32.2205C-0.035469 31.7444 0.00424419 31.2592 0.148079 30.8004C0.291913 30.3416 0.536251 29.9206 0.863311 29.5681C1.19037 29.2156 1.59192 28.9405 2.03872 28.7627V28.7627C2.74749 28.483 3.53097 28.456 4.25734 28.6861C4.98371 28.9163 5.60865 29.3896 6.02701 30.0265C6.29784 30.4229 6.62256 30.7796 6.9918 31.0864C7.97247 31.8834 9.20737 32.3007 10.4705 32.2618C11.1369 32.299 11.8032 32.1864 12.4204 31.9325C13.0377 31.6785 13.5902 31.2896 14.0375 30.7942C14.9495 29.6255 15.4015 28.1631 15.3081 26.6837V5.98809C15.3099 5.11288 15.6583 4.27403 16.2772 3.65516C16.8961 3.0363 17.7349 2.68783 18.6101 2.68604V2.68604C19.4859 2.68604 20.3258 3.03393 20.945 3.65318C21.5643 4.27244 21.9122 5.11233 21.9122 5.98809V26.6089C21.9478 28.3724 21.6409 30.126 21.0085 31.7726C20.4617 33.1687 19.6285 34.4347 18.5626 35.4891C17.5307 36.4898 16.2956 37.2568 14.9412 37.7381C13.5091 38.2617 11.9953 38.5263 10.4705 38.5194V38.5194Z" fill="#007580"/>
<path d="M110.544 34.2241C110.365 35.2474 109.939 36.2118 109.304 37.0341C108.63 37.9043 107.784 38.6265 106.819 39.1555C105.738 39.7444 104.559 40.1326 103.34 40.3013C101.933 40.5019 100.503 40.4688 99.1069 40.2035C97.7074 39.9784 96.3515 39.5368 95.0878 38.8946C94.0327 38.3574 93.0665 37.6611 92.223 36.8302C91.9034 36.4952 91.6142 36.1325 91.3586 35.7464L91.1129 35.3789C90.667 34.7039 90.5068 33.8798 90.6673 33.087C90.8278 32.2942 91.2959 31.5973 91.9691 31.1489C92.2192 30.9856 92.4902 30.857 92.7748 30.7666L93.0558 30.6989C93.6513 30.5811 94.2683 30.6424 94.829 30.8751C95.3896 31.1078 95.8688 31.5014 96.2058 32.0063L96.37 32.2491C96.3737 32.2704 96.385 32.2896 96.4019 32.303L96.5771 32.5616C96.7603 32.8061 96.9649 33.0338 97.1884 33.242C97.9947 33.992 99.0033 34.4889 100.089 34.6711C101.036 34.89 102.024 34.8397 102.944 34.5259C103.255 34.4411 103.537 34.2747 103.762 34.0439C103.988 33.8131 104.147 33.5262 104.224 33.2131C104.281 32.9027 104.259 32.5829 104.16 32.2832C104.061 31.9835 103.888 31.7137 103.657 31.4987C102.851 30.8076 101.927 30.2663 100.931 29.9004L97.7124 28.5878C96.9562 28.2723 96.2347 27.8792 95.5597 27.4148C94.847 26.9354 94.2057 26.3578 93.6545 25.6991C93.1034 25.0312 92.6814 24.2666 92.4101 23.4444C92.1291 22.5426 92.0774 21.585 92.2597 20.6582C92.4288 19.5798 92.8718 18.5628 93.5463 17.7046C94.2131 16.8912 95.0496 16.2334 95.9973 15.7772C97.0401 15.284 98.1613 14.9773 99.31 14.8711C100.603 14.7439 101.908 14.7975 103.187 15.0304C105.277 15.3652 107.259 16.1874 108.973 17.4304C109.351 17.7142 109.68 18.0589 109.945 18.4505L110.072 18.6315C110.503 19.2282 110.692 19.966 110.6 20.6963C110.508 21.4266 110.143 22.095 109.578 22.5666C109.275 22.8095 108.926 22.9874 108.551 23.0896C108.177 23.1917 107.785 23.2158 107.401 23.1603C107.017 23.1049 106.648 22.9711 106.318 22.7672C105.988 22.5634 105.703 22.2938 105.481 21.9753C105.252 21.6951 104.988 21.4466 104.694 21.2362C103.955 20.6917 103.103 20.322 102.2 20.155C101.385 19.9906 100.541 20.0365 99.7484 20.2884C99.4409 20.3549 99.1585 20.5073 98.934 20.7278C98.7095 20.9483 98.5521 21.2279 98.4801 21.5342C98.4364 21.8087 98.4708 22.09 98.5794 22.3458C98.6881 22.6016 98.8665 22.8217 99.0943 22.981C99.7509 23.4916 100.468 23.9193 101.229 24.2543L104.69 25.7546C106.996 26.7637 108.618 28.0017 109.555 29.4686C110.484 30.8675 110.838 32.5706 110.544 34.2241Z" fill="#007580"/>
<path d="M90.872 28.4854C90.6555 29.8357 90.1486 31.123 89.3862 32.2583C88.6238 33.3936 87.6241 34.35 86.4561 35.0613C85.2274 35.8026 83.8653 36.2961 82.4469 36.5138C80.8489 36.7622 79.2202 36.7363 77.6309 36.4373C76.3186 36.2091 75.0441 35.8009 73.8433 35.2244C72.6899 34.6659 71.6395 33.9162 70.7364 33.007C69.9996 32.2682 69.3694 31.4303 68.8642 30.5174C68.7345 30.2876 68.6105 30.0518 68.4921 29.8102C68.3745 29.5682 68.2709 29.3195 68.1819 29.0656V29.0656C67.9834 28.299 68.0663 27.4867 68.4157 26.7761C68.765 26.0655 69.3576 25.5037 70.0859 25.1928L70.3819 25.0794L71.0187 24.9502C71.6095 24.8862 72.2067 24.9829 72.7472 25.23C73.2876 25.4771 73.7514 25.8654 74.0896 26.3541C74.2182 26.5398 74.3289 26.7372 74.4203 26.9437L74.8542 27.9654C74.9536 28.1074 75.0609 28.2437 75.1754 28.3739C75.8771 29.1108 76.745 29.6689 77.7065 30.0017C78.6681 30.3345 79.6953 30.4322 80.7024 30.2867C81.3176 30.1991 81.9097 29.9917 82.4451 29.6764C82.9597 29.373 83.4101 28.972 83.7709 28.4959C84.1503 27.9852 84.3998 27.3898 84.4977 26.7612C84.6409 26.1237 84.6269 25.4609 84.4569 24.8299C84.2869 24.199 83.966 23.6189 83.5219 23.1396C82.6109 22.2152 81.443 21.5861 80.1698 21.3343L79.4204 21.2021C78.7144 21.0268 78.0926 20.6087 77.6639 20.021C77.2352 19.4333 77.027 18.7135 77.0758 17.9877L77.1277 17.6932C77.3368 16.9792 77.7942 16.3635 78.4175 15.9572C79.0407 15.551 79.7887 15.3809 80.5264 15.4777L80.6937 15.5072C81.1715 15.5587 81.6532 15.5651 82.1322 15.5263C82.7365 15.4812 83.3274 15.3259 83.8757 15.0679C84.4106 14.8019 84.8728 14.4099 85.2224 13.9255C85.6063 13.3989 85.8583 12.7881 85.9574 12.144C86.0625 11.643 86.0556 11.125 85.9371 10.627C85.8185 10.129 85.5913 9.66338 85.2718 9.26348C84.5262 8.37877 83.4721 7.81062 82.3232 7.6742C81.74 7.53049 81.1338 7.50579 80.5408 7.60156C79.9478 7.69733 79.3802 7.91161 78.8719 8.2316C78.7617 8.30876 78.6515 8.38591 78.5468 8.47094L78.0451 8.85162C77.3922 9.34764 76.569 9.564 75.7567 9.4531C74.9443 9.3422 74.2092 8.91313 73.7132 8.26026C73.2172 7.6074 73.0008 6.78423 73.1117 5.97185C73.2226 5.15946 73.6517 4.4244 74.3045 3.92837L74.8929 3.48709C74.9844 3.42186 75.0801 3.36268 75.1794 3.30993C75.3896 3.17451 75.6119 3.04814 75.8331 2.92846C76.9009 2.37401 78.0487 1.9898 79.2351 1.78973C80.6317 1.56045 82.0577 1.57837 83.448 1.84267C84.9171 2.08263 86.3358 2.56597 87.6458 3.27277C88.794 3.89659 89.8171 4.72721 90.6634 5.72281C91.4437 6.64746 92.0153 7.72956 92.3393 8.89527C92.6641 10.0776 92.7166 11.3182 92.4929 12.5237C92.3497 13.4068 92.0731 14.2629 91.6727 15.0629C91.3259 15.7547 90.8878 16.3968 90.3702 16.9719C89.8998 17.4916 89.356 17.9396 88.7559 18.3017C88.2236 18.6269 87.6521 18.8831 87.0553 19.0643L86.9751 19.5193C88.3994 20.3866 89.549 21.6394 90.2911 23.1327C91.0655 24.8053 91.2696 26.6857 90.872 28.4854V28.4854Z" fill="#FF9900"/>
</svg>
