<svg width="50" height="50" viewBox="0 0 50 50" fill="none" xmlns="http://www.w3.org/2000/svg">
<path d="M49.5 25C49.5 38.531 38.531 49.5 25 49.5C11.469 49.5 0.5 38.531 0.5 25C0.5 11.469 11.469 0.5 25 0.5C38.531 0.5 49.5 11.469 49.5 25Z" fill="white" stroke="#EEEEEE"/>
<path d="M27.5124 26.7021C27.5172 27.159 27.4349 27.6127 27.2701 28.0389C27.1211 28.428 26.8983 28.7847 26.6141 29.0893C26.337 29.3878 26.0034 29.6283 25.6326 29.7967C25.2635 29.9593 24.8635 30.0396 24.4602 30.0319C24.0636 30.0371 23.6722 29.9409 23.3232 29.7525C23.032 29.5935 22.788 29.3605 22.6158 29.077H22.5132V29.5633C22.5132 29.6336 22.4853 29.7011 22.4356 29.7508C22.3858 29.8006 22.3183 29.8285 22.248 29.8285H21.2595C21.4945 29.6868 21.7117 29.5176 21.9067 29.3245C22.2327 28.9958 22.4885 28.6041 22.6583 28.1733C22.7152 28.0327 22.7631 27.8886 22.8015 27.7419C22.8642 27.8432 22.9384 27.9369 23.0225 28.0213C23.1739 28.1734 23.3543 28.2937 23.553 28.3749C23.753 28.4556 23.9669 28.4965 24.1826 28.4952C24.3995 28.4962 24.6143 28.4529 24.8139 28.3678C25.0117 28.285 25.1918 28.1649 25.3444 28.0142C25.5023 27.853 25.6272 27.6626 25.7122 27.4536C25.9009 26.9795 25.9009 26.4511 25.7122 25.977C25.6277 25.7678 25.5027 25.5773 25.3444 25.4165C25.1922 25.2653 25.012 25.1452 24.8139 25.0628C24.6143 24.9778 24.3995 24.9345 24.1826 24.9355C23.9668 24.9347 23.7529 24.9762 23.553 25.0575C23.3536 25.1374 23.173 25.2578 23.0225 25.4112C22.9389 25.4953 22.8648 25.5884 22.8015 25.6888C22.729 25.8044 22.6697 25.9278 22.6247 26.0566V26.7215C22.6246 26.8989 22.6128 27.0762 22.5893 27.252C22.5517 27.5275 22.4798 27.7972 22.3753 28.0549C22.2203 28.448 21.9869 28.8054 21.6892 29.1053C21.4736 29.3207 21.2268 29.5025 20.9571 29.6446C20.8557 29.7001 20.7512 29.7497 20.6441 29.7931C19.7877 30.1233 18.8391 30.1233 17.9827 29.7931C17.5926 29.6357 17.2378 29.4018 16.9394 29.1053C16.6412 28.8055 16.4071 28.4481 16.2515 28.0549C15.9214 27.1942 15.9214 26.2418 16.2515 25.3811C16.408 24.9883 16.6419 24.6311 16.9394 24.3307C17.2383 24.0347 17.5929 23.8009 17.9827 23.6428C18.8365 23.3151 19.7814 23.3151 20.6353 23.6428V25.6251C20.5838 25.548 20.5245 25.4763 20.4584 25.4112C20.308 25.2578 20.1273 25.1374 19.9279 25.0575C19.7321 24.9769 19.5225 24.9354 19.3108 24.9355C19.0966 24.9341 18.8844 24.9756 18.6865 25.0575C18.4904 25.1386 18.3128 25.259 18.1649 25.4112C18.0069 25.5706 17.8835 25.7608 17.8023 25.97C17.6231 26.455 17.6231 26.9881 17.8023 27.4731C17.8835 27.6828 18.0069 27.8736 18.1649 28.0336C18.4701 28.3377 18.8834 28.5085 19.3143 28.5085C19.7452 28.5085 20.1585 28.3377 20.4637 28.0336C20.6211 27.8731 20.7444 27.6824 20.8262 27.4731C20.9001 27.2854 20.9437 27.0873 20.9553 26.886V21.5385C20.9553 21.3176 21.0431 21.1057 21.1993 20.9495C21.3555 20.7933 21.5673 20.7056 21.7882 20.7056C22.0091 20.7056 22.221 20.7933 22.3772 20.9495C22.5334 21.1057 22.6211 21.3176 22.6211 21.5385V24.3342C22.7937 24.0511 23.0376 23.8181 23.3285 23.6587C23.6959 23.4617 24.1089 23.3653 24.5256 23.3793C24.9187 23.3785 25.3072 23.4629 25.6645 23.6269C26.0241 23.7926 26.3483 24.0262 26.6194 24.3148C26.9029 24.62 27.1255 24.9765 27.2754 25.3652C27.4381 25.7919 27.5185 26.2455 27.5124 26.7021Z" fill="#007580"/>
<path d="M12.7251 30.025C12.0479 30.0384 11.3844 29.8331 10.833 29.4397C10.5635 29.2449 10.3291 29.0058 10.1398 28.7324C10.0707 28.628 10.0258 28.5096 10.0083 28.3856C9.99077 28.2617 10.0011 28.1354 10.0385 28.016C10.076 27.8966 10.1396 27.787 10.2247 27.6953C10.3098 27.6035 10.4143 27.5319 10.5306 27.4857C10.7151 27.4129 10.919 27.4058 11.1081 27.4657C11.2971 27.5257 11.4598 27.6488 11.5686 27.8146C11.6391 27.9178 11.7236 28.0106 11.8197 28.0905C12.075 28.2979 12.3964 28.4065 12.7251 28.3964C12.8986 28.4061 13.072 28.3768 13.2327 28.3107C13.3933 28.2446 13.5371 28.1433 13.6535 28.0144C13.8909 27.7102 14.0085 27.3296 13.9842 26.9446V21.5582C13.9847 21.3304 14.0754 21.112 14.2364 20.951C14.3975 20.7899 14.6158 20.6992 14.8436 20.6987C15.0716 20.6987 15.2902 20.7893 15.4513 20.9504C15.6125 21.1116 15.7031 21.3302 15.7031 21.5582V26.9251C15.7123 27.3841 15.6324 27.8405 15.4679 28.2691C15.3255 28.6324 15.1087 28.9619 14.8313 29.2364C14.5627 29.4968 14.2412 29.6964 13.8887 29.8217C13.516 29.958 13.122 30.0268 12.7251 30.025Z" fill="#007580"/>
<path d="M38.7706 28.9069C38.7238 29.1733 38.613 29.4243 38.4477 29.6383C38.2723 29.8648 38.0521 30.0527 37.8009 30.1904C37.5195 30.3437 37.2127 30.4447 36.8954 30.4886C36.5293 30.5408 36.157 30.5322 35.7937 30.4632C35.4295 30.4046 35.0766 30.2897 34.7477 30.1225C34.4731 29.9827 34.2216 29.8015 34.0021 29.5852C33.9189 29.498 33.8436 29.4036 33.7771 29.3032L33.7132 29.2075C33.5971 29.0318 33.5554 28.8173 33.5972 28.611C33.6389 28.4046 33.7608 28.2233 33.936 28.1066C34.0011 28.0641 34.0716 28.0306 34.1457 28.0071L34.2188 27.9894C34.3738 27.9588 34.5344 27.9747 34.6803 28.0353C34.8263 28.0959 34.951 28.1983 35.0387 28.3297L35.0814 28.3929C35.0824 28.3984 35.0853 28.4034 35.0897 28.4069L35.1353 28.4742C35.183 28.5379 35.2362 28.5971 35.2944 28.6513C35.5043 28.8465 35.7668 28.9759 36.0494 29.0233C36.2957 29.0803 36.5531 29.0672 36.7923 28.9855C36.8733 28.9634 36.9469 28.9201 37.0054 28.86C37.064 28.8 37.1055 28.7253 37.1255 28.6438C37.1404 28.563 37.1347 28.4798 37.1089 28.4018C37.0831 28.3238 37.0381 28.2536 36.9779 28.1976C36.7681 28.0177 36.5278 27.8768 36.2684 27.7816L35.4308 27.44C35.234 27.3579 35.0462 27.2556 34.8705 27.1347C34.685 27.0099 34.5181 26.8596 34.3747 26.6881C34.2312 26.5143 34.1214 26.3153 34.0508 26.1013C33.9776 25.8666 33.9642 25.6174 34.0116 25.3762C34.0557 25.0955 34.171 24.8308 34.3465 24.6074C34.52 24.3957 34.7378 24.2245 34.9844 24.1058C35.2558 23.9774 35.5476 23.8976 35.8466 23.87C36.1832 23.8368 36.5228 23.8508 36.8556 23.9114C37.3997 23.9986 37.9156 24.2125 38.3616 24.5361C38.46 24.6099 38.5456 24.6996 38.6146 24.8016L38.6476 24.8487C38.7598 25.004 38.8089 25.196 38.785 25.3861C38.7612 25.5762 38.6661 25.7501 38.5191 25.8729C38.4403 25.9361 38.3493 25.9824 38.2518 26.009C38.1544 26.0356 38.0525 26.0418 37.9525 26.0274C37.8525 26.013 37.7565 25.9781 37.6705 25.9251C37.5846 25.872 37.5104 25.8019 37.4527 25.7189C37.3932 25.646 37.3243 25.5813 37.2478 25.5266C37.0556 25.3849 36.8337 25.2887 36.5989 25.2452C36.3867 25.2024 36.167 25.2143 35.9607 25.2799C35.8807 25.2972 35.8072 25.3369 35.7487 25.3943C35.6903 25.4517 35.6493 25.5244 35.6306 25.6042C35.6192 25.6756 35.6282 25.7488 35.6565 25.8154C35.6847 25.882 35.7312 25.9393 35.7905 25.9807C35.9613 26.1136 36.148 26.2249 36.3461 26.3121L37.2469 26.7026C37.847 26.9652 38.2691 27.2874 38.513 27.6692C38.7548 28.0333 38.8471 28.4766 38.7706 28.9069Z" fill="#007580"/>
<path d="M33.6505 27.4134C33.5942 27.7648 33.4622 28.0999 33.2638 28.3953C33.0654 28.6908 32.8052 28.9397 32.5012 29.1249C32.1814 29.3178 31.8269 29.4463 31.4577 29.5029C31.0418 29.5676 30.6179 29.5608 30.2043 29.483C29.8627 29.4236 29.531 29.3174 29.2185 29.1673C28.9183 29.022 28.6449 28.8268 28.4098 28.5902C28.2181 28.3979 28.0541 28.1798 27.9226 27.9422C27.8888 27.8824 27.8565 27.8211 27.8257 27.7582C27.7951 27.6952 27.7681 27.6305 27.745 27.5644C27.6933 27.3649 27.7149 27.1534 27.8058 26.9685C27.8968 26.7835 28.051 26.6373 28.2405 26.5564L28.3176 26.5269L28.4833 26.4933C28.6371 26.4766 28.7925 26.5018 28.9332 26.5661C29.0738 26.6304 29.1946 26.7315 29.2826 26.8587C29.316 26.907 29.3449 26.9584 29.3686 27.0121L29.4816 27.278C29.5075 27.315 29.5354 27.3505 29.5652 27.3843C29.7478 27.5761 29.9737 27.7214 30.2239 27.808C30.4742 27.8946 30.7416 27.9201 31.0037 27.8822C31.1638 27.8594 31.3179 27.8054 31.4573 27.7234C31.5912 27.6444 31.7084 27.54 31.8023 27.4161C31.9011 27.2832 31.966 27.1282 31.9915 26.9646C32.0287 26.7987 32.0251 26.6262 31.9809 26.462C31.9366 26.2978 31.8531 26.1468 31.7375 26.022C31.5004 25.7814 31.1964 25.6177 30.8651 25.5522L30.67 25.5178C30.4863 25.4721 30.3244 25.3633 30.2129 25.2103C30.1013 25.0574 30.0471 24.87 30.0598 24.6811L30.0733 24.6045C30.1277 24.4187 30.2468 24.2584 30.409 24.1527C30.5712 24.0469 30.7659 24.0027 30.9579 24.0279L31.0014 24.0355C31.1258 24.049 31.2511 24.0506 31.3758 24.0405C31.5331 24.0288 31.6869 23.9884 31.8296 23.9212C31.9688 23.852 32.0891 23.75 32.1801 23.6239C32.28 23.4868 32.3456 23.3278 32.3714 23.1602C32.3988 23.0298 32.3969 22.895 32.3661 22.7654C32.3352 22.6358 32.2761 22.5146 32.1929 22.4105C31.9989 22.1802 31.7245 22.0324 31.4255 21.9969C31.2737 21.9595 31.116 21.953 30.9616 21.978C30.8073 22.0029 30.6596 22.0587 30.5273 22.1419C30.4986 22.162 30.4699 22.1821 30.4427 22.2042L30.3121 22.3033C30.1421 22.4324 29.9279 22.4887 29.7165 22.4599C29.505 22.431 29.3137 22.3193 29.1846 22.1494C29.0555 21.9795 28.9992 21.7652 29.0281 21.5538C29.0569 21.3424 29.1686 21.151 29.3385 21.0219L29.4916 20.9071C29.5155 20.8901 29.5404 20.8747 29.5662 20.861C29.6209 20.8257 29.6788 20.7928 29.7363 20.7617C30.0143 20.6174 30.313 20.5174 30.6218 20.4653C30.9853 20.4056 31.3564 20.4103 31.7183 20.4791C32.1006 20.5416 32.4699 20.6674 32.8108 20.8513C33.1097 21.0137 33.3759 21.2299 33.5962 21.489C33.7993 21.7296 33.9481 22.0113 34.0324 22.3147C34.1169 22.6224 34.1306 22.9453 34.0724 23.259C34.0351 23.4889 33.9631 23.7117 33.8589 23.9199C33.7687 24.1 33.6546 24.2671 33.5199 24.4168C33.3975 24.552 33.2559 24.6686 33.0997 24.7629C32.9612 24.8475 32.8125 24.9142 32.6571 24.9614L32.6363 25.0798C33.007 25.3055 33.3062 25.6316 33.4993 26.0202C33.7009 26.4555 33.754 26.945 33.6505 27.4134Z" fill="#FF9900"/>
</svg>
