<svg width="16" height="16" viewBox="0 0 16 16" fill="none" xmlns="http://www.w3.org/2000/svg">
<path fill-rule="evenodd" clip-rule="evenodd" d="M13.5927 1.66071C13.9934 1.45646 14.4215 1.88448 14.2173 2.28535L13.0549 4.56661L14.8653 6.37703C15.1834 6.69515 14.9087 7.23449 14.4644 7.16412L11.9355 6.76359L10.7731 9.04487C10.5689 9.44572 9.97101 9.35102 9.90064 8.90667L9.67972 7.51183L2.33561 14.8559C1.97289 15.2187 1.38478 15.2187 1.02204 14.8559C0.659319 14.4932 0.659319 13.9051 1.02204 13.5424L8.36616 6.19827L6.97132 5.97735C6.52697 5.90696 6.43227 5.3091 6.83313 5.10485L9.1144 3.9425L8.71387 1.41369C8.6435 0.969337 9.18284 0.694527 9.50096 1.01265L11.3114 2.82307L13.5927 1.66071ZM9.12214 6.318L1.45991 13.9802C1.33899 14.1011 1.33899 14.2971 1.45991 14.4182C1.58081 14.5391 1.77684 14.5391 1.89776 14.4182L9.55999 6.75585L9.50013 6.37786L9.12214 6.318ZM13.4493 2.42873L11.4923 3.42587C11.313 3.5172 11.0953 3.48273 10.9531 3.34046L9.4 1.78741L9.74359 3.95671C9.77506 4.15543 9.675 4.35182 9.49573 4.44315L7.53876 5.44029L9.70808 5.78386C9.9068 5.81535 10.0626 5.97119 10.0941 6.16991L10.4377 8.33923L11.4348 6.38226C11.5262 6.203 11.7226 6.10293 11.9213 6.1344L14.0907 6.47799L12.5375 4.92494C12.3953 4.78267 12.3608 4.56497 12.4521 4.3857L13.4493 2.42873Z" fill="white"/>
<path d="M3.20042 1.24694C3.0795 1.12602 2.88347 1.12602 2.76256 1.24694C2.64165 1.36784 2.64165 1.56387 2.76256 1.68479L3.16492 2.08716C3.28584 2.20806 3.48187 2.20806 3.60279 2.08716C3.72369 1.96624 3.72369 1.77021 3.60279 1.64929L3.20042 1.24694Z" fill="white"/>
<path d="M2.76256 3.05554C2.64165 3.17646 2.64165 3.37249 2.76256 3.49341C2.88347 3.61431 3.0795 3.61431 3.20042 3.49341L3.60279 3.09104C3.72369 2.97014 3.72369 2.77409 3.60279 2.65319C3.48187 2.53227 3.28584 2.53227 3.16492 2.65319L2.76256 3.05554Z" fill="white"/>
<path d="M4.16881 1.64929C4.0479 1.77021 4.0479 1.96624 4.16881 2.08716C4.28972 2.20806 4.48576 2.20806 4.60667 2.08716L5.00904 1.68479C5.12994 1.56387 5.12994 1.36784 5.00904 1.24694C4.88812 1.12602 4.69209 1.12602 4.57118 1.24694L4.16881 1.64929Z" fill="white"/>
<path d="M4.60667 2.65319C4.48576 2.53227 4.28972 2.53227 4.16881 2.65319C4.0479 2.77409 4.0479 2.97014 4.16881 3.09104L4.57118 3.49341C4.69209 3.61431 4.88812 3.61431 5.00904 3.49341C5.12994 3.37249 5.12994 3.17646 5.00904 3.05554L4.60667 2.65319Z" fill="white"/>
<path d="M13.7784 8.30078C13.9493 8.30078 14.088 8.43939 14.088 8.61039V9.1264C14.088 9.2974 13.9493 9.43601 13.7784 9.43601C13.6073 9.43601 13.4688 9.2974 13.4688 9.1264V8.61039C13.4688 8.43939 13.6073 8.30078 13.7784 8.30078Z" fill="white"/>
<path d="M12.3125 9.77055C12.3125 9.59955 12.4511 9.46094 12.6221 9.46094H13.1381C13.309 9.46094 13.4477 9.59955 13.4477 9.77055C13.4477 9.94153 13.309 10.0802 13.1381 10.0802H12.6221C12.4511 10.0802 12.3125 9.94153 12.3125 9.77055Z" fill="white"/>
<path d="M14.1172 9.77055C14.1172 9.59955 14.2559 9.46094 14.4268 9.46094H14.9429C15.1138 9.46094 15.2525 9.59955 15.2525 9.77055C15.2525 9.94153 15.1138 10.0802 14.9429 10.0802H14.4268C14.2559 10.0802 14.1172 9.94153 14.1172 9.77055Z" fill="white"/>
<path d="M13.7784 10.1055C13.9493 10.1055 14.088 10.2441 14.088 10.4151V10.9311C14.088 11.1021 13.9493 11.2407 13.7784 11.2407C13.6073 11.2407 13.4688 11.1021 13.4688 10.9311V10.4151C13.4688 10.2441 13.6073 10.1055 13.7784 10.1055Z" fill="white"/>
<path d="M9.59867 10.6211C9.76966 10.6211 9.90828 10.7597 9.90828 10.9307V11.7804C9.90828 11.9514 9.76966 12.09 9.59867 12.09C9.42768 12.09 9.28906 11.9514 9.28906 11.7804V10.9307C9.28906 10.7597 9.42768 10.6211 9.59867 10.6211Z" fill="white"/>
<path d="M7.82031 12.4034C7.82031 12.2324 7.95893 12.0938 8.12992 12.0938H8.97963C9.15062 12.0938 9.28924 12.2324 9.28924 12.4034C9.28924 12.5743 9.15062 12.713 8.97963 12.713H8.12992C7.95893 12.713 7.82031 12.5743 7.82031 12.4034Z" fill="white"/>
<path d="M9.91406 12.4034C9.91406 12.2324 10.0527 12.0938 10.2237 12.0938H11.0734C11.2444 12.0938 11.383 12.2324 11.383 12.4034C11.383 12.5743 11.2444 12.713 11.0734 12.713H10.2237C10.0527 12.713 9.91406 12.5743 9.91406 12.4034Z" fill="white"/>
<path d="M9.59867 12.7109C9.76966 12.7109 9.90828 12.8496 9.90828 13.0205V13.8703C9.90828 14.0413 9.76966 14.1799 9.59867 14.1799C9.42768 14.1799 9.28906 14.0413 9.28906 13.8703V13.0205C9.28906 12.8496 9.42768 12.7109 9.59867 12.7109Z" fill="white"/>
</svg>
