<svg width="16" height="13" viewBox="0 0 16 13" fill="none" xmlns="http://www.w3.org/2000/svg">
<path d="M15.8779 3.78796V10.3016C15.8779 10.9657 15.6258 11.6046 15.1731 12.0873C14.7205 12.5701 14.1018 12.86 13.4438 12.8976L13.2977 12.9016H2.58015C1.92111 12.9016 1.28704 12.6475 0.808 12.1914C0.328963 11.7353 0.0412814 11.1118 0.00396956 10.4488L0 10.3016V3.78796L7.66266 7.83276C7.7479 7.87776 7.8427 7.90126 7.93893 7.90126C8.03516 7.90126 8.12996 7.87776 8.21521 7.83276L15.8779 3.78796ZM2.58015 0.101563H13.2977C13.9373 0.101485 14.554 0.340759 15.0284 0.772976C15.5028 1.20519 15.801 1.79955 15.8652 2.44076L7.93893 6.62476L0.0127023 2.44076C0.0742476 1.82501 0.351734 1.25158 0.795282 0.823533C1.23883 0.395489 1.81935 0.140912 2.43249 0.105563L2.58015 0.101563H13.2977H2.58015Z" fill="#009638"/>
</svg>
