<svg width="20" height="20" viewBox="0 0 20 20" fill="none" xmlns="http://www.w3.org/2000/svg">
<path d="M3.7 14.4501H2.8C2.32261 14.4501 1.86477 14.2605 1.52721 13.9229C1.18964 13.5853 1 13.1275 1 12.6501V3.6501C1 3.17271 1.18964 2.71487 1.52721 2.37731C1.86477 2.03974 2.32261 1.8501 2.8 1.8501H17.2C17.6774 1.8501 18.1352 2.03974 18.4728 2.37731C18.8104 2.71487 19 3.17271 19 3.6501V12.6501C19 13.1275 18.8104 13.5853 18.4728 13.9229C18.1352 14.2605 17.6774 14.4501 17.2 14.4501H16.3" stroke="#007580" stroke-width="2" stroke-linecap="round" stroke-linejoin="round"/>
<path d="M10 12.6501L14.5 18.0501H5.5L10 12.6501Z" stroke="#007580" stroke-width="2" stroke-linecap="round" stroke-linejoin="round"/>
</svg>
