<svg width="80" height="80" viewBox="0 0 80 80" fill="none" xmlns="http://www.w3.org/2000/svg">
<g clip-path="url(#clip0_2033_62801)">
<path d="M30.4684 41.388H23.7384C20.9109 41.388 18.1132 40.4466 15.8606 38.7374L7.04791 32.0504C2.94869 28.9399 1.34744 23.5907 3.06353 18.7394C4.70369 14.1029 9.11025 10.9483 14.0285 10.8897C18.8343 10.8327 21.5648 10.9846 21.6785 10.9911L21.3776 16.2807C21.3513 16.2793 18.6948 16.1332 14.0915 16.1876C11.3853 16.2197 8.96056 17.9554 8.05822 20.5065C7.114 23.1755 7.99494 26.1186 10.2504 27.83L19.0629 34.5171C20.3996 35.5315 22.0601 36.0901 23.7381 36.0901H30.4681V41.388H30.4684Z" fill="#057A85"/>
<path d="M15.8622 35.9462L7.04956 29.2592C4.4369 27.2767 2.84112 24.3843 2.47003 21.2915C1.98128 25.377 3.66049 29.4788 7.04956 32.0504L15.8622 38.7374C18.1147 40.4467 20.9125 41.3881 23.74 41.3881H30.47V38.5968H23.74C20.9125 38.5968 18.1147 37.6554 15.8622 35.9462Z" fill="#08646C"/>
<path d="M49.5547 41.388H56.2847C59.1122 41.388 61.9098 40.4466 64.1625 38.7374L72.9752 32.0504C77.0744 28.9399 78.6756 23.5907 76.9595 18.7394C75.3194 14.1029 70.9128 10.9483 65.9945 10.8897C61.1887 10.8327 58.4583 10.9846 58.3445 10.9911L58.6455 16.2807C58.6717 16.2793 61.3283 16.1332 65.9316 16.1876C68.6378 16.2197 71.0625 17.9554 71.9648 20.5065C72.9091 23.1755 72.0281 26.1186 69.7727 27.83L60.9602 34.5171C59.6234 35.5315 57.963 36.0901 56.285 36.0901H49.555V41.388H49.5547Z" fill="#057A85"/>
<path d="M76.9597 18.7394C76.192 16.5691 74.818 14.7236 73.0691 13.3682C73.8236 14.3407 74.4336 15.4388 74.8573 16.6372C76.5734 21.4885 74.9722 26.8377 70.873 29.9482L62.0603 36.6352C59.8078 38.3444 57.01 39.2858 54.1825 39.2858H49.5547V41.388H56.2847C59.1122 41.388 61.9098 40.4466 64.1625 38.7374L72.9752 32.0504C77.0745 28.9399 78.6758 23.5907 76.9597 18.7394Z" fill="#08646C"/>
<path d="M48.593 60.793L45.4589 58.4177C44.112 57.3969 43.3208 55.8042 43.3208 54.1142V43.5708H36.2225V54.1142C36.2225 55.8042 35.4312 57.3969 34.0844 58.4177L30.9503 60.793C29.9734 61.5333 30.497 63.091 31.7226 63.091H47.8205C49.0462 63.0908 49.5698 61.5333 48.593 60.793Z" fill="#007580"/>
<path d="M48.5919 60.793L45.4578 58.4177C44.1109 57.3969 43.3197 55.8042 43.3197 54.1142V43.5708H39.6406V54.1142C39.6406 55.8042 40.4319 57.3969 41.7788 58.4177L44.9128 60.793C45.8897 61.5333 45.3661 63.091 44.1405 63.091H47.8195C49.0452 63.0908 49.5688 61.5333 48.5919 60.793Z" fill="#04A0AF"/>
<path d="M59.9183 3.18262H20.1037C19.3409 3.18262 18.7227 3.8009 18.7227 4.56371V18.8207C18.7227 24.925 20.4223 30.9086 23.6314 36.1012L27.308 42.0503C33.0702 51.3742 46.6081 51.4379 52.4578 42.1686L56.2269 36.1961C59.5406 30.945 61.2994 24.8628 61.2994 18.6536V4.56371C61.2994 3.80105 60.6811 3.18262 59.9183 3.18262Z" fill="#05909D"/>
<path d="M59.9202 3.18262H53.5384V10.8907C53.5384 17.1 51.7797 23.1823 48.4659 28.4334L44.6969 34.4059C40.5239 41.0184 32.4389 42.8798 26.0547 40.0195L27.3098 42.0504C33.072 51.3743 46.61 51.4381 52.4597 42.1687L56.2287 36.1962C59.5425 30.9451 61.3013 24.8629 61.3013 18.6537V4.56371C61.3013 3.80105 60.683 3.18262 59.9202 3.18262Z" fill="#007580"/>
<path d="M40.0007 71.8361C32.4429 71.8361 25.109 69.5797 18.7918 65.3106C12.649 61.1594 7.75349 55.3209 4.63474 48.4266C4.36052 47.8208 4.62958 47.1075 5.23536 46.8334C5.8413 46.5592 6.55442 46.8284 6.82833 47.4341C12.8724 60.795 25.8935 69.4283 40.0007 69.4283C54.1079 69.4283 67.1286 60.795 73.1729 47.4341C73.4468 46.8286 74.16 46.5594 74.7658 46.8334C75.3716 47.1075 75.6407 47.8208 75.3665 48.4266C72.2477 55.3209 67.3522 61.1595 61.2094 65.3106C54.8922 69.5795 47.5585 71.8361 40.0007 71.8361Z" fill="#009638"/>
<path d="M78.5266 45.6017C77.2118 48.7136 74.9701 50.7394 73.5196 50.1266C72.0691 49.5137 71.9591 46.4942 73.2738 43.3823C74.2263 41.1278 77.3652 37.5437 79.0226 35.7398C79.3805 35.3501 80.029 35.6242 79.9991 36.1525C79.8611 38.5983 79.4791 43.3473 78.5266 45.6017Z" fill="#8FCE56"/>
<path d="M79.0228 35.7399C78.5631 36.2402 77.9892 36.8778 77.3798 37.5858C77.1619 39.985 76.7734 42.8446 76.0969 44.446C75.1706 46.6381 73.7845 48.2899 72.5391 48.8613C72.7253 49.4808 73.0527 49.9291 73.5198 50.1266C74.9703 50.7394 77.212 48.7136 78.5269 45.6017C79.4794 43.3472 79.8613 38.5983 79.9994 36.1525C80.0292 35.6241 79.3808 35.3502 79.0228 35.7399Z" fill="#80CB8E"/>
<path d="M69.7185 52.5201C69.8173 55.7095 68.6923 58.3323 67.2057 58.3784C65.7191 58.4245 64.4338 55.8762 64.3349 52.6868C64.2633 50.3762 65.5438 46.0622 66.2549 43.8603C66.4085 43.3847 67.073 43.364 67.2557 43.8293C68.1018 45.9829 69.6469 50.2095 69.7185 52.5201Z" fill="#8FCE56"/>
<path d="M60.7278 58.8222C61.9845 61.7552 61.895 64.6079 60.5278 65.1936C59.1606 65.7794 57.0336 63.8766 55.7769 60.9435C54.8664 58.8187 54.4831 54.3347 54.341 52.0254C54.3103 51.5265 54.9214 51.2647 55.2614 51.631C56.8355 53.3269 59.8174 56.6974 60.7278 58.8222Z" fill="#8FCE56"/>
<path d="M60.7278 58.8218C59.8174 56.697 56.8355 53.3265 55.2614 51.6306C54.9214 51.2642 54.3103 51.526 54.341 52.025C54.3816 52.6851 54.442 53.5232 54.5288 54.4328C55.9983 56.1356 57.6402 58.2225 58.275 59.704C59.1553 61.7585 59.3741 63.7723 58.9569 64.9964C59.525 65.3048 60.0692 65.3895 60.5278 65.1931C61.895 64.6074 61.9845 61.7548 60.7278 58.8218Z" fill="#80CB8E"/>
<path d="M68.7429 65.6539C65.7299 64.6035 63.6843 62.6133 64.174 61.2088C64.6637 59.8044 67.5032 59.5174 70.5162 60.568C72.699 61.3291 76.2679 64.0703 78.0688 65.5231C78.4579 65.8369 78.239 66.4647 77.7391 66.4686C75.4252 66.4869 70.9257 66.415 68.7429 65.6539Z" fill="#8FCE56"/>
<path d="M59.1726 72.234C56.1596 71.1835 54.114 69.1934 54.6037 67.7888C55.0934 66.3845 57.9329 66.0974 60.9459 67.1481C63.1287 67.9092 66.6976 70.6504 68.4985 72.1032C68.8876 72.417 68.6687 73.0448 68.1688 73.0487C65.8551 73.067 61.3555 72.9951 59.1726 72.234Z" fill="#8FCE56"/>
<path d="M78.069 65.5231C77.3371 64.9328 76.3134 64.1296 75.2093 63.3331C72.7773 63.3296 68.8926 63.2062 66.913 62.516C65.8704 62.1524 64.9438 61.6763 64.1977 61.1509C64.1899 61.1703 64.1809 61.1888 64.174 61.2087C63.6843 62.6131 65.7299 64.6032 68.7429 65.6538C70.9257 66.4149 75.4254 66.4868 77.7391 66.4687C78.2391 66.4648 78.458 65.837 78.069 65.5231Z" fill="#80CB8E"/>
<path d="M68.4985 72.1036C67.7666 71.5133 66.7429 70.7102 65.6388 69.9136C63.2066 69.9102 59.3221 69.7868 57.3426 69.0966C56.2999 68.733 55.3734 68.2569 54.6274 67.7314C54.6196 67.7508 54.6105 67.7696 54.6037 67.7893C54.114 69.1936 56.1596 71.1838 59.1726 72.2344C61.3554 72.9955 65.8551 73.0674 68.1688 73.0491C68.6685 73.0452 68.8874 72.4174 68.4985 72.1036Z" fill="#80CB8E"/>
<path d="M1.4735 45.6017C2.78834 48.7136 5.03006 50.7394 6.48053 50.1266C7.931 49.5137 8.041 46.4942 6.72631 43.3823C5.77381 41.1278 2.6349 37.5437 0.977558 35.7398C0.619589 35.3501 -0.0288484 35.6242 0.000995389 36.1525C0.138964 38.5983 0.520995 43.3473 1.4735 45.6017Z" fill="#8FCE56"/>
<path d="M6.72631 43.3823C5.77381 41.1278 2.6349 37.5437 0.977558 35.7398C0.619589 35.3501 -0.0288484 35.6242 0.000995389 36.1525C0.0394329 36.8339 0.0969329 37.6941 0.18037 38.6292C1.77193 40.4766 3.61209 42.8103 4.30287 44.4451C5.21334 46.6001 5.44006 48.7101 5.01193 50.008C5.54162 50.2555 6.04662 50.3098 6.48053 50.1266C7.93115 49.5137 8.04115 46.4942 6.72631 43.3823Z" fill="#80CB8E"/>
<path d="M10.2795 52.5201C10.1807 55.7095 11.3057 58.3323 12.7923 58.3784C14.2788 58.4245 15.5642 55.8762 15.6631 52.6868C15.7346 50.3762 14.4542 46.0622 13.7431 43.8603C13.5895 43.3847 12.9249 43.364 12.7423 43.8293C11.8962 45.9829 10.351 50.2095 10.2795 52.5201Z" fill="#8FCE56"/>
<path d="M69.718 52.5205C69.6464 50.2099 68.1012 45.9833 67.2553 43.8297C67.0725 43.3646 66.408 43.3852 66.2544 43.8607C66.045 44.5089 65.7864 45.3408 65.5273 46.25C66.273 48.371 67.0383 50.9105 67.0881 52.5205C67.1561 54.7153 66.6445 56.6418 65.8342 57.6449C66.2456 58.125 66.7142 58.3939 67.205 58.3788C68.6917 58.3328 69.8169 55.7099 69.718 52.5205Z" fill="#80CB8E"/>
<path d="M13.745 43.8602C13.5914 43.3846 12.9269 43.3641 12.7441 43.8293C12.4875 44.4824 12.1667 45.3266 11.842 46.2498C12.4628 48.4293 13.0855 51.0566 13.035 52.6869C12.9687 54.8234 12.3698 56.6705 11.5352 57.6446C11.9022 58.0991 12.3306 58.3641 12.7942 58.3785C14.2808 58.4246 15.5661 55.8763 15.665 52.6869C15.7366 50.3763 14.4561 46.0621 13.745 43.8602Z" fill="#80CB8E"/>
<path d="M19.2698 58.8222C18.0131 61.7552 18.1026 64.6079 19.4698 65.1936C20.837 65.7794 22.964 63.8766 24.2207 60.9435C25.1312 58.8187 25.5145 54.3347 25.6566 52.0254C25.6873 51.5265 25.0762 51.2647 24.7362 51.631C23.1621 53.3269 20.1802 56.6974 19.2698 58.8222Z" fill="#8FCE56"/>
<path d="M24.7384 51.6306C24.2473 52.1596 23.6192 52.8518 22.9595 53.6184C22.7389 55.8357 22.3622 58.4107 21.7364 59.8712C20.8959 61.8326 19.6666 63.332 18.5352 63.9357C18.7047 64.5517 19.0172 64.9982 19.4719 65.1931C20.8391 65.7789 22.9661 63.876 24.2228 60.9429C25.1333 58.8181 25.5166 54.3342 25.6588 52.0248C25.6895 51.5261 25.0784 51.2642 24.7384 51.6306Z" fill="#80CB8E"/>
<path d="M11.2555 65.6539C14.2684 64.6035 16.3141 62.6133 15.8244 61.2088C15.3347 59.8044 12.4952 59.5174 9.48218 60.568C7.29937 61.3291 3.73046 64.0703 1.92953 65.5231C1.54062 65.8369 1.75937 66.4647 2.25921 66.4686C4.57312 66.4869 9.07265 66.415 11.2555 65.6539Z" fill="#8FCE56"/>
<path d="M20.8258 72.234C23.8387 71.1835 25.8844 69.1934 25.3947 67.7888C24.905 66.3845 22.0655 66.0974 19.0525 67.1481C16.8697 67.9092 13.3008 70.6504 11.4998 72.1032C11.1109 72.417 11.3297 73.0448 11.8295 73.0487C14.1433 73.067 18.6428 72.9951 20.8258 72.234Z" fill="#8FCE56"/>
<path d="M15.8244 61.2085C15.624 60.6337 15.0294 60.2463 14.1907 60.061C13.7282 61.2853 11.9863 62.6462 9.67225 63.4529C8.22225 63.9585 5.75038 64.1598 3.57569 64.2328C2.9485 64.7096 2.38288 65.1571 1.9296 65.5229C1.54053 65.8367 1.75944 66.4645 2.25928 66.4684C4.57303 66.4865 9.07257 66.4146 11.2555 65.6535C14.2685 64.6032 16.3141 62.6131 15.8244 61.2085Z" fill="#80CB8E"/>
<path d="M25.3947 67.7891C25.1942 67.2143 24.5997 66.8269 23.7609 66.6416C23.2984 67.8658 21.5566 69.2268 19.2425 70.0335C17.7925 70.5391 15.3206 70.7404 13.1459 70.8133C12.5187 71.2902 11.9531 71.7377 11.4998 72.1035C11.1109 72.4172 11.3297 73.045 11.8295 73.0489C14.1433 73.0671 18.6428 72.9952 20.8258 72.2343C23.8387 71.1836 25.8844 69.1935 25.3947 67.7891Z" fill="#80CB8E"/>
<path d="M39.6419 32.3502C44.6174 32.3502 48.6509 28.3167 48.6509 23.3411C48.6509 18.3655 44.6174 14.332 39.6419 14.332C34.6663 14.332 30.6328 18.3655 30.6328 23.3411C30.6328 28.3167 34.6663 32.3502 39.6419 32.3502Z" fill="#FF9900"/>
<path d="M42.9967 14.98C43.4131 16.017 43.6445 17.1483 43.6445 18.3342C43.6445 23.3098 39.6111 27.3433 34.6355 27.3433C33.4495 27.3433 32.3183 27.1119 31.2812 26.6954C32.6119 30.0094 35.8528 32.3504 39.6425 32.3504C44.6181 32.3504 48.6516 28.317 48.6516 23.3414C48.6517 19.5515 46.3106 16.3108 42.9967 14.98Z" fill="#FF9900"/>
<path d="M40.3008 19.3344L41.2441 21.2454C41.3299 21.419 41.4955 21.5395 41.6872 21.5673L43.7963 21.8737C44.279 21.9439 44.4716 22.537 44.1224 22.8775L42.5963 24.3651C42.4576 24.5003 42.3943 24.6951 42.4271 24.8859L42.7874 26.9865C42.8699 27.4672 42.3654 27.8337 41.9337 27.6069L40.0472 26.6151C39.8758 26.525 39.671 26.525 39.4996 26.6151L37.6132 27.6069C37.1815 27.8337 36.6769 27.4672 36.7594 26.9865L37.1197 24.8859C37.1526 24.695 37.0893 24.5003 36.9505 24.3651L35.4244 22.8775C35.0752 22.537 35.2679 21.9439 35.7505 21.8737L37.8596 21.5673C38.0513 21.5395 38.2169 21.419 38.3027 21.2454L39.246 19.3344C39.4613 18.897 40.0851 18.897 40.3008 19.3344Z" fill="white"/>
<path d="M44.1186 22.8777C44.4679 22.5372 44.2752 21.9441 43.7925 21.8739L43.0236 21.7622L40.9741 23.76C40.7686 23.9602 40.675 24.2486 40.7235 24.5313L41.1838 27.2147L41.9299 27.6069C42.3616 27.8338 42.8661 27.4672 42.7836 26.9866L42.4233 24.886C42.3905 24.695 42.4538 24.5003 42.5925 24.3652L44.1186 22.8777Z" fill="white"/>
<path d="M51.6992 76.8177H28.3216C27.583 76.8177 26.9844 76.2189 26.9844 75.4805V64.428C26.9844 63.6894 27.5831 63.0908 28.3216 63.0908H51.6992C52.4378 63.0908 53.0364 63.6896 53.0364 64.428V75.4805C53.0366 76.2189 52.4378 76.8177 51.6992 76.8177Z" fill="#407093"/>
<path d="M51.7028 63.0908H49.1702V71.6179C49.1702 72.3544 48.5731 72.9514 47.8366 72.9514H26.9844V75.4841C26.9844 76.2207 27.5814 76.8177 28.318 76.8177H51.7028C52.4394 76.8177 53.0364 76.2207 53.0364 75.4841V64.4244C53.0366 63.6879 52.4394 63.0908 51.7028 63.0908Z" fill="#365E7D"/>
</g>
<defs>
<clipPath id="clip0_2033_62801">
<rect width="80" height="80" fill="white"/>
</clipPath>
</defs>
</svg>
