<svg width="80" height="80" viewBox="0 0 80 80" fill="none" xmlns="http://www.w3.org/2000/svg">
<path d="M40 80C61.1422 80 78.2812 62.8609 78.2812 41.7188C78.2812 20.5766 61.1422 3.4375 40 3.4375C18.8578 3.4375 1.71875 20.5766 1.71875 41.7188C1.71875 62.8609 18.8578 80 40 80Z" fill="#007580"/>
<path d="M33.8727 59.2072C35.8492 59.2072 37.6702 60.2013 38.7437 61.8666C38.7702 61.9077 38.8145 61.9341 38.8633 61.9377C38.8672 61.938 38.8712 61.9382 38.8752 61.9382C38.9198 61.9382 38.9625 61.9191 38.9922 61.8854C40.6016 60.0649 42.9153 59.0208 45.3402 59.0208C46.1664 59.0208 46.9645 59.1418 47.72 59.3635L44.9316 52.2158H35.065L32.2461 59.4414C32.7625 59.2899 33.308 59.2072 33.8727 59.2072Z" fill="#D9EAFC"/>
<path d="M36.3512 52.2153H35.065L32.2461 59.441C32.6848 59.3124 33.1455 59.2369 33.6202 59.216L36.3512 52.2153Z" fill="#E5FDFF"/>
<path d="M30.8713 66.5925C30.8775 66.6338 30.8998 66.6708 30.9334 66.6955C30.9603 66.7154 30.9928 66.7258 31.0258 66.7258C31.0339 66.7258 31.0422 66.7252 31.0503 66.7239C31.6081 66.6352 32.1683 66.5902 32.7152 66.5902C35.3869 66.5902 37.9355 67.5941 39.8919 69.4169C39.9219 69.4449 39.9602 69.4588 39.9984 69.4588C40.0367 69.4588 40.075 69.4449 40.105 69.4169C42.0613 67.5941 44.61 66.5902 47.2817 66.5902C47.8284 66.5902 48.3888 66.6352 48.9466 66.7239C48.9548 66.7252 48.963 66.7258 48.9711 66.7258C49.0041 66.7258 49.0366 66.7154 49.0634 66.6955C49.097 66.6708 49.1194 66.6338 49.1256 66.5925C49.4144 64.6491 50.1458 62.8085 51.2431 61.2021C49.6997 59.7533 47.6245 58.8643 45.3403 58.8643C42.7658 58.8643 40.4561 59.9933 38.8753 61.7816C37.8166 60.1393 35.9725 59.0507 33.873 59.0507C31.8591 59.0507 30.0803 60.0524 29.0039 61.5838C29.9617 63.0977 30.6052 64.8011 30.8713 66.5925Z" fill="#E5FDFF"/>
<path d="M31.0272 66.5694C30.0869 60.2397 24.6311 55.3833 18.0398 55.3833C13.4641 55.3833 9.43656 57.7245 7.08594 61.2735C10.685 67.3183 15.9023 72.2852 22.1397 75.5814C22.8067 70.9617 26.4284 67.3 31.0272 66.5694Z" fill="#2A959F"/>
<path d="M19.3511 56.9978C22.6998 56.9978 25.7695 58.1856 28.1675 60.1599C25.7592 57.2435 22.1177 55.3833 18.0398 55.3833C13.4641 55.3833 9.43656 57.7245 7.08594 61.2735C7.39641 61.7949 7.71984 62.3078 8.05406 62.8128C10.5727 59.2931 14.6928 56.9978 19.3511 56.9978Z" fill="#104247"/>
<path d="M61.96 55.3833C55.3687 55.3833 49.913 60.2399 48.9727 66.5694C53.5714 67.3 57.1931 70.9617 57.8602 75.5814C64.0973 72.2852 69.3148 67.3181 72.9139 61.2735C70.5633 57.7245 66.5358 55.3833 61.96 55.3833Z" fill="#0A4B51"/>
<path d="M62.7544 55.4077C62.4916 55.392 62.2269 55.3833 61.96 55.3833C55.3687 55.3833 49.913 60.2399 48.9727 66.5694C49.4627 66.6472 49.9408 66.7603 50.4061 66.9024C51.7127 60.9213 56.6258 56.2899 62.7544 55.4077Z" fill="#1C666C"/>
<path d="M47.2842 66.4336C44.4692 66.4336 41.91 67.5236 40.0011 69.3022C38.0922 67.5234 35.533 66.4336 32.718 66.4336C27.3375 66.4336 22.8867 70.4095 22.1406 75.5833C27.4731 78.4016 33.55 79.9997 40.0011 79.9997C46.4522 79.9997 52.5291 78.4016 57.8616 75.5833C57.1155 70.4095 52.6647 66.4336 47.2842 66.4336Z" fill="#1C666C"/>
<path d="M34.9522 67.7628C36.4264 67.7628 37.8333 68.0495 39.1209 68.5694C37.3361 67.2305 35.1209 66.4341 32.718 66.4341C27.3375 66.4341 22.8867 70.41 22.1406 75.5838C22.7692 75.916 23.4084 76.2306 24.057 76.5281C25.1519 71.5164 29.6119 67.7628 34.9522 67.7628Z" fill="#104247"/>
<path d="M43.5225 52.2153H41.1602L41.4616 54.5999C41.5427 55.2421 42.1298 55.6963 42.7711 55.6155C43.4131 55.5342 43.868 54.948 43.7867 54.306L43.5225 52.2153Z" fill="#AEC1ED"/>
<path d="M36.4806 52.2155L35.8609 57.1186C35.7798 57.7606 36.2345 58.347 36.8767 58.4281C36.9266 58.4344 36.9761 58.4375 37.0251 58.4375C37.6069 58.4374 38.1116 58.0045 38.1864 57.4124L38.8433 52.2153H36.4806V52.2155Z" fill="#AEC1ED"/>
<path d="M27.9856 30.581C27.9856 29.3068 28.0334 28.036 28.1228 26.7744C24.3634 28.8914 21.7734 33.6077 21.7734 39.0679C21.7734 41.9516 22.4905 44.7018 23.8469 47.021C23.9742 47.2388 24.2047 47.3633 24.4441 47.3633C24.5316 47.3633 24.6202 47.3468 24.7053 47.3119C26.488 46.5832 28.393 46.2088 30.3684 46.1932C28.8086 41.3919 27.9856 36.03 27.9856 30.581Z" fill="#FF3333"/>
<path d="M23.545 39.0679C23.545 34.558 25.313 30.5574 28.0462 28.108C28.0672 27.6625 28.0914 27.2179 28.1228 26.7744C24.3634 28.8914 21.7734 33.6077 21.7734 39.0679C21.7734 41.9516 22.4905 44.7018 23.8469 47.021C23.9742 47.2388 24.2047 47.3633 24.4441 47.3633C24.5316 47.3633 24.6202 47.3468 24.7053 47.3119C24.9991 47.1918 25.2975 47.0849 25.5977 46.9841C24.255 44.6725 23.545 41.9364 23.545 39.0679Z" fill="#B7092B"/>
<path d="M51.8747 26.7744C51.9641 28.0361 52.0119 29.3069 52.0119 30.581C52.0119 36.0299 51.1889 41.3918 49.6289 46.1932C51.6045 46.2088 53.5094 46.5832 55.292 47.3119C55.3772 47.3468 55.4659 47.3633 55.5533 47.3633C55.7928 47.3633 56.0231 47.2386 56.1505 47.021C57.507 44.7018 58.2239 41.9516 58.2239 39.0679C58.2241 33.6077 55.6341 28.8914 51.8747 26.7744Z" fill="#FF3333"/>
<path d="M34.0156 47.9883V51.5905C34.0156 52.0202 34.3672 52.3717 34.7969 52.3717H45.2005C45.6302 52.3717 45.9817 52.0202 45.9817 51.5905V47.9883H34.0156Z" fill="#FF3333"/>
<path d="M36.673 51.5905V47.9883H34.0156V51.5905C34.0156 52.0202 34.3672 52.3717 34.7969 52.3717H37.4542C37.0245 52.3717 36.673 52.0202 36.673 51.5905Z" fill="#B7092B"/>
<path d="M49.5072 14.1123H30.4902C28.7473 19.1362 27.8281 24.7909 27.8281 30.5809C27.8281 36.6 28.8264 42.5164 30.7148 47.6903C30.8145 47.9631 31.0739 48.1446 31.3644 48.1446H48.633C48.9234 48.1446 49.183 47.9631 49.2825 47.6903C51.1709 42.5164 52.1692 36.6 52.1692 30.5809C52.1694 24.7909 51.2502 19.1364 49.5072 14.1123Z" fill="#EEF6FF"/>
<path d="M32.9292 47.6903C31.0406 42.5164 30.0425 36.6 30.0425 30.5809C30.0425 24.7909 30.9617 19.1362 32.7045 14.1123H30.4902C28.7473 19.1362 27.8281 24.7909 27.8281 30.5809C27.8281 36.6 28.8264 42.5164 30.7148 47.6903C30.8145 47.9631 31.0739 48.1446 31.3644 48.1446H33.5788C33.2883 48.1446 33.0289 47.9631 32.9292 47.6903Z" fill="#D9EAFC"/>
<path d="M35.4961 14.1123V16.7051C35.4961 17.1348 35.8477 17.4864 36.2773 17.4864H43.7214C44.1511 17.4864 44.5027 17.1348 44.5027 16.7051V14.1123H35.4961Z" fill="#EA2A3D"/>
<path d="M37.2677 16.7051V14.1123H35.4961V16.7051C35.4961 17.1348 35.8477 17.4864 36.2773 17.4864H38.0489C37.6192 17.4864 37.2677 17.1348 37.2677 16.7051Z" fill="#B7092B"/>
<path d="M40.0003 0C39.8461 0 39.692 0.0514062 39.5652 0.154062C36.0748 2.98047 33.1348 7.26797 31.0634 12.5531C30.8431 13.1155 30.6361 13.6889 30.4375 14.2684H49.563C49.3644 13.6889 49.1573 13.1155 48.937 12.5531C46.8656 7.26797 43.9258 2.98047 40.4353 0.154062C40.3086 0.0514062 40.1545 0 40.0003 0Z" fill="#FF3333"/>
<path d="M41.1075 0.723125C40.8858 0.527656 40.6619 0.3375 40.4355 0.154062C40.3086 0.0514062 40.1545 0 40.0003 0C39.8461 0 39.692 0.0514062 39.5652 0.154062C36.0748 2.98047 33.1348 7.26797 31.0634 12.5531C30.8431 13.1155 30.6361 13.6889 30.4375 14.2684H32.6519C32.8505 13.6889 33.0575 13.1155 33.2778 12.5531C35.215 7.61078 37.9116 3.54172 41.1075 0.723125Z" fill="#B7092B"/>
<path d="M39.9992 36.2421C44.402 36.2421 47.9711 32.673 47.9711 28.2702C47.9711 23.8675 44.402 20.2983 39.9992 20.2983C35.5965 20.2983 32.0273 23.8675 32.0273 28.2702C32.0273 32.673 35.5965 36.2421 39.9992 36.2421Z" fill="#007580"/>
<path d="M40.0009 33.3847C42.8254 33.3847 45.1152 31.095 45.1152 28.2705C45.1152 25.446 42.8254 23.1562 40.0009 23.1562C37.1764 23.1562 34.8867 25.446 34.8867 28.2705C34.8867 31.095 37.1764 33.3847 40.0009 33.3847Z" fill="#69CDFF"/>
<path d="M36.7616 28.2705C36.7616 30.7747 38.5617 32.8572 40.9384 33.2977C40.6344 33.3539 40.3214 33.3848 40.0009 33.3848C37.1763 33.3848 34.8867 31.095 34.8867 28.2705C34.8867 25.4459 37.1764 23.1562 40.0009 23.1562C40.3213 23.1562 40.6344 23.1872 40.9384 23.2434C38.5617 23.6839 36.7616 25.7663 36.7616 28.2705Z" fill="#52BBEF"/>
<path d="M17.2106 27.9274C17.0314 27.9274 16.8698 27.8195 16.8013 27.6538C15.9289 25.5477 15.2858 24.9048 13.1797 24.0324C13.0141 23.9638 12.9062 23.8023 12.9062 23.623C12.9062 23.4438 13.0142 23.2823 13.1797 23.2137C15.2859 22.341 15.9289 21.6979 16.8013 19.592C16.8698 19.4263 17.0314 19.3184 17.2106 19.3184C17.3898 19.3184 17.5514 19.4263 17.62 19.592C18.4925 21.6979 19.1356 22.341 21.2417 23.2137C21.4073 23.2823 21.5153 23.4438 21.5153 23.623C21.5153 23.8023 21.4073 23.964 21.2417 24.0324C19.1356 24.9046 18.4925 25.5477 17.62 27.6538C17.5514 27.8195 17.3898 27.9274 17.2106 27.9274Z" fill="#FF9900"/>
<path d="M17.687 26.7685C16.8147 24.6624 16.1716 24.0194 14.0655 23.147C13.9614 23.1041 13.8803 23.0241 13.8342 22.9263C13.632 23.021 13.4164 23.116 13.1797 23.2141C13.0141 23.2827 12.9062 23.4442 12.9062 23.6235C12.9062 23.8027 13.0142 23.9644 13.1797 24.0328C15.2858 24.9052 15.9289 25.5481 16.8013 27.6542C16.8698 27.8199 17.0314 27.9278 17.2106 27.9278C17.3898 27.9278 17.5514 27.8199 17.62 27.6542C17.718 27.4175 17.8131 27.2019 17.9077 26.9999C17.81 26.9538 17.7302 26.8725 17.687 26.7685Z" fill="#FFAF10"/>
<path d="M64.2914 31.4695C64.1339 31.4695 63.9919 31.3747 63.9316 31.2291C63.1648 29.3778 62.5995 28.8127 60.7483 28.0459C60.6028 27.9858 60.5078 27.8436 60.5078 27.6861C60.5078 27.5284 60.6027 27.3866 60.7483 27.3262C62.5997 26.5592 63.1648 25.9939 63.9316 24.1428C63.9919 23.9972 64.1339 23.9023 64.2914 23.9023C64.4489 23.9023 64.5909 23.9972 64.6513 24.1428C65.4181 25.9941 65.9834 26.5592 67.8348 27.3262C67.9803 27.3866 68.0752 27.5284 68.0752 27.6861C68.0752 27.8436 67.9803 27.9856 67.8347 28.0459C65.9834 28.8127 65.4181 29.3778 64.6513 31.2291C64.5911 31.3745 64.4491 31.4695 64.2914 31.4695Z" fill="white"/>
<path d="M64.7103 30.4501C63.9434 28.5988 63.3783 28.0337 61.5269 27.2668C61.4355 27.229 61.3641 27.1588 61.3236 27.0728C61.1459 27.1559 60.9563 27.2395 60.7483 27.3257C60.6028 27.386 60.5078 27.5279 60.5078 27.6856C60.5078 27.8431 60.6027 27.9851 60.7483 28.0454C62.5997 28.8121 63.1648 29.3773 63.9316 31.2285C63.9919 31.3742 64.1339 31.469 64.2914 31.469C64.4489 31.469 64.5909 31.3742 64.6513 31.2285C64.7373 31.0206 64.8209 30.8309 64.9042 30.6532C64.8184 30.6129 64.7483 30.5415 64.7103 30.4501Z" fill="#D9EAFC"/>
<path d="M60.2289 15.0112C60.0453 15.0112 59.8798 14.9006 59.8095 14.731C58.9161 12.5738 58.2575 11.9153 56.1003 11.022C55.9308 10.9518 55.8203 10.7862 55.8203 10.6028C55.8203 10.419 55.9309 10.2537 56.1003 10.1834C58.2577 9.28963 58.9163 8.63103 59.8095 6.47416C59.8798 6.30447 60.0453 6.19385 60.2289 6.19385C60.4125 6.19385 60.578 6.30447 60.6483 6.47416C61.5419 8.63119 62.2005 9.28978 64.3577 10.1834C64.5272 10.2537 64.6377 10.419 64.6377 10.6028C64.6377 10.7862 64.527 10.9518 64.3575 11.022C62.2003 11.9153 61.5419 12.574 60.6481 14.731C60.578 14.9006 60.4125 15.0112 60.2289 15.0112Z" fill="#FF9900"/>
<path d="M60.717 13.8238C59.8234 11.6668 59.1648 11.0082 57.0077 10.1148C56.9011 10.0707 56.8181 9.98883 56.7708 9.88867C56.5639 9.9857 56.3428 10.083 56.1003 10.1834C55.9308 10.2537 55.8203 10.419 55.8203 10.6027C55.8203 10.7862 55.9309 10.9518 56.1003 11.022C58.2575 11.9154 58.9163 12.574 59.8095 14.731C59.8798 14.9005 60.0453 15.0112 60.2289 15.0112C60.4125 15.0112 60.578 14.9005 60.6483 14.731C60.7488 14.4885 60.8461 14.2676 60.943 14.0607C60.8428 14.0135 60.7611 13.9304 60.717 13.8238Z" fill="#EF8318"/>
</svg>
