<svg width="16" height="16" viewBox="0 0 16 16" fill="none" xmlns="http://www.w3.org/2000/svg">
<path d="M0.75 2.75757V6.71211H4.70455" stroke="#FF9900" stroke-width="1.5" stroke-linecap="round" stroke-linejoin="round"/>
<path d="M15.2475 13.3029V9.34839H11.293" stroke="#FF9900" stroke-width="1.5" stroke-linecap="round" stroke-linejoin="round"/>
<path d="M13.5957 6.05308C13.2614 5.10847 12.6933 4.26392 11.9444 3.59825C11.1954 2.93257 10.29 2.46747 9.31272 2.24634C8.33541 2.02522 7.318 2.05526 6.35544 2.33368C5.39288 2.61211 4.51654 3.12983 3.80818 3.83854L0.75 6.71217M15.25 9.34854L12.1918 12.2222C11.4835 12.9309 10.6071 13.4486 9.64456 13.727C8.682 14.0055 7.66459 14.0355 6.68728 13.8144C5.70997 13.5932 4.8046 13.1281 4.05565 12.4625C3.3067 11.7968 2.73859 10.9522 2.40432 10.0076" stroke="#FF9900" stroke-width="1.5" stroke-linecap="round" stroke-linejoin="round"/>
</svg>
