<svg width="16" height="17" viewBox="0 0 16 17" fill="none" xmlns="http://www.w3.org/2000/svg">
<path d="M14.9979 13.617V9.79883H11.1797" stroke="white" stroke-width="2" stroke-linecap="round" stroke-linejoin="round"/>
<path d="M1 3.43555V7.25373H4.81818" stroke="white" stroke-width="2" stroke-linecap="round" stroke-linejoin="round"/>
<path d="M13.4027 6.61746C13.08 5.70541 12.5315 4.88999 11.8083 4.24727C11.0852 3.60455 10.2111 3.15549 9.26745 2.94199C8.32384 2.72848 7.34152 2.75749 6.41215 3.02631C5.48278 3.29513 4.63666 3.795 3.95273 4.47928L1 7.25382M15 9.79928L12.0473 12.5738C11.3633 13.2581 10.5172 13.758 9.58785 14.0268C8.65848 14.2956 7.67616 14.3246 6.73255 14.1111C5.78893 13.8976 4.91478 13.4485 4.19166 12.8058C3.46854 12.1631 2.92002 11.3477 2.59727 10.4356" stroke="white" stroke-width="2" stroke-linecap="round" stroke-linejoin="round"/>
</svg>
