<svg width="16" height="17" viewBox="0 0 16 17" fill="none" xmlns="http://www.w3.org/2000/svg">
<path d="M7.87511 9.37521C8.35842 9.37521 8.75021 8.98342 8.75021 8.50011C8.75021 8.0168 8.35842 7.625 7.87511 7.625C7.3918 7.625 7 8.0168 7 8.50011C7 8.98342 7.3918 9.37521 7.87511 9.37521Z" fill="white" stroke="white" stroke-width="2" stroke-linecap="round" stroke-linejoin="round"/>
<path d="M7.87511 3.25021C8.35842 3.25021 8.75021 2.85842 8.75021 2.37511C8.75021 1.8918 8.35842 1.5 7.87511 1.5C7.3918 1.5 7 1.8918 7 2.37511C7 2.85842 7.3918 3.25021 7.87511 3.25021Z" fill="white" stroke="white" stroke-width="2" stroke-linecap="round" stroke-linejoin="round"/>
<path d="M7.87511 15.5002C8.35842 15.5002 8.75021 15.1084 8.75021 14.6251C8.75021 14.1418 8.35842 13.75 7.87511 13.75C7.3918 13.75 7 14.1418 7 14.6251C7 15.1084 7.3918 15.5002 7.87511 15.5002Z" fill="white" stroke="white" stroke-width="2" stroke-linecap="round" stroke-linejoin="round"/>
</svg>
