<svg width="20" height="20" viewBox="0 0 20 20" fill="none" xmlns="http://www.w3.org/2000/svg">
<path d="M10.125 11.125C10.7463 11.125 11.25 10.6213 11.25 10C11.25 9.37868 10.7463 8.875 10.125 8.875C9.50368 8.875 9 9.37868 9 10C9 10.6213 9.50368 11.125 10.125 11.125Z" fill="#4A4A4A" stroke="#4A4A4A" stroke-width="2" stroke-linecap="round" stroke-linejoin="round"/>
<path d="M10.125 3.25C10.7463 3.25 11.25 2.74632 11.25 2.125C11.25 1.50368 10.7463 1 10.125 1C9.50368 1 9 1.50368 9 2.125C9 2.74632 9.50368 3.25 10.125 3.25Z" fill="#4A4A4A" stroke="#4A4A4A" stroke-width="2" stroke-linecap="round" stroke-linejoin="round"/>
<path d="M10.125 19C10.7463 19 11.25 18.4963 11.25 17.875C11.25 17.2537 10.7463 16.75 10.125 16.75C9.50368 16.75 9 17.2537 9 17.875C9 18.4963 9.50368 19 10.125 19Z" fill="#4A4A4A" stroke="#4A4A4A" stroke-width="2" stroke-linecap="round" stroke-linejoin="round"/>
</svg>
