<svg width="16" height="16" viewBox="0 0 16 16" fill="none" xmlns="http://www.w3.org/2000/svg">
<path d="M8 8.875C8.48325 8.875 8.875 8.48325 8.875 8C8.875 7.51675 8.48325 7.125 8 7.125C7.51675 7.125 7.125 7.51675 7.125 8C7.125 8.48325 7.51675 8.875 8 8.875Z" fill="#4A4A4A" stroke="#4A4A4A" stroke-width="2" stroke-linecap="round" stroke-linejoin="round"/>
<path d="M8 2.75C8.48325 2.75 8.875 2.35825 8.875 1.875C8.875 1.39175 8.48325 1 8 1C7.51675 1 7.125 1.39175 7.125 1.875C7.125 2.35825 7.51675 2.75 8 2.75Z" fill="#4A4A4A" stroke="#4A4A4A" stroke-width="2" stroke-linecap="round" stroke-linejoin="round"/>
<path d="M8 15C8.48325 15 8.875 14.6082 8.875 14.125C8.875 13.6418 8.48325 13.25 8 13.25C7.51675 13.25 7.125 13.6418 7.125 14.125C7.125 14.6082 7.51675 15 8 15Z" fill="#4A4A4A" stroke="#4A4A4A" stroke-width="2" stroke-linecap="round" stroke-linejoin="round"/>
</svg>
