<svg width="16" height="16" viewBox="0 0 16 16" fill="none" xmlns="http://www.w3.org/2000/svg">
<path d="M7.87511 8.87521C8.35842 8.87521 8.75021 8.48342 8.75021 8.00011C8.75021 7.5168 8.35842 7.125 7.87511 7.125C7.3918 7.125 7 7.5168 7 8.00011C7 8.48342 7.3918 8.87521 7.87511 8.87521Z" fill="#007580" stroke="#007580" stroke-width="2" stroke-linecap="round" stroke-linejoin="round"/>
<path d="M7.87511 2.75021C8.35842 2.75021 8.75021 2.35842 8.75021 1.87511C8.75021 1.3918 8.35842 1 7.87511 1C7.3918 1 7 1.3918 7 1.87511C7 2.35842 7.3918 2.75021 7.87511 2.75021Z" fill="#007580" stroke="#007580" stroke-width="2" stroke-linecap="round" stroke-linejoin="round"/>
<path d="M7.87511 15.0002C8.35842 15.0002 8.75021 14.6084 8.75021 14.1251C8.75021 13.6418 8.35842 13.25 7.87511 13.25C7.3918 13.25 7 13.6418 7 14.1251C7 14.6084 7.3918 15.0002 7.87511 15.0002Z" fill="#007580" stroke="#007580" stroke-width="2" stroke-linecap="round" stroke-linejoin="round"/>
</svg>
