<svg width="48" height="48" viewBox="0 0 48 48" fill="none" xmlns="http://www.w3.org/2000/svg">
<g filter="url(#filter0_d_1075_49567)">
<circle opacity="0.68" cx="23" cy="20" r="20" fill="white"/>
<path d="M23.0684 10.4004L14.8398 13.1432V21.3718C14.8398 25.9168 18.5234 29.6003 23.0684 29.6003C27.6134 29.6003 31.2969 25.9168 31.2969 21.3718V13.1432L23.0684 10.4004ZM29.7541 21.3718C29.7541 25.0639 26.7605 28.0575 23.0684 28.0575C19.3763 28.0575 16.3827 25.0639 16.3827 21.3718V14.3004L23.0684 11.9432L29.7541 14.3004V21.3718Z" fill="#007580"/>
<path d="M20.2041 19.2086C20.1326 19.1368 20.0476 19.0798 19.954 19.0409C19.8604 19.002 19.76 18.982 19.6587 18.982C19.5573 18.982 19.457 19.002 19.3634 19.0409C19.2698 19.0798 19.1848 19.1368 19.1133 19.2086C19.0415 19.2801 18.9845 19.3651 18.9456 19.4587C18.9067 19.5523 18.8867 19.6526 18.8867 19.754C18.8867 19.8553 18.9067 19.9557 18.9456 20.0492C18.9845 20.1428 19.0415 20.2278 19.1133 20.2993L21.8862 23.0722L21.9312 23.1172C21.9988 23.1849 22.0791 23.2387 22.1676 23.2754C22.256 23.312 22.3508 23.3309 22.4465 23.3309C22.5423 23.3309 22.6371 23.312 22.7255 23.2754C22.8139 23.2387 22.8943 23.1849 22.9619 23.1172L27.7512 18.3279C27.8189 18.2603 27.8727 18.1799 27.9094 18.0915C27.946 18.0031 27.9649 17.9083 27.9649 17.8125C27.9649 17.7168 27.946 17.622 27.9094 17.5336C27.8727 17.4451 27.8189 17.3648 27.7512 17.2972L27.6912 17.2372C27.6235 17.1694 27.5432 17.1157 27.4548 17.079C27.3663 17.0423 27.2715 17.0234 27.1758 17.0234C27.0801 17.0234 26.9853 17.0423 26.8968 17.079C26.8084 17.1157 26.7281 17.1694 26.6605 17.2372L22.4455 21.45L20.2041 19.2086Z" fill="#007580"/>
</g>
<defs>
<filter id="filter0_d_1075_49567" x="0" y="0" width="48" height="48" filterUnits="userSpaceOnUse" color-interpolation-filters="sRGB">
<feFlood flood-opacity="0" result="BackgroundImageFix"/>
<feColorMatrix in="SourceAlpha" type="matrix" values="0 0 0 0 0 0 0 0 0 0 0 0 0 0 0 0 0 0 127 0" result="hardAlpha"/>
<feOffset dx="1" dy="4"/>
<feGaussianBlur stdDeviation="2"/>
<feComposite in2="hardAlpha" operator="out"/>
<feColorMatrix type="matrix" values="0 0 0 0 0 0 0 0 0 0 0 0 0 0 0 0 0 0 0.2 0"/>
<feBlend mode="normal" in2="BackgroundImageFix" result="effect1_dropShadow_1075_49567"/>
<feBlend mode="normal" in="SourceGraphic" in2="effect1_dropShadow_1075_49567" result="shape"/>
</filter>
</defs>
</svg>
