<svg width="48" height="48" viewBox="0 0 48 48" fill="none" xmlns="http://www.w3.org/2000/svg">
<g filter="url(#filter0_d_1075_49561)">
<circle opacity="0.68" cx="23" cy="20" r="20" fill="white"/>
<path d="M18.7593 28.8011H16.1194C15.6526 28.8011 15.2049 28.6156 14.8749 28.2856C14.5448 27.9555 14.3594 27.5078 14.3594 27.0411V20.8811C14.3594 20.4143 14.5448 19.9667 14.8749 19.6366C15.2049 19.3065 15.6526 19.1211 16.1194 19.1211H18.7593M24.9193 17.3611V13.8412C24.9193 13.141 24.6412 12.4695 24.1461 11.9744C23.651 11.4793 22.9795 11.2012 22.2793 11.2012L18.7593 19.1211V28.8011H28.6857C29.1101 28.8059 29.522 28.6571 29.8454 28.3822C30.1689 28.1073 30.382 27.7247 30.4457 27.3051L31.6601 19.3851C31.6984 19.1329 31.6813 18.8753 31.6102 18.6303C31.5391 18.3853 31.4155 18.1587 31.2481 17.9661C31.0807 17.7736 30.8734 17.6198 30.6407 17.5153C30.4079 17.4109 30.1552 17.3582 29.9001 17.3611H24.9193Z" stroke="#007580" stroke-width="2" stroke-linecap="round" stroke-linejoin="round"/>
</g>
<defs>
<filter id="filter0_d_1075_49561" x="0" y="0" width="48" height="48" filterUnits="userSpaceOnUse" color-interpolation-filters="sRGB">
<feFlood flood-opacity="0" result="BackgroundImageFix"/>
<feColorMatrix in="SourceAlpha" type="matrix" values="0 0 0 0 0 0 0 0 0 0 0 0 0 0 0 0 0 0 127 0" result="hardAlpha"/>
<feOffset dx="1" dy="4"/>
<feGaussianBlur stdDeviation="2"/>
<feComposite in2="hardAlpha" operator="out"/>
<feColorMatrix type="matrix" values="0 0 0 0 0 0 0 0 0 0 0 0 0 0 0 0 0 0 0.2 0"/>
<feBlend mode="normal" in2="BackgroundImageFix" result="effect1_dropShadow_1075_49561"/>
<feBlend mode="normal" in="SourceGraphic" in2="effect1_dropShadow_1075_49561" result="shape"/>
</filter>
</defs>
</svg>
