<svg width="80" height="80" viewBox="0 0 80 80" fill="none" xmlns="http://www.w3.org/2000/svg">
<g clip-path="url(#clip0_2057_43990)">
<path d="M16.1968 9.37791L11.875 21.2525L21.3127 22.8148L30.6243 21.2525L26.3026 9.37791L21.2016 7.81543L16.1968 9.37791Z" fill="#FFEDE4"/>
<path d="M30.6246 21.2521L21.3125 22.8144L21.25 22.8035V7.8291L26.3029 9.37752L30.6246 21.2521Z" fill="#FFDDCE"/>
<path d="M23.4487 1.52979C22.694 -0.499408 19.8111 -0.50222 19.0554 1.52979L16.1992 9.37766H26.305L23.4487 1.52979Z" fill="#009638"/>
<path d="M26.3029 9.37796H21.25V0.00634766C22.1594 0.00634766 23.0687 0.514154 23.4468 1.52977L26.3029 9.37796Z" fill="#009638"/>
<path d="M75.9981 0.689639L0.688545 75.9992C-0.782844 77.4706 0.259487 80.0001 2.34571 80.0001H77.6553C78.9497 80.0001 79.999 78.9508 79.999 77.6564V2.34681C79.999 0.265582 77.4726 -0.7855 75.9981 0.689639ZM65.937 65.9381H30.6362L65.937 30.6373V65.9381Z" fill="#CEE8FF"/>
<path d="M75.9971 0.688928L40 36.686V56.5744L65.9366 30.6378V65.938H40V80H77.6549C78.9486 80 79.9986 78.9501 79.9986 77.6563V2.34672C79.9984 0.265496 77.4719 -0.786055 75.9971 0.688928Z" fill="#AEDAFF"/>
<path d="M30.6243 21.2524H11.875V65.7819L13.4375 68.1256H29.0618L30.6243 65.7819V21.2524Z" fill="#007580"/>
<path d="M30.6246 21.2524V65.7819L29.0621 68.1256H21.25V21.2524H30.6246Z" fill="#1596A3"/>
<path d="M13.4375 68.1255L11.875 70.4692V77.6565C11.875 78.9508 12.9244 80.0002 14.2187 80.0002H28.2807C29.5751 80.0002 30.6245 78.9508 30.6245 77.6565V70.4692L29.062 68.1255H13.4375Z" fill="#007580"/>
<path d="M30.6247 70.4691V77.6563C30.6247 78.9501 29.5747 80 28.281 80H21.25V68.1255H29.0623L30.6247 70.4691Z" fill="#1596A3"/>
<path d="M58.593 2.34665V14.2212L57.0305 16.649L58.593 18.9085V23.752L57.0305 26.0236L58.593 28.4393V32.9704L57.0305 35.35L58.593 37.6576V42.5012L57.0305 45.013L58.593 47.1885V52.032L57.0305 54.4839L58.593 56.7193V61.5628L57.0305 63.9545L58.593 66.2501V77.6559C58.593 78.9497 57.543 79.9997 56.2493 79.9997H37.6562C36.3625 79.9997 35.3125 78.9497 35.3125 77.6559V2.34665C35.3125 1.05292 36.3625 0.00292969 37.6562 0.00292969H56.2493C57.543 0.00292969 58.593 1.05292 58.593 2.34665Z" fill="#FF9900"/>
<path d="M58.5933 14.2212L57.0308 16.6493L58.5933 18.9086V23.7522L57.0308 26.024L58.5933 28.4396V32.9707L57.0308 35.3503L58.5933 37.6581V42.5016L57.0308 45.0141L58.5933 47.1891V52.0326L57.0308 54.4842L58.5933 56.7201V61.5636L57.0308 63.9558L58.5933 66.2511V77.6569C58.5933 78.9506 57.5433 80.0006 56.2496 80.0006H46.9531V0.00292969H56.2496C57.5433 0.00292969 58.5933 1.05292 58.5933 2.34665V14.2212Z" fill="#F7AD3F"/>
<path d="M58.5935 23.7521V28.4394H50C48.7062 28.4394 47.6562 27.3894 47.6562 26.0957C47.6562 24.8019 48.7062 23.752 50 23.752H58.5935V23.7521Z" fill="white"/>
<path d="M58.5935 14.2213V18.9086H50C48.7062 18.9086 47.6562 17.8586 47.6562 16.5649C47.6562 15.2712 48.7062 14.2212 50 14.2212H58.5935V14.2213Z" fill="white"/>
<path d="M58.5935 61.5631V66.2504H50C48.7062 66.2504 47.6562 65.2004 47.6562 63.9067C47.6562 62.613 48.7062 61.563 50 61.563H58.5935V61.5631Z" fill="white"/>
<path d="M58.5935 52.0324V56.7197H50C48.7062 56.7197 47.6562 55.6697 47.6562 54.3759C47.6562 53.0822 48.7062 52.0322 50 52.0322H58.5935V52.0324Z" fill="white"/>
<path d="M58.5935 42.5016V47.1889H50C48.7062 47.1889 47.6562 46.1389 47.6562 44.8452C47.6562 43.5515 48.7062 42.5015 50 42.5015H58.5935V42.5016Z" fill="white"/>
<path d="M58.5935 32.9709V37.6581H50C48.7062 37.6581 47.6562 36.6082 47.6562 35.3144C47.6562 34.0207 48.7062 32.9707 50 32.9707H58.5935V32.9709Z" fill="white"/>
<path d="M11.875 65.7817H30.6243V70.469H11.875V65.7817Z" fill="#009638"/>
<path d="M21.25 65.7817H30.6246V70.469H21.25V65.7817Z" fill="#009638"/>
</g>
<defs>
<clipPath id="clip0_2057_43990">
<rect width="80" height="80" fill="white"/>
</clipPath>
</defs>
</svg>
