<svg width="6" height="12" viewBox="0 0 6 12" fill="none" xmlns="http://www.w3.org/2000/svg">
<path d="M3.28284 0.717157C3.12663 0.560947 2.87337 0.560947 2.71716 0.717157L0.171573 3.26274C0.0153631 3.41895 0.0153631 3.67222 0.171573 3.82843C0.327783 3.98464 0.581048 3.98464 0.737258 3.82843L3 1.56569L5.26274 3.82843C5.41895 3.98464 5.67222 3.98464 5.82843 3.82843C5.98464 3.67222 5.98464 3.41895 5.82843 3.26274L3.28284 0.717157ZM3.4 6L3.4 1L2.6 1L2.6 6L3.4 6Z" fill="black"/>
<path d="M2.71716 11.2828C2.87337 11.4391 3.12663 11.4391 3.28284 11.2828L5.82843 8.73726C5.98464 8.58105 5.98464 8.32778 5.82843 8.17157C5.67222 8.01536 5.41895 8.01536 5.26274 8.17157L3 10.4343L0.737258 8.17157C0.581049 8.01536 0.327783 8.01536 0.171573 8.17157C0.0153633 8.32778 0.0153633 8.58105 0.171573 8.73726L2.71716 11.2828ZM2.6 6L2.6 11L3.4 11L3.4 6L2.6 6Z" fill="black"/>
</svg>
