<svg width="80" height="80" viewBox="0 0 80 80" fill="none" xmlns="http://www.w3.org/2000/svg">
<path d="M7.52294 0C3.36811 0 0 3.36811 0 7.52278V72.9683C0 74.2627 1.04937 75.312 2.34374 75.312H49.3748C50.6692 75.312 51.7185 74.2627 51.7185 72.9683V0.468592L7.52294 0Z" fill="#EDF5FF"/>
<path d="M51.7186 0.468847V72.9686C51.7186 74.2623 50.6687 75.3123 49.3749 75.3123H25.8594V0.193848L51.7186 0.468847Z" fill="#CEE8FF"/>
<path d="M7.51953 0H51.3056C55.462 0 58.8315 3.36952 58.8315 7.52591V11.9478C58.8315 13.2421 57.7822 14.2915 56.4878 14.2915H17.3892C16.0948 14.2915 15.0454 13.2421 15.0454 11.9478V7.52591C15.0454 3.36936 11.6759 0 7.51953 0Z" fill="#CEE8FF"/>
<path d="M58.8296 7.52653V11.9484C58.8296 13.2421 57.7811 14.2921 56.4858 14.2921H25.8594V0H51.3046C55.4608 0 58.8296 3.36874 58.8296 7.52653Z" fill="#AEDAFF"/>
<path d="M15.374 24.2021L12.4219 27.1541L11.7354 26.4677C10.8202 25.5524 9.33617 25.5524 8.42086 26.4677C7.50555 27.383 7.50555 28.8669 8.42086 29.7822L10.7646 32.126C11.6797 33.0413 13.1638 33.0414 14.0791 32.126L18.6885 27.5166C19.6038 26.6013 19.6038 25.1174 18.6885 24.2021C17.7733 23.2868 16.2893 23.2868 15.374 24.2021Z" fill="#007580"/>
<path d="M15.374 38.4209L12.4219 41.373L11.7354 40.6865C10.8202 39.7713 9.33617 39.7713 8.42086 40.6865C7.50555 41.6016 7.50555 43.0857 8.42086 44.001L10.7646 46.3447C11.6801 47.26 13.1638 47.26 14.0791 46.3447L18.6885 41.7354C19.6038 40.8202 19.6038 39.3362 18.6885 38.4209C17.7733 37.5055 16.2893 37.5055 15.374 38.4209Z" fill="#007580"/>
<path d="M15.374 52.4193L12.4219 55.3714L11.7354 54.6849C10.8202 53.7697 9.33617 53.7697 8.42086 54.6849C7.50555 55.6 7.50555 57.0841 8.42086 57.9994L10.7646 60.3431C11.6801 61.2585 13.1638 61.2585 14.0791 60.3431L18.6885 55.7338C19.6038 54.8186 19.6038 53.3346 18.6885 52.4193C17.7733 51.5041 16.2893 51.5041 15.374 52.4193Z" fill="#007580"/>
<path d="M25.7031 30.625H41.6406C42.9349 30.625 43.9843 29.5756 43.9843 28.2812C43.9843 26.9869 42.9349 25.9375 41.6406 25.9375H25.7031C24.4087 25.9375 23.3594 26.9869 23.3594 28.2812C23.3594 29.5756 24.4087 30.625 25.7031 30.625Z" fill="#007580"/>
<path d="M43.9843 28.2812C43.9843 29.575 42.9343 30.625 41.6406 30.625H25.8594V25.9375H41.6406C42.9343 25.9375 43.9843 26.9875 43.9843 28.2812Z" fill="#00CA7D"/>
<path d="M41.6406 40H25.7031C24.4087 40 23.3594 41.0494 23.3594 42.3437C23.3594 43.6381 24.4087 44.6875 25.7031 44.6875H41.6406C42.9349 44.6875 43.9843 43.6381 43.9843 42.3437C43.9843 41.0494 42.9349 40 41.6406 40Z" fill="#007580"/>
<path d="M43.9843 42.3437C43.9843 43.6375 42.9343 44.6875 41.6406 44.6875H25.8594V40H41.6406C42.9343 40 43.9843 41.05 43.9843 42.3437Z" fill="#00CA7D"/>
<path d="M41.6406 53.998H25.7031C24.4087 53.998 23.3594 55.0474 23.3594 56.3418C23.3594 57.6362 24.4087 58.6855 25.7031 58.6855H41.6406C42.9349 58.6855 43.9843 57.6362 43.9843 56.3418C43.9843 55.0474 42.9349 53.998 41.6406 53.998Z" fill="#007580"/>
<path d="M43.9843 56.3418C43.9843 57.6355 42.9343 58.6855 41.6406 58.6855H25.8594V53.998H41.6406C42.9343 53.998 43.9843 55.048 43.9843 56.3418Z" fill="#00CA7D"/>
<path d="M51.789 79.9998C64.3016 79.9998 74.4451 69.8563 74.4451 57.3437C74.4451 44.831 64.3016 34.6875 51.789 34.6875C39.2763 34.6875 29.1328 44.831 29.1328 57.3437C29.1328 69.8563 39.2763 79.9998 51.789 79.9998Z" fill="#FF9900"/>
<path d="M74.4452 57.3437C74.4452 69.8358 64.2812 79.9998 51.7891 79.9998V34.6875C64.2812 34.6875 74.4452 44.8515 74.4452 57.3437Z" fill="#FF4800"/>
<path d="M51.789 75.3124C61.7128 75.3124 69.7577 67.2675 69.7577 57.3437C69.7577 47.4199 61.7128 39.375 51.789 39.375C41.8652 39.375 33.8203 47.4199 33.8203 57.3437C33.8203 67.2675 41.8652 75.3124 51.789 75.3124Z" fill="#FFDA2D"/>
<path d="M69.7577 57.3437C69.7577 67.2515 61.6968 75.3124 51.7891 75.3124V39.375C61.6968 39.375 69.7577 47.4359 69.7577 57.3437Z" fill="#FFAA17"/>
<path d="M51.789 69.8437C58.6925 69.8437 64.289 64.2472 64.289 57.3437C64.289 50.4402 58.6925 44.8438 51.789 44.8438C44.8855 44.8438 39.2891 50.4402 39.2891 57.3437C39.2891 64.2472 44.8855 69.8437 51.789 69.8437Z" fill="#FF9900"/>
<path d="M64.289 57.3437C64.289 64.2359 58.6812 69.8437 51.7891 69.8437V44.8438C58.6812 44.8438 64.289 50.4515 64.289 57.3437Z" fill="#FF4800"/>
<path d="M51.789 65.1562C56.1037 65.1562 59.6015 61.6584 59.6015 57.3437C59.6015 53.029 56.1037 49.5312 51.789 49.5312C47.4743 49.5312 43.9766 53.029 43.9766 57.3437C43.9766 61.6584 47.4743 65.1562 51.789 65.1562Z" fill="#FFDA2D"/>
<path d="M59.6015 57.3437C59.6015 61.6515 56.0969 65.1562 51.7891 65.1562V49.5312C56.0969 49.5312 59.6015 53.0359 59.6015 57.3437Z" fill="#FFAA17"/>
<path d="M78.3975 38.0914L72.88 36.2523L71.0409 30.7348C70.4911 29.0853 68.3919 28.5872 67.1602 29.8187L58.8738 38.1051C58.246 38.7328 58.0269 39.6614 58.3075 40.5035L60.0593 45.7585L50.1318 55.686C49.2165 56.6011 49.2165 58.0852 50.1318 59.0005C51.0471 59.916 52.531 59.9158 53.4463 59.0005L63.3738 49.073C68.7656 50.829 68.7038 50.9449 69.3695 50.9449C69.9814 50.9449 70.5805 50.7052 71.027 50.2583L79.3134 41.972C80.5431 40.7428 80.0498 38.6421 78.3975 38.0914Z" fill="#0066B2"/>
<path d="M79.314 41.9719L71.0265 50.2594C70.5796 50.7063 69.9812 50.9453 69.3687 50.9453C68.7031 50.9453 68.7656 50.8297 63.3734 49.0735L53.4469 59.0016C52.9891 59.4594 52.3891 59.6875 51.7891 59.6875V54.0281L60.0593 45.7594L58.3078 40.5048C58.0265 39.6626 58.2453 38.7329 58.8734 38.1063L67.1609 29.8189C68.3921 28.5876 70.4906 29.086 71.0405 30.736L72.8796 36.2532L78.3968 38.0923C80.0499 38.6423 80.5436 40.7438 79.314 41.9719Z" fill="#007580"/>
</svg>
