<svg width="42" height="42" viewBox="0 0 42 42" fill="none" xmlns="http://www.w3.org/2000/svg">
<path d="M21 42C32.598 42 42 32.598 42 21C42 9.40202 32.598 0 21 0C9.40202 0 0 9.40202 0 21C0 32.598 9.40202 42 21 42Z" fill="#5A99EC"/>
<path d="M16.7588 33.0914C27.0255 33.0914 32.6255 24.595 32.6255 17.2248C32.6255 16.9852 32.6255 16.7457 32.6255 16.5061C33.7164 15.7162 34.6582 14.7386 35.4068 13.619C34.3889 14.0679 33.3101 14.3636 32.2055 14.4963C33.3697 13.7987 34.2408 12.7019 34.657 11.4101C33.5631 12.0606 32.3655 12.5183 31.1166 12.7634C30.3514 11.9486 29.359 11.3825 28.2682 11.1385C27.1773 10.8944 26.0383 10.9838 24.9989 11.3948C23.9594 11.8059 23.0674 12.5198 22.4386 13.444C21.8098 14.3681 21.473 15.4599 21.4721 16.5777C21.4704 17.0059 21.5184 17.4329 21.6153 17.8501C19.3982 17.739 17.2292 17.1627 15.2493 16.1588C13.2694 15.1549 11.5227 13.7458 10.1228 12.023C9.40891 13.2506 9.19007 14.7042 9.51091 16.0876C9.83175 17.471 10.6681 18.6799 11.8495 19.4679C10.9638 19.4408 10.0975 19.2018 9.32326 18.771C9.32164 18.7948 9.32164 18.8187 9.32326 18.8426C9.32363 20.13 9.76933 21.3777 10.5847 22.374C11.4002 23.3703 12.5351 24.0539 13.7971 24.3088C12.9763 24.5316 12.1156 24.5646 11.2802 24.4052C11.6385 25.5117 12.3325 26.4792 13.2658 27.1733C14.1991 27.8674 15.3253 28.2537 16.4881 28.2786C14.5124 29.8277 12.0735 30.6681 9.56283 30.6648C9.11885 30.6656 8.67522 30.6396 8.23438 30.587C10.7839 32.2244 13.7506 33.0938 16.7806 33.0914" fill="white"/>
</svg>
