<svg width="54" height="54" viewBox="0 0 54 54" fill="none" xmlns="http://www.w3.org/2000/svg">
<g filter="url(#filter0_d_1075_51943)">
<path d="M26 44C37.598 44 47 34.598 47 23C47 11.402 37.598 2 26 2C14.402 2 5 11.402 5 23C5 34.598 14.402 44 26 44Z" fill="#5A99EC"/>
<path d="M21.7549 35.0924C32.0216 35.0924 37.6216 26.596 37.6216 19.2258C37.6216 18.9862 37.6216 18.7466 37.6216 18.5071C38.7125 17.7172 39.6543 16.7396 40.4029 15.62C39.385 16.0689 38.3062 16.3645 37.2016 16.4973C38.3658 15.7996 39.2369 14.7029 39.6531 13.4111C38.5592 14.0616 37.3616 14.5193 36.1127 14.7644C35.3475 13.9496 34.3551 13.3835 33.2643 13.1394C32.1734 12.8954 31.0344 12.9847 29.995 13.3958C28.9555 13.8069 28.0635 14.5208 27.4347 15.4449C26.8058 16.3691 26.4691 17.4608 26.4682 18.5786C26.4664 19.0069 26.5145 19.4339 26.6114 19.8511C24.3943 19.7399 22.2253 19.1637 20.2454 18.1598C18.2655 17.1559 16.5188 15.7468 15.1189 14.024C14.405 15.2516 14.1862 16.7052 14.507 18.0886C14.8278 19.4719 15.6642 20.6808 16.8456 21.4689C15.9599 21.4418 15.0936 21.2028 14.3194 20.772C14.3177 20.7958 14.3177 20.8197 14.3194 20.8435C14.3197 22.131 14.7654 23.3787 15.5808 24.375C16.3962 25.3713 17.5312 26.0548 18.7932 26.3098C17.9724 26.5326 17.1117 26.5656 16.2763 26.4062C16.6346 27.5127 17.3286 28.4802 18.2619 29.1743C19.1952 29.8684 20.3214 30.2547 21.4842 30.2795C19.5085 31.8287 17.0696 32.669 14.5589 32.6657C14.1149 32.6666 13.6713 32.6406 13.2305 32.588C15.78 34.2254 18.7467 35.0948 21.7767 35.0924" fill="white"/>
</g>
<defs>
<filter id="filter0_d_1075_51943" x="0" y="0" width="54" height="54" filterUnits="userSpaceOnUse" color-interpolation-filters="sRGB">
<feFlood flood-opacity="0" result="BackgroundImageFix"/>
<feColorMatrix in="SourceAlpha" type="matrix" values="0 0 0 0 0 0 0 0 0 0 0 0 0 0 0 0 0 0 127 0" result="hardAlpha"/>
<feOffset dx="1" dy="4"/>
<feGaussianBlur stdDeviation="3"/>
<feComposite in2="hardAlpha" operator="out"/>
<feColorMatrix type="matrix" values="0 0 0 0 0 0 0 0 0 0 0 0 0 0 0 0 0 0 0.2 0"/>
<feBlend mode="normal" in2="BackgroundImageFix" result="effect1_dropShadow_1075_51943"/>
<feBlend mode="normal" in="SourceGraphic" in2="effect1_dropShadow_1075_51943" result="shape"/>
</filter>
</defs>
</svg>
