<svg width="28" height="23" viewBox="0 0 28 23" fill="none" xmlns="http://www.w3.org/2000/svg">
<path d="M8.75881 22.0914C19.0255 22.0914 24.6255 13.595 24.6255 6.22478C24.6255 5.98522 24.6255 5.74567 24.6255 5.50611C25.7164 4.7162 26.6582 3.73861 27.4068 2.619C26.3889 3.06791 25.3101 3.36357 24.2055 3.49633C25.3697 2.79866 26.2408 1.70194 26.657 0.410111C25.5631 1.06058 24.3655 1.51834 23.1166 1.76344C22.3514 0.948624 21.359 0.382495 20.2682 0.138463C19.1773 -0.10557 18.0383 -0.0162472 16.9989 0.394844C15.9594 0.805935 15.0674 1.51983 14.4386 2.44397C13.8098 3.36811 13.473 4.45986 13.4721 5.57766C13.4704 6.00592 13.5184 6.43294 13.6153 6.8501C11.3982 6.73896 9.22924 6.16274 7.24932 5.15885C5.2694 4.15495 3.52274 2.74583 2.12282 1.023C1.40891 2.25058 1.19007 3.70423 1.51091 5.08759C1.83175 6.47095 2.66811 7.67987 3.84948 8.46789C2.96382 8.44081 2.09755 8.20184 1.32326 7.771C1.32164 7.79483 1.32164 7.81873 1.32326 7.84255C1.32363 9.13 1.76933 10.3777 2.58474 11.374C3.40016 12.3703 4.5351 13.0539 5.79706 13.3088C4.97631 13.5316 4.11557 13.5646 3.28016 13.4052C3.63852 14.5117 4.33252 15.4792 5.2658 16.1733C6.19908 16.8674 7.32531 17.2537 8.48814 17.2786C6.5124 18.8277 4.07347 19.6681 1.56283 19.6648C1.11885 19.6656 0.675223 19.6396 0.234375 19.587C2.78386 21.2244 5.75059 22.0938 8.78061 22.0914" fill="white"/>
</svg>
