<svg width="167" height="118" viewBox="0 0 167 118" fill="none" xmlns="http://www.w3.org/2000/svg">
<g filter="url(#filter0_d_1075_49645)">
<path opacity="0.86" d="M137.601 56.0181C136.031 56.0181 134.466 56.2094 132.941 56.5876C133.283 55.1008 133.456 53.5801 133.457 52.0543C133.457 40.8967 124.444 31.852 113.327 31.852C109.108 31.852 105.193 33.157 101.958 35.3832C98.1821 20.7816 84.9614 10 69.2309 10C50.5577 10 35.4203 25.1918 35.4203 43.9321C21.3812 43.9321 10 55.3764 10 69.4662C10 83.556 21.3806 95 35.4197 95H137.601C148.315 95 157 86.2612 157 75.5092C157 64.7569 148.315 56.0181 137.601 56.0181Z" fill="white"/>
<path fill-rule="evenodd" clip-rule="evenodd" d="M91.3479 107.803C91.5408 107.694 91.7809 107.467 91.8814 107.298C92.0631 106.993 92.0644 106.918 92.088 95.1913C92.1096 84.4548 92.1249 83.372 92.2568 83.1731C92.5694 82.7016 92.5864 82.6998 96.7947 82.6993C99.1645 82.699 100.817 82.6638 101.016 82.6093C101.418 82.4987 101.861 82.0169 101.94 81.6035C102.094 80.7931 102.633 81.3804 93.0144 71.8776C83.3739 62.3529 83.9971 62.9099 83.1501 63.0607C82.8533 63.1135 81.8416 64.0833 73.9526 71.8776C66.0637 79.672 65.0821 80.6715 65.0286 80.9647C64.9015 81.6621 65.2032 82.2668 65.8233 82.5576C66.0887 82.682 66.6188 82.6998 70.0567 82.6998C73.3655 82.6998 74.0312 82.7206 74.2678 82.8316C74.8538 83.1063 74.8095 82.1774 74.8584 95.2343C74.9027 107.057 74.9036 107.111 75.0862 107.352C75.187 107.486 75.38 107.677 75.515 107.776C75.758 107.955 75.84 107.958 83.3789 107.979L90.9972 108L91.3479 107.803Z" fill="#007580"/>
</g>
<defs>
<filter id="filter0_d_1075_49645" x="0" y="0" width="167" height="118" filterUnits="userSpaceOnUse" color-interpolation-filters="sRGB">
<feFlood flood-opacity="0" result="BackgroundImageFix"/>
<feColorMatrix in="SourceAlpha" type="matrix" values="0 0 0 0 0 0 0 0 0 0 0 0 0 0 0 0 0 0 127 0" result="hardAlpha"/>
<feOffset/>
<feGaussianBlur stdDeviation="5"/>
<feComposite in2="hardAlpha" operator="out"/>
<feColorMatrix type="matrix" values="0 0 0 0 0 0 0 0 0 0 0 0 0 0 0 0 0 0 0.15 0"/>
<feBlend mode="normal" in2="BackgroundImageFix" result="effect1_dropShadow_1075_49645"/>
<feBlend mode="normal" in="SourceGraphic" in2="effect1_dropShadow_1075_49645" result="shape"/>
</filter>
</defs>
</svg>
