<svg width="54" height="54" viewBox="0 0 54 54" fill="none" xmlns="http://www.w3.org/2000/svg">
<g filter="url(#filter0_d_1075_51946)">
<path d="M26 44C37.598 44 47 34.598 47 23C47 11.402 37.598 2 26 2C14.402 2 5 11.402 5 23C5 34.598 14.402 44 26 44Z" fill="#DA0000"/>
<path d="M39.4158 16.2579C39.2563 15.6609 38.9423 15.1165 38.5053 14.6795C38.0683 14.2426 37.5239 13.9285 36.9269 13.769C34.7554 13.209 26.0007 13.209 26.0007 13.209C26.0007 13.209 17.2461 13.209 15.0621 13.7939C14.4651 13.9534 13.9207 14.2675 13.4837 14.7044C13.0467 15.1414 12.7327 15.6858 12.5732 16.2828C11.9883 18.4605 11.9883 23.0214 11.9883 23.0214C11.9883 23.0214 11.9883 27.5792 12.5732 29.7632C12.7342 30.3578 13.049 30.8994 13.486 31.3336C13.9229 31.7678 14.4665 32.0792 15.0621 32.2365C17.2461 32.809 26.0007 32.809 26.0007 32.809C26.0007 32.809 34.7554 32.809 36.9394 32.2241C37.5349 32.0668 38.0786 31.7554 38.5155 31.3212C38.9524 30.887 39.2672 30.3453 39.4283 29.7508C40.0132 27.573 40.0132 23.009 40.0132 23.009C40.0132 23.009 40.0007 18.4419 39.4158 16.2579ZM23.2007 27.209V18.809L30.4745 23.009L23.2007 27.209Z" fill="white"/>
</g>
<defs>
<filter id="filter0_d_1075_51946" x="0" y="0" width="54" height="54" filterUnits="userSpaceOnUse" color-interpolation-filters="sRGB">
<feFlood flood-opacity="0" result="BackgroundImageFix"/>
<feColorMatrix in="SourceAlpha" type="matrix" values="0 0 0 0 0 0 0 0 0 0 0 0 0 0 0 0 0 0 127 0" result="hardAlpha"/>
<feOffset dx="1" dy="4"/>
<feGaussianBlur stdDeviation="3"/>
<feComposite in2="hardAlpha" operator="out"/>
<feColorMatrix type="matrix" values="0 0 0 0 0 0 0 0 0 0 0 0 0 0 0 0 0 0 0.2 0"/>
<feBlend mode="normal" in2="BackgroundImageFix" result="effect1_dropShadow_1075_51946"/>
<feBlend mode="normal" in="SourceGraphic" in2="effect1_dropShadow_1075_51946" result="shape"/>
</filter>
</defs>
</svg>
