<svg width="30" height="20" viewBox="0 0 30 20" fill="none" xmlns="http://www.w3.org/2000/svg">
<path d="M28.4119 3.25982C28.2524 2.66282 27.9383 2.11842 27.5014 1.68147C27.0644 1.24452 26.52 0.930451 25.923 0.770934C23.7515 0.210934 14.9968 0.210938 14.9968 0.210938C14.9968 0.210938 6.24215 0.210939 4.05815 0.795828C3.46115 0.955346 2.91675 1.2694 2.47979 1.70636C2.04284 2.14331 1.72878 2.68772 1.56927 3.28472C0.984377 5.4625 0.984375 10.0234 0.984375 10.0234C0.984375 10.0234 0.984377 14.5812 1.56927 16.7652C1.7303 17.3597 2.04512 17.9014 2.48205 18.3356C2.91898 18.7698 3.4626 19.0812 4.05815 19.2385C6.24215 19.8109 14.9968 19.8109 14.9968 19.8109C14.9968 19.8109 23.7515 19.8109 25.9355 19.226C26.531 19.0687 27.0746 18.7573 27.5116 18.3231C27.9485 17.8889 28.2633 17.3473 28.4244 16.7527C29.0093 14.5749 29.0093 10.0109 29.0093 10.0109C29.0093 10.0109 28.9968 5.44382 28.4119 3.25982ZM12.1968 14.2109V5.81094L19.4706 10.0109L12.1968 14.2109Z" fill="white"/>
</svg>
